<svg xmlns="http://www.w3.org/2000/svg" width="100%" height="100%" fill="none" viewBox="0 0 152 152"><g filter="url(#filter0_d_3090_3091)"><circle cx="76" cy="70" r="64" fill="#56748D"/><circle cx="76" cy="70" r="62.5" stroke="#4ED999" stroke-width="3"/></g><path fill="#4ED999" d="M78.4425 104.3C78.4 104.3 78.3575 104.3 78.315 104.3C77.2956 104.237 76.4673 103.479 76.3398 102.467L69.6496 51.3034L64.3823 81.9092C64.2336 82.7938 63.5115 83.4889 62.6195 83.6364C61.7274 83.7838 60.8354 83.3415 60.4106 82.5411L58.1381 78.2651C57.7558 78.876 57.0761 79.234 56.354 79.234H42.1239C40.9558 79.234 40 78.2862 40 77.1277C40 75.9692 40.9558 75.0213 42.1239 75.0213H55.1434L56.4389 72.8938C56.8212 72.2619 57.5221 71.8617 58.2655 71.8617C58.2867 71.8617 58.308 71.8617 58.3292 71.8617C59.0938 71.8828 59.7947 72.304 60.1558 72.9781L61.2814 75.0845L67.8655 36.7483C68.0354 35.7372 68.9274 35 69.9681 35C69.9894 35 69.9894 35 70.0106 35C71.0513 35.0211 71.9434 35.8004 72.0708 36.8326L79.1646 91.1562L84.2619 71.7353C84.4956 70.8085 85.3451 70.1555 86.3221 70.1555C87.2991 70.1555 88.1274 70.8085 88.3823 71.7353L89.4867 76.0745L90.9097 72.5568C91.2071 71.8196 91.908 71.314 92.6938 71.2298C93.5009 71.1666 94.2655 71.5457 94.6903 72.2409L96.4106 75.0213H109.876C111.044 75.0213 112 75.9692 112 77.1277C112 78.2862 111.044 79.234 109.876 79.234H95.2212C94.4779 79.234 93.7982 78.8549 93.4159 78.223L93.2885 78.0123L91.0372 83.5943C90.6973 84.4368 89.8478 84.9634 88.9345 84.9213C88.0212 84.8581 87.2354 84.2262 87.023 83.3415L86.3221 80.6453L80.5239 102.72C80.2478 103.647 79.3982 104.3 78.4425 104.3Z"/><g filter="url(#filter1_d_3090_3091)"><circle cx="76" cy="70" r="64" fill="#56748D"/><circle cx="76" cy="70" r="62.5" stroke="#4ED999" stroke-width="3"/></g><path fill-rule="evenodd" stroke="#4ED999" stroke-width="4" d="M78.6813 96.5529C78.2958 96.9 77.7088 96.8947 77.3296 96.5406L74.0217 93.4517C69.4876 89.2061 66.1939 86.0662 64.1407 84.0319C62.0875 81.9976 59.799 79.4768 57.2753 76.4696C54.7515 73.4623 53.0191 70.7426 52.0781 68.3102C51.137 65.8779 50.6665 63.3792 50.6665 60.8142C50.6665 56.4802 52.0995 52.8096 54.9654 49.8024C57.8314 46.7951 61.4031 45.2915 65.6806 45.2915C70.2422 45.2915 74.0808 46.9734 77.1964 50.3374C77.6262 50.8014 78.3735 50.8014 78.8033 50.3374C81.9189 46.9734 85.7574 45.2915 90.3191 45.2915C94.5966 45.2915 98.1683 46.7951 101.034 49.8024C103.9 52.8096 105.333 56.4802 105.333 60.8142C105.333 64.2637 104.221 67.8458 101.997 71.5607C99.7724 75.2755 97.3556 78.5039 94.7463 81.2458C92.137 83.9877 87.8809 88.1005 81.9779 93.5843L78.6813 96.5529Z" clip-rule="evenodd"/><defs><filter id="filter0_d_3090_3091" width="152" height="152" x="0" y="0" color-interpolation-filters="sRGB" filterUnits="userSpaceOnUse"><feFlood flood-opacity="0" result="BackgroundImageFix"/><feColorMatrix in="SourceAlpha" result="hardAlpha" type="matrix" values="0 0 0 0 0 0 0 0 0 0 0 0 0 0 0 0 0 0 127 0"/><feOffset dy="6"/><feGaussianBlur stdDeviation="6"/><feComposite in2="hardAlpha" operator="out"/><feColorMatrix type="matrix" values="0 0 0 0 0.176471 0 0 0 0 0.243137 0 0 0 0 0.305882 0 0 0 0.2 0"/><feBlend in2="BackgroundImageFix" mode="normal" result="effect1_dropShadow_3090_3091"/><feBlend in="SourceGraphic" in2="effect1_dropShadow_3090_3091" mode="normal" result="shape"/></filter><filter id="filter1_d_3090_3091" width="152" height="152" x="0" y="0" color-interpolation-filters="sRGB" filterUnits="userSpaceOnUse"><feFlood flood-opacity="0" result="BackgroundImageFix"/><feColorMatrix in="SourceAlpha" result="hardAlpha" type="matrix" values="0 0 0 0 0 0 0 0 0 0 0 0 0 0 0 0 0 0 127 0"/><feOffset dy="6"/><feGaussianBlur stdDeviation="6"/><feComposite in2="hardAlpha" operator="out"/><feColorMatrix type="matrix" values="0 0 0 0 0.176471 0 0 0 0 0.243137 0 0 0 0 0.305882 0 0 0 0.2 0"/><feBlend in2="BackgroundImageFix" mode="normal" result="effect1_dropShadow_3090_3091"/><feBlend in="SourceGraphic" in2="effect1_dropShadow_3090_3091" mode="normal" result="shape"/></filter></defs></svg>