<svg xmlns="http://www.w3.org/2000/svg" width="100%" height="100%" fill="none" viewBox="0 0 153 152"><g filter="url(#filter0_d_3090_3093)"><circle cx="76.5" cy="70" r="64" fill="#56748D"/><circle cx="76.5" cy="70" r="62.5" stroke="#4ED999" stroke-width="3"/></g><path fill="#4ED999" d="M94.2915 88C94.2366 88 94.1817 88 94.1085 88C89.1124 87.9425 84.4458 85.5836 81.298 81.5178C80.017 79.8685 78.1686 78.9096 76.2105 78.9096H75.7712C73.8131 78.9096 71.9647 79.8493 70.6837 81.5178C67.5359 85.5836 62.8693 87.9425 57.8732 88C57.8183 88 57.7634 88 57.6902 88C53.298 88 49.1438 86.1973 45.9778 82.8986C42.7752 79.5616 41 75.1699 41 70.4904C41 60.8438 48.485 53 57.7085 53C62.7412 53 67.4627 55.3397 70.6471 59.4438C71.9464 61.1315 73.8497 62.0904 75.8444 62.0904H76.1739C78.1686 62.0904 80.0536 61.1315 81.3712 59.4438C84.5373 55.3397 89.2588 53 94.3098 53C103.515 53 111 60.8438 111.018 70.4904C111.018 75.1507 109.243 79.5616 106.041 82.8986C102.838 86.1973 98.6837 88 94.2915 88ZM75.7712 75.074H76.2471C79.3033 75.074 82.1948 76.5315 84.1712 79.1014C86.6235 82.2849 90.2654 84.126 94.1634 84.1644C97.6405 84.2027 100.935 82.7836 103.442 80.1753C105.949 77.5671 107.34 74.1342 107.34 70.4904C107.34 62.9534 101.484 56.8356 94.2915 56.8356C90.3569 56.8356 86.6784 58.6767 84.1895 61.8603C82.1765 64.4301 79.2667 65.9068 76.1556 65.9068H75.8261C72.7333 65.9068 69.8052 64.4301 67.7922 61.8603C65.3216 58.6767 61.6248 56.8356 57.7085 56.8356C50.5163 56.8356 44.6601 62.9726 44.6601 70.4904C44.6601 74.1151 46.051 77.5671 48.5582 80.1753C51.0471 82.7452 54.2863 84.1644 57.7085 84.1644C57.7451 84.1644 57.8 84.1644 57.8366 84.1644C61.7346 84.126 65.3765 82.2849 67.8288 79.1014C69.8052 76.5507 72.6967 75.074 75.7712 75.074Z"/><defs><filter id="filter0_d_3090_3093" width="152" height="152" x=".5" y="0" color-interpolation-filters="sRGB" filterUnits="userSpaceOnUse"><feFlood flood-opacity="0" result="BackgroundImageFix"/><feColorMatrix in="SourceAlpha" result="hardAlpha" type="matrix" values="0 0 0 0 0 0 0 0 0 0 0 0 0 0 0 0 0 0 127 0"/><feOffset dy="6"/><feGaussianBlur stdDeviation="6"/><feComposite in2="hardAlpha" operator="out"/><feColorMatrix type="matrix" values="0 0 0 0 0.176471 0 0 0 0 0.243137 0 0 0 0 0.305882 0 0 0 0.2 0"/><feBlend in2="BackgroundImageFix" mode="normal" result="effect1_dropShadow_3090_3093"/><feBlend in="SourceGraphic" in2="effect1_dropShadow_3090_3093" mode="normal" result="shape"/></filter></defs></svg>