<svg width="100%" height="100%" viewBox="0 0 152 152" fill="none" xmlns="http://www.w3.org/2000/svg">
<g filter="url(#filter0_d_812_1888)">
<circle cx="76" cy="70" r="64" fill="#56748D"/>
<circle cx="76" cy="70" r="62.5" stroke="#4ED999" stroke-width="3"/>
</g>
<path d="M63.9523 106C63.7775 106 63.6028 106 63.428 106C57.2142 105.787 50.4178 101.377 49.2333 92.0139C49.2139 91.9365 49.2139 91.8592 49.2139 91.7818V38.8167C49.2139 37.7528 50.0877 36.8823 51.1557 36.8823C52.2237 36.8823 53.0975 37.7528 53.0975 38.8167V91.6464C54.0878 99.1327 59.3502 101.976 63.5639 102.131C68.4185 102.305 73.9915 99.1133 75.5644 91.569V47.4056C75.5644 43.3433 77.2732 39.9193 80.4772 37.5206C83.2152 35.4701 86.8658 34.3481 90.7494 34.3481C94.6331 34.3481 98.2837 35.4701 101.022 37.5206C104.245 39.9193 105.934 43.3433 105.934 47.4056V91.7624C105.934 92.8264 105.061 93.6969 103.993 93.6969C102.925 93.6969 102.051 92.8264 102.051 91.7624V47.4056C102.051 41.08 96.1866 38.217 90.7494 38.217C85.3123 38.217 79.448 41.0994 79.448 47.4056V91.7624C79.448 91.8978 79.4286 92.0139 79.4092 92.13C78.5354 96.5212 76.4382 100.177 73.3507 102.653C70.671 104.839 67.3505 106 63.9523 106Z" fill="#4ED999"/>
<path d="M60.0879 40.5578H57.7966C57.2529 40.5578 56.8257 40.1322 56.8257 39.5905V34.9672C56.8257 34.4256 57.2529 34 57.7966 34H60.0879C60.6317 34 61.0589 34.4256 61.0589 34.9672V39.5905C61.0589 40.1322 60.6122 40.5578 60.0879 40.5578Z" fill="#4ED999"/>
<path d="M104.012 67.9492C100.42 67.9492 97.5068 70.8509 97.5068 74.4296C97.5068 78.0083 100.42 80.91 104.012 80.91C107.604 80.91 110.517 78.0083 110.517 74.4296C110.517 70.8509 107.604 67.9492 104.012 67.9492ZM107.216 73.4624C106.459 73.4624 105.857 72.8627 105.857 72.1083C105.857 71.3538 106.459 70.7542 107.216 70.7542C107.973 70.7542 108.575 71.3538 108.575 72.1083C108.575 72.8627 107.973 73.4624 107.216 73.4624Z" fill="#4ED999"/>
<path d="M51.1752 62.8619C50.5926 62.8619 50.0295 62.5911 49.6605 62.1462L41.4272 51.9903C41.1553 51.6421 41 51.2165 41 50.7716V35.9344C41 34.8705 41.8738 34 42.9418 34C44.0098 34 44.8836 34.8705 44.8836 35.9344V50.0946L51.1557 57.8323L57.0006 50.4234V44.2139C57.0006 43.1499 57.8744 42.2794 58.9424 42.2794C60.0104 42.2794 60.8843 43.1499 60.8843 44.2139V51.0811C60.8843 51.5067 60.7289 51.9323 60.4765 52.2805L52.7092 62.1268C52.3402 62.5911 51.7771 62.8619 51.1752 62.8619Z" fill="#4ED999"/>
<defs>
<filter id="filter0_d_812_1888" x="0" y="0" width="152" height="152" filterUnits="userSpaceOnUse" color-interpolation-filters="sRGB">
<feFlood flood-opacity="0" result="BackgroundImageFix"/>
<feColorMatrix in="SourceAlpha" type="matrix" values="0 0 0 0 0 0 0 0 0 0 0 0 0 0 0 0 0 0 127 0" result="hardAlpha"/>
<feOffset dy="6"/>
<feGaussianBlur stdDeviation="6"/>
<feComposite in2="hardAlpha" operator="out"/>
<feColorMatrix type="matrix" values="0 0 0 0 0.176471 0 0 0 0 0.243137 0 0 0 0 0.305882 0 0 0 0.2 0"/>
<feBlend mode="normal" in2="BackgroundImageFix" result="effect1_dropShadow_812_1888"/>
<feBlend mode="normal" in="SourceGraphic" in2="effect1_dropShadow_812_1888" result="shape"/>
</filter>
</defs>
</svg>
