<svg xmlns="http://www.w3.org/2000/svg" width="100%" height="100%" viewBox="0 0 260 260"><defs><style>.cls-1{fill:#3c5368;}.cls-2{fill:#59ccd9;}</style></defs><g id="Capa_2" data-name="Capa 2"><g id="Capa_2-2" data-name="Capa 2"><circle class="cls-1" cx="130" cy="130" r="127.5"/><path class="cls-2" d="M130,5A125,125,0,1,1,5,130,125,125,0,0,1,130,5m0-5A130,130,0,0,0,38.08,221.92,130,130,0,1,0,221.92,38.08,129.12,129.12,0,0,0,130,0Z"/><path class="cls-2" d="M160,81.81A12,12,0,0,0,148,70H112a12,12,0,0,0-12,11.81,11.05,11.05,0,0,0-10.31,11V179a11.06,11.06,0,0,0,11,11h58.52a11.06,11.06,0,0,0,11.05-11V92.82A11.05,11.05,0,0,0,160,81.81Zm-48-4.45H148a4.61,4.61,0,0,1,4.6,4.6V83.8a4.73,4.73,0,0,1-.09.93A4.61,4.61,0,0,1,148,88.4h-35a4.61,4.61,0,0,1-4.51-3.67,3.7,3.7,0,0,0-1.2-2V82A4.61,4.61,0,0,1,112,77.36Zm51,101.6a3.68,3.68,0,0,1-3.68,3.68H100.74A3.68,3.68,0,0,1,97.06,179V92.82a3.68,3.68,0,0,1,3.68-3.68h.52A12,12,0,0,0,112,95.77h37.18a12,12,0,0,0,10.69-6.59,3.69,3.69,0,0,1,3.11,3.64Z"/><path class="cls-2" d="M154.11,102.76H105.89a3.68,3.68,0,0,0,0,7.36h48.22a3.68,3.68,0,0,0,0-7.36Z"/><path class="cls-2" d="M154.11,117.12H105.89a3.68,3.68,0,0,0,0,7.36h48.22a3.68,3.68,0,0,0,0-7.36Z"/><path class="cls-2" d="M154.11,131.47H105.89a3.68,3.68,0,0,0,0,7.36h48.22a3.68,3.68,0,0,0,0-7.36Z"/><path class="cls-2" d="M146.38,162h-8.83a2.58,2.58,0,0,0-2.4,1.64l-1.41,3.58-4.42-13.73a2.57,2.57,0,0,0-4.77-.34l-4.45,9.22h-6.48a2.58,2.58,0,1,0,0,5.16h8.1a2.58,2.58,0,0,0,2.32-1.46l2.35-4.87L131,175.7a2.59,2.59,0,0,0,2.38,1.78h.08a2.58,2.58,0,0,0,2.4-1.63l3.4-8.67h7.08a2.58,2.58,0,1,0,0-5.16Z"/></g></g></svg>
