<svg xmlns="http://www.w3.org/2000/svg" viewBox="0 0 260 260"><defs><style>.cls-1{fill:#3c5368;}.cls-2{fill:#59ccd9;}</style></defs><g id="Capa_2" data-name="Capa 2"><g id="Capa_2-2" data-name="Capa 2"><circle class="cls-1" cx="130" cy="130" r="127.5"/><path class="cls-2" d="M130,5A125,125,0,1,1,5,130,125,125,0,0,1,130,5m0-5A130,130,0,0,0,38.08,221.92,130,130,0,1,0,221.92,38.08,129.12,129.12,0,0,0,130,0Z"/></g><g id="Capa_3" data-name="Capa 3"><path class="cls-2" d="M107.93,197.49h-1c-11.55-.41-24.18-8.64-26.36-26.1a3,3,0,0,1,0-.42V71.56a3.45,3.45,0,0,1,6.9,0v99.18c1.87,14.19,11.78,19.56,19.74,19.84,9.16.33,19.66-5.73,22.62-20V87.69A22.22,22.22,0,0,1,139,69.26a33.83,33.83,0,0,1,38.21,0,22.19,22.19,0,0,1,9.12,18.43V171a3.45,3.45,0,0,1-6.9,0V87.69c0-12-11-17.44-21.32-17.44s-21.33,5.45-21.33,17.44V171a3.88,3.88,0,0,1-.06.67c-1.63,8.21-5.53,15-11.27,19.65A27.78,27.78,0,0,1,107.93,197.49Z"/><rect class="cls-2" x="94.58" y="62.51" width="7.92" height="12.31" rx="3.96"/><path class="cls-2" d="M182.83,126.24A12.17,12.17,0,1,0,195,138.41,12.17,12.17,0,0,0,182.83,126.24Zm6,10.34a2.54,2.54,0,1,1,2.54-2.54A2.55,2.55,0,0,1,188.83,136.58Z"/><path class="cls-2" d="M84,116.7a3.61,3.61,0,0,1-2.82-1.35L65.8,96.27A3.64,3.64,0,0,1,65,94V66.14a3.63,3.63,0,0,1,7.26,0V92.71L84,107.24,94.91,93.32V81.68a3.63,3.63,0,1,1,7.26,0v12.9a3.59,3.59,0,0,1-.78,2.24L86.88,115.31a3.63,3.63,0,0,1-2.83,1.39Z"/></g></g></svg>