<svg xmlns="http://www.w3.org/2000/svg" width="100%" height="100%" viewBox="0 0 260 260"><defs><style>.cls-1{fill:#3c5368}.cls-2{fill:#59ccd9}</style></defs><g id="Capa_2" data-name="Capa 2"><g id="Capa_2-2" data-name="Capa 2"><circle cx="130" cy="130" r="127.5" class="cls-1"/><path d="M130,5A125,125,0,1,1,5,130,125,125,0,0,1,130,5m0-5A130,130,0,0,0,38.08,221.92,130,130,0,1,0,221.92,38.08,129.12,129.12,0,0,0,130,0Z" class="cls-2"/><path d="M134.75,197.94h-.26a4.15,4.15,0,0,1-3.84-3.59L117.67,94l-10.24,60a4.13,4.13,0,0,1-7.72,1.23l-4.42-8.38a4.15,4.15,0,0,1-3.49,1.91H64.13a4.13,4.13,0,0,1,0-8.26H89.46L92,136.34a4.15,4.15,0,0,1,3.55-2h.11a4.13,4.13,0,0,1,3.54,2.2l2.17,4.11L114.16,65.5a4.13,4.13,0,0,1,4.07-3.44h.08a4.14,4.14,0,0,1,4,3.59l13.78,106.53L146,134.12a4.14,4.14,0,0,1,4-3.09h0a4.14,4.14,0,0,1,4,3.09l2.2,8.49,2.77-6.92a4.13,4.13,0,0,1,7.36-.62l3.33,5.46h26.18a4.13,4.13,0,0,1,0,8.26h-28.5a4.13,4.13,0,0,1-3.52-2l-.24-.4-4.38,10.93a4.13,4.13,0,0,1-7.83-.49L150,151.56l-11.28,43.29A4.15,4.15,0,0,1,134.75,197.94Z" class="cls-2"/></g></g></svg>
