<svg xmlns="http://www.w3.org/2000/svg" viewBox="0 0 260 260"><defs><style>.cls-1{fill:#3c5368;}.cls-2{fill:#59ccd9;}</style></defs><g id="Capa_2" data-name="Capa 2"><g id="Capa_2-2" data-name="Capa 2"><circle class="cls-1" cx="130" cy="130" r="127.5"/><path class="cls-2" d="M130,5A125,125,0,1,1,5,130,125,125,0,0,1,130,5m0-5A130,130,0,0,0,38.08,221.92,130,130,0,1,0,221.92,38.08,129.12,129.12,0,0,0,130,0Z"/></g><g id="Capa_3" data-name="Capa 3"><path class="cls-2" d="M158.21,123c-.74,0-1.48,0-2.21.08a31.78,31.78,0,1,0-52.73,0c-.49,0-1,0-1.48,0A31.79,31.79,0,1,0,130,169.34,31.78,31.78,0,1,0,158.21,123Zm-28.56-42.5a24.82,24.82,0,1,1-24.82,24.82A24.84,24.84,0,0,1,129.65,80.45ZM131.87,137a33.06,33.06,0,0,0-1.87,3.15,32,32,0,0,0-1.84-3.1c.5,0,1,0,1.49,0C130.4,137.05,131.14,137,131.87,137Zm-30.08,42.58a24.82,24.82,0,1,1,24.72-26.93c-.05.7-.08,1.4-.08,2.11s0,1.41.08,2.11A24.85,24.85,0,0,1,101.79,179.55Zm56.42,0a24.85,24.85,0,0,1-24.72-22.71c0-.7.08-1.4.08-2.11s0-1.41-.08-2.11a24.82,24.82,0,1,1,24.72,26.93Z"/></g></g></svg>