<svg xmlns="http://www.w3.org/2000/svg" width="100%" height="100%" viewBox="0 0 260 260"><defs><style>.cls-1{fill:#3c5368;}.cls-2{fill:#59ccd9;}</style></defs><g id="Capa_2" data-name="Capa 2"><g id="Capa_2-2" data-name="Capa 2"><circle class="cls-1" cx="130" cy="130" r="127.5"/><path class="cls-2" d="M130,5A125,125,0,1,1,5,130,125,125,0,0,1,130,5m0-5A130,130,0,0,0,38.08,221.92,130,130,0,1,0,221.92,38.08,129.12,129.12,0,0,0,130,0Z"/></g><g id="Capa_3" data-name="Capa 3"><path class="cls-2" d="M161.37,158.63h-.3A28.59,28.59,0,0,1,139.12,148a11.2,11.2,0,0,0-8.72-4.26h-.8a11.2,11.2,0,0,0-8.72,4.26,28.64,28.64,0,1,1-.06-36.1,11.5,11.5,0,0,0,8.9,4.32h.56a11.5,11.5,0,0,0,8.9-4.32,28.58,28.58,0,1,1,22.19,46.71ZM129.6,137.49h.8a17.5,17.5,0,0,1,13.6,6.57,22.34,22.34,0,1,0,0-28.18,17.74,17.74,0,0,1-13.76,6.63h-.56A17.74,17.74,0,0,1,116,115.88a22.31,22.31,0,1,0-17.33,36.47h.23A22.29,22.29,0,0,0,116,144.06,17.5,17.5,0,0,1,129.6,137.49Z"/></g></g></svg>
