<svg xmlns="http://www.w3.org/2000/svg" width="100%" height="100%" viewBox="0 0 260 260"><defs><style>.cls-1{fill:#3c5368;}.cls-2{fill:#59ccd9;}</style></defs><g id="Capa_2" data-name="Capa 2"><g id="Capa_2-2" data-name="Capa 2"><circle class="cls-1" cx="130" cy="130" r="127.5"/><path class="cls-2" d="M130,5A125,125,0,1,1,5,130,125,125,0,0,1,130,5m0-5A130,130,0,0,0,38.08,221.92,130,130,0,1,0,221.92,38.08,129.12,129.12,0,0,0,130,0Z"/></g><g id="Capa_3" data-name="Capa 3"><path class="cls-2" d="M129.5,160.25a88.63,88.63,0,0,1-49.26-14.86,3,3,0,0,1-.93-4l27.23-47.16a3,3,0,0,1,2.06-1.45,3,3,0,0,1,2.44.65,28.91,28.91,0,0,0,36.92,0,3,3,0,0,1,2.44-.65,3,3,0,0,1,2.06,1.45l27.23,47.16a3,3,0,0,1-.93,4A88.63,88.63,0,0,1,129.5,160.25ZM85.92,141.92a83.07,83.07,0,0,0,87.16,0L149,100.15a34.85,34.85,0,0,1-38.92,0Z"/><path class="cls-2" d="M186.51,174.23h-114a3,3,0,0,1-3-3V81.76a3,3,0,0,1,3-3h114a3,3,0,0,1,3,3v89.48A3,3,0,0,1,186.51,174.23Zm-111-6h108V84.75h-108Z"/></g></g></svg>
