<svg xmlns="http://www.w3.org/2000/svg" viewBox="0 0 260 260"><defs><style>.cls-1{fill:#3c5368;}.cls-2{fill:#59ccd9;}</style></defs><g id="Capa_2" data-name="Capa 2"><g id="Capa_2-2" data-name="Capa 2"><circle class="cls-1" cx="130" cy="130" r="127.5"/><path class="cls-2" d="M130,5A125,125,0,1,1,5,130,125,125,0,0,1,130,5m0-5A130,130,0,0,0,38.08,221.92,130,130,0,1,0,221.92,38.08,129.12,129.12,0,0,0,130,0Z"/><path class="cls-2" d="M151.27,63.25h-6.33a7.32,7.32,0,0,0-7.31,7.31l0,22.94H122.42l0-22.94a7.32,7.32,0,0,0-7.31-7.31h-6.33a7.32,7.32,0,0,0-7.31,7.31v3.18a7.31,7.31,0,0,0,3.15,6v96.66l.12.54.09.39c2.48,11.43,13,19.41,25.67,19.41h.24c12.38-.1,22.25-8,24.57-19.56l.07-.36.1-.5V79.75a7.31,7.31,0,0,0,3.15-6V70.56A7.32,7.32,0,0,0,151.27,63.25Zm2.14,10.49a2.14,2.14,0,0,1-2.14,2.14h-1v99.94l-.07.36c-1.86,9.27-9.52,15.32-19.53,15.4h-.21c-10.19,0-18.66-6.28-20.62-15.34l-.09-.39v-100h-1a2.14,2.14,0,0,1-2.14-2.14V70.56a2.14,2.14,0,0,1,2.14-2.14h6.33a2.14,2.14,0,0,1,2.14,2.14V175c1.58,6.26,7.91,9.1,13.27,9.1h.13c4.94,0,10.7-2.45,12.2-9.06V70.56a2.14,2.14,0,0,1,2.14-2.14h6.33a2.14,2.14,0,0,1,2.14,2.14Z"/></g></g></svg>