<svg xmlns="http://www.w3.org/2000/svg" width="100%" height="100%" viewBox="0 0 260 260"><defs><style>.cls-1{fill:#3c5368;}.cls-2{fill:#59ccd9;}.cls-3{fill:#5ac6d4;}</style></defs><g id="Capa_2" data-name="Capa 2"><g id="Capa_2-2" data-name="Capa 2"><circle class="cls-1" cx="130" cy="130" r="127.5"/><path class="cls-2" d="M130,5A125,125,0,1,1,5,130,125,125,0,0,1,130,5m0-5A130,130,0,0,0,38.08,221.92,130,130,0,1,0,221.92,38.08,129.12,129.12,0,0,0,130,0Z"/><path class="cls-3" d="M140.94,70.66a.91.91,0,0,1,.55.18c.31.23,7.59,5.89,6.67,22.87,0,.07,0,.11,0,.13v0h0l-6.32,27.53a.89.89,0,0,1-.88.7h-5l-.7,2.2-.43,1.33-.31,1,.31,1,.94,3,4.06,12.9a10,10,0,0,0,9.46,7,9.48,9.48,0,0,0,2.25-.26,19.86,19.86,0,0,1,24.5,20.1,19.93,19.93,0,0,1-19.1,19.05h-.72a20,20,0,0,1-17.81-11,.83.83,0,0,1,0-.12L133,161.71l-3-9.36-3,9.36-5.3,16.5s0,.08,0,.12a20.05,20.05,0,0,1-17.81,11h-.72a19.86,19.86,0,0,1-13.57-33.61,19.89,19.89,0,0,1,19-5.54,9.48,9.48,0,0,0,2.25.26,10,10,0,0,0,9.46-7l3.11-9.9.31-1-.32-1-.1-.32L121,124.18l-.54-1.68-1.72-.42a.91.91,0,0,1-.66-.68l-6.32-27.53h0v0s0-.06,0-.12c-.92-17,6.36-22.65,6.68-22.88a.86.86,0,0,1,.54-.18,1.18,1.18,0,0,1,.28,0,.94.94,0,0,1,.59.62l7.11,25.22,3,10.79,3-10.79,7.11-25.23a.9.9,0,0,1,.57-.6.93.93,0,0,1,.29,0h0m0-3.16a4.21,4.21,0,0,0-1.3.21,4,4,0,0,0-2.6,2.75l-7.11,25.23-7.11-25.23a4.08,4.08,0,0,0-2.61-2.75,4.16,4.16,0,0,0-1.3-.21,4.08,4.08,0,0,0-2.44.81c-.91.69-8.92,7.25-7.94,25.58a5.46,5.46,0,0,0,.1.69L115,122.11a4.06,4.06,0,0,0,3,3l2.28,7.11.11.34-3.11,9.89a6.84,6.84,0,0,1-6.45,4.81,6.49,6.49,0,0,1-1.51-.18A23,23,0,0,0,80.87,170.4,23.07,23.07,0,0,0,103,192.48c.28,0,.55,0,.83,0a23.1,23.1,0,0,0,20.63-12.76,3.57,3.57,0,0,0,.23-.57l5.3-16.49,5.3,16.49a3.57,3.57,0,0,0,.23.57,23.1,23.1,0,0,0,20.63,12.76c.28,0,.55,0,.83,0a23.07,23.07,0,0,0,22.14-22.08,23,23,0,0,0-28.39-23.29,6.49,6.49,0,0,1-1.51.18,6.84,6.84,0,0,1-6.45-4.81l-4.06-12.9-.94-3,.43-1.34h2.73a4.06,4.06,0,0,0,4-3.15l6.32-27.53a5.46,5.46,0,0,0,.1-.69c1-18.33-7-24.89-7.94-25.58a4.08,4.08,0,0,0-2.44-.81Z"/><path class="cls-3" d="M142.23,82l-8.08,28.68,1.82,6.49h1.74l5.51-24a36.41,36.41,0,0,0-1-11.14Z"/><path class="cls-3" d="M117.62,82a36.41,36.41,0,0,0-1,11.14l5.51,24h5.39L117.62,82Z"/><path class="cls-3" d="M156.14,160.23a9.48,9.48,0,1,1-9.48,9.48,9.49,9.49,0,0,1,9.48-9.48m0-3.15a12.64,12.64,0,1,0,12.63,12.63,12.65,12.65,0,0,0-12.63-12.63Z"/><path class="cls-3" d="M103.79,160.23a9.48,9.48,0,1,1-9.48,9.48,9.49,9.49,0,0,1,9.48-9.48m0-3.15a12.64,12.64,0,1,0,12.64,12.63,12.64,12.64,0,0,0-12.64-12.63Z"/><path class="cls-3" d="M127.53,117.14h-5.39l-5.51-24a36.41,36.41,0,0,1,1-11.14Z"/><path class="cls-3" d="M143.22,93.11l-5.51,24H136l-1.82-6.49L142.23,82A36.41,36.41,0,0,1,143.22,93.11Z"/></g></g></svg>
