<svg xmlns="http://www.w3.org/2000/svg" width="100%" height="100%" viewBox="0 0 260 260"><defs><style>.cls-1{fill:#3c5368}.cls-2{fill:#59ccd9}</style></defs><g id="Capa_2" data-name="Capa 2"><g id="Capa_2-2" data-name="Capa 2"><circle cx="130" cy="130" r="127.5" class="cls-1"/><path d="M130,5A125,125,0,1,1,5,130,125,125,0,0,1,130,5m0-5A130,130,0,0,0,38.08,221.92,130,130,0,1,0,221.92,38.08,129.12,129.12,0,0,0,130,0Z" class="cls-2"/><path d="M174.47,104.06a1.83,1.83,0,0,0-2.6,0l-51.06,51.06c-3.79,2.1-8.09,0-10.91-2.8-3.18-3.12-5.35-8.08-3.51-11.68l51-51a1.85,1.85,0,0,0,0-2.6l-3.64-3.64a1.83,1.83,0,0,0-2.6,0l-2,2a1.83,1.83,0,0,0,0,2.6l.38.38L101.52,136.4l-.29.29L101,137a13.84,13.84,0,0,0-1.11,10.9l-2.86,2.86a9.45,9.45,0,0,0-1.87,10.65l-22.8,22.8a6.45,6.45,0,0,0,9.12,0L99.74,166a9.45,9.45,0,0,0,10.65-1.87l2.51-2.51a14.75,14.75,0,0,0,4.64.77,13.15,13.15,0,0,0,7-2l.32-.2,48.35-48.36.38.38a1.83,1.83,0,0,0,2.6,0l2-2a1.82,1.82,0,0,0,0-2.59Z" class="cls-2"/><path d="M186.53,90.68,170.8,75a3.69,3.69,0,0,0-5.23,0h0a3.71,3.71,0,0,0,0,5.23l2,1.95L132.75,116.9l11.83,11.83L179.36,94l1.94,2a3.7,3.7,0,1,0,5.23-5.23Z" class="cls-2"/></g></g></svg>