<svg xmlns="http://www.w3.org/2000/svg" viewBox="0 0 260 260"><defs><style>.cls-1{fill:#3c5368;}.cls-2{fill:#59ccd9;}</style></defs><g id="Capa_2" data-name="Capa 2"><g id="Capa_2-2" data-name="Capa 2"><circle class="cls-1" cx="130" cy="130" r="127.5"/><path class="cls-2" d="M130,5A125,125,0,1,1,5,130,125,125,0,0,1,130,5m0-5A130,130,0,0,0,38.08,221.92,130,130,0,1,0,221.92,38.08,129.12,129.12,0,0,0,130,0Z"/><path class="cls-2" d="M182.33,170.67c-.12-.14-.25-.27-.38-.4l-62-62a4,4,0,0,0-3-1.18L80.75,70.86a2.92,2.92,0,0,0-4.88,1.27C73.7,79.9,74.44,86.85,78.09,92.8c6,9.82,18.18,13.77,22.45,14.89l4.41,9.85-1.34,1.34a4,4,0,0,0,0,5.72l62,62c.13.13.25.25.39.37a11.55,11.55,0,0,0,16.32-16.31ZM103.2,102.32c-.14,0-14.27-3-20.14-12.6a17.83,17.83,0,0,1-2.5-10.79l31,31-2.47,2.53L105.29,104A3,3,0,0,0,103.2,102.32Zm73,78.57a3.46,3.46,0,0,1-4.81.08l-59.23-59.23,4.9-4.9L176.23,176l.08.07,0,.05A3.45,3.45,0,0,1,176.23,180.89Z"/></g></g></svg>