<svg xmlns="http://www.w3.org/2000/svg" viewBox="0 0 250 250"><defs><style>.cls-1{fill:#c9eef2;}.cls-2{fill:#59ccd9;}</style></defs><g id="Capa_2" data-name="Capa 2"><g id="Capa_2-2" data-name="Capa 2"><circle class="cls-1" cx="125" cy="125" r="125"/><path class="cls-2" d="M180.15,76.2c-6.48-7.59-15.17-11.77-24.47-11.77s-18,4.18-24.46,11.77l-6.12,7.16L119,76.2c-6.48-7.59-15.17-11.77-24.47-11.77s-18,4.18-24.47,11.77c-13.12,15.38-13.12,40.41,0,55.8l4,4.73L61,149.49a3.19,3.19,0,0,0,0,4.54l30.61,30.61a3.2,3.2,0,0,0,4.51,0l10.84-10.84a31,31,0,0,0,18.16,6.29h.1c9.12-.13,17.64-4.31,24-11.77l31-36.32A42.89,42.89,0,0,0,190,104.1,42.89,42.89,0,0,0,180.15,76.2ZM93.79,177.88,67.73,151.81,89,131.11a3,3,0,0,0,.43-.52c.32-.47,7.84-11.77,9.84-16.45,1.26-2.92,3.29-7.92,4.57-11.12a4.59,4.59,0,0,1,1.7,2c1.31,3-.41,7.49-1.19,9a3.19,3.19,0,0,0,5.66,3,23.54,23.54,0,0,0,1.95-5.53,3.19,3.19,0,0,0,4.11-.33L135,92.18a2.21,2.21,0,0,1,3.13,3.13l-15.86,15.87a3.19,3.19,0,1,0,4.51,4.5l21-21a2.22,2.22,0,0,1,3.13,0,2.18,2.18,0,0,1,.64,1.57,2.16,2.16,0,0,1-.64,1.56l-21.2,21.86a3.19,3.19,0,0,0,4.51,4.51l18.34-18.34a1.81,1.81,0,0,1,2.5,0,1.8,1.8,0,0,1,0,2.51l-20.07,19.44a3.19,3.19,0,0,0,4.51,4.5l12.29-11.65h.11a1.77,1.77,0,0,1,1.25,3l-22,21.36a69.6,69.6,0,0,1-16.66,12.46,3,3,0,0,0-.87.61Zm81.51-50-31,36.33c-5.15,6-12,9.41-19.21,9.52a24.53,24.53,0,0,1-13.64-4.48l6.22-6.23a76.49,76.49,0,0,0,17.9-13.43l22-21.36a8.16,8.16,0,0,0,0-11.52,7.42,7.42,0,0,0-1-.85l2.93-2.93a8.16,8.16,0,0,0,0-11.52,8,8,0,0,0-2.36-1.64A8.58,8.58,0,0,0,144,89.53a8.56,8.56,0,0,0-13.55-1.86l-18.15,18.15a11.66,11.66,0,0,0-.91-3.41c-1-2.27-3.29-5.27-8.49-6.64a3.21,3.21,0,0,0-3.77,1.9c0,.1-3.83,9.58-5.71,14-1.43,3.34-6.88,11.8-9.1,15.15l-5.64,5.49-3.77-4.41c-11.17-13.1-11.17-34.42,0-47.52,5.25-6.15,12.22-9.54,19.62-9.54s14.37,3.39,19.62,9.54l8.54,10a3.17,3.17,0,0,0,2.42,1.12h0a3.21,3.21,0,0,0,2.43-1.12l8.54-10c5.24-6.15,12.21-9.54,19.61-9.54s14.37,3.39,19.62,9.54a36.46,36.46,0,0,1,8.32,23.76A36.48,36.48,0,0,1,175.3,127.86Z"/></g></g></svg>