<svg xmlns="http://www.w3.org/2000/svg" viewBox="0 0 250 250"><defs><style>.cls-1{fill:#c9eef2;}.cls-2{fill:#59ccd9;}</style></defs><g id="Capa_2" data-name="Capa 2"><g id="Capa_2-2" data-name="Capa 2"><circle class="cls-1" cx="125" cy="125" r="125"/><path class="cls-2" d="M127.58,162.79a5.32,5.32,0,0,0,5.15-5.26,9.36,9.36,0,0,0-.94-3.5c-3.53-7.95-7.49-15.71-10.23-24a29.19,29.19,0,0,0-7.49-11.63,31.56,31.56,0,0,0-9.61-6.5c-1.67-.72-3.17-.26-3.77,1.13s0,2.73,1.63,3.48l.46.2a25.66,25.66,0,0,1,10.8,9,23.54,23.54,0,0,1,3,5.56c2.86,8.61,6.91,16.7,10.63,24.93.2.44.33.9.56,1.56h-3.63c-2.53,0-3.35.82-3.36,3.34,0,3,0,6-.06,9,0,2.32-.5,2.81-2.81,3.06-1.81.19-3.64.14-5.44.35-5,.59-7.84,3.23-8.83,8.19-.21,1-.31,2.09-.46,3.15H75c0-.51,0-.93,0-1.35a72.35,72.35,0,0,0-3.81-21.78c-1.38-3.85-3.18-7.57-4.39-11.47-3.2-10.35-1.71-19.82,6-27.88a27.12,27.12,0,0,1,8.54-5.83c1.75-.81,2.3-2.26,1.52-3.7-.7-1.28-2-1.65-3.63-.92a31.13,31.13,0,0,0-17.87,20.39c-.61,2.08-.87,4.27-1.29,6.42v4.57a55.39,55.39,0,0,0,4,13.8c1.25,3.08,2.4,6.22,3.35,9.41a68,68,0,0,1,2.57,19.91A3.68,3.68,0,0,0,71.68,190h34.8a3.37,3.37,0,0,0,1.82-3.45,18.67,18.67,0,0,1,.23-3.42c.38-3,1.57-4.25,4.61-4.6,1.93-.22,3.88-.27,5.81-.46,3.82-.37,6.09-2.33,6.63-6.15a66.36,66.36,0,0,0,.27-7.47c0-.53,0-1.05,0-1.67C126.57,162.79,127.08,162.82,127.58,162.79Z"/><path class="cls-2" d="M187,105.92a32.83,32.83,0,0,0,2.91-17,31.73,31.73,0,0,0-61.53-7.7c-1.83,5-4,10-6.05,14.89-1.39,3.27-3,6.44-4.4,9.69a5.41,5.41,0,0,0,4.77,7.75c.49,0,1,0,1.61,0v1.37c0,2.07-.06,4.15,0,6.22.24,4.88,2.6,7.3,7.46,7.75,1.85.17,3.72.22,5.56.45,2.6.33,3.74,1.43,4.17,4a28.22,28.22,0,0,1,.32,3.79c.08,2.87.82,3.63,3.63,3.63h31.23a8.64,8.64,0,0,0,1.14,0,2.52,2.52,0,0,0,2.32-2.43c.05-.68,0-1.36,0-2A72.56,72.56,0,0,1,187,105.92Zm-11.83,28.77c0,.25,0,.51-.07.9H147c-.14-1-.23-2.06-.42-3.08-1-5.48-4.55-8.29-10.63-8.52-1.48-.06-3-.14-4.43-.26a1.92,1.92,0,0,1-2-1.92c-.07-1.27-.15-2.53-.17-3.8,0-2.28,0-4.57,0-6.85a2.49,2.49,0,0,0-2.68-2.71c-1.34,0-2.69,0-4.28,0,.21-.61.32-1,.5-1.42,3.71-8.28,7.8-16.4,10.66-25a22.29,22.29,0,0,1,6.27-9.42c8-7.34,17.3-9.41,27.51-5.85,10,3.51,15.71,11,17.34,21.39a27,27,0,0,1-2.32,15.72A77.67,77.67,0,0,0,175.12,134.69Z"/><path class="cls-2" d="M74.17,105.9A2.65,2.65,0,0,0,77,103.31a35.43,35.43,0,0,1,28.54-31,32.7,32.7,0,0,1,9.71-.5c-.93,1.86-.84,3,.19,3.87s2.13.79,3.6-.16,2.92-1.87,4.35-2.85a2.52,2.52,0,0,0,.79-3.84c-1-1.5-1.94-3-2.93-4.45s-2.11-1.93-3.39-1.36-1.75,1.73-1.28,3.52c0,0-.06.13-.12.25a3.76,3.76,0,0,1-.47,0,40.68,40.68,0,0,0-44,35.85C71.75,104.42,72.64,105.7,74.17,105.9Z"/><path class="cls-2" d="M175.7,147c-1.46-.27-2.49.65-3,2.39a64.92,64.92,0,0,1-2.79,8.53c-6,13-20.21,21.5-34,20.34a2.88,2.88,0,0,1,.22-.42c.94-1.32.95-2.61,0-3.56s-2.21-1-3.56-.11c-1.51,1-3,2-4.49,3.11a2.51,2.51,0,0,0-.72,3.84c1,1.45,2,2.87,3,4.29s2,1.92,3.29,1.5,1.73-1.41,1.63-3.2c0-.07.05-.14.07-.18,2.54-.13,5.08-.11,7.59-.42a40.55,40.55,0,0,0,34.81-32.75C178,148.55,177.26,147.27,175.7,147Z"/><path class="cls-2" d="M89.26,111.8a2.52,2.52,0,0,0,2.47,2.52,2.46,2.46,0,0,0,2.58-2.51,2.52,2.52,0,0,0-2.44-2.54A2.6,2.6,0,0,0,89.26,111.8Z"/></g></g></svg>