<svg xmlns="http://www.w3.org/2000/svg" viewBox="0 0 250 250"><defs><style>.cls-1{fill:#c9eef2;}.cls-2{fill:#59ccd9;}</style></defs><g id="Capa_2" data-name="Capa 2"><g id="Capa_2-2" data-name="Capa 2"><circle class="cls-1" cx="125" cy="125" r="125"/><path class="cls-2" d="M139.2,76.07l1.11,3.66c5.3-1.49,9.83-.25,13.11,4.25,3,4,2.76,8.38.36,12.82,4,1.25,7.05,3.52,8.34,7.62s.38,7.79-2.41,11.21c4.24,1.46,7.35,4,8.34,8.51s-.42,8.13-3.84,11.42a62.1,62.1,0,0,0,4.64,5.28c6.52,6,13.16,11.85,19.73,17.79a4.53,4.53,0,0,1,1.3,1.84,2.41,2.41,0,0,1-1.22,2.91,2.68,2.68,0,0,1-3.38-.43l-7.41-6.63c-3.89-3.49-7.82-6.93-11.64-10.49-2.08-1.94-3.95-4.11-6.06-6.31-1.54,1.56-3.26,3.23-4.9,5a60.17,60.17,0,0,1-25.06,16.4l1.48.68a20.53,20.53,0,0,1,8.21,6.32c4.68,6,9.49,12,14.24,17.91.26.32.51.64.76,1,1.14,1.5,1.08,3.11-.15,4.12s-2.88.78-4.14-.77c-1.46-1.79-2.89-3.62-4.33-5.43-3.28-4.12-6.65-8.17-9.81-12.38a19.21,19.21,0,0,0-8.12-6.18c-6-2.57-6-2.55-12.19-.52a20.24,20.24,0,0,0-8.63,5.47c-5.77,6.18-11.59,12.3-17.39,18.44a12.34,12.34,0,0,1-1.57,1.5,2.57,2.57,0,0,1-3.46-.37,2.65,2.65,0,0,1-.27-3.38,7.64,7.64,0,0,1,.8-.92q9.26-9.81,18.52-19.61a23.46,23.46,0,0,1,9.45-6c5.73-2,11.52-3.86,17.19-6a51.75,51.75,0,0,0,18.79-12.26c3.81-3.89,7.71-7.7,11.54-11.57a5.85,5.85,0,0,0-3.55-10,6.52,6.52,0,0,0-2.77.43,6.93,6.93,0,0,0-1.85,1.12c-1.6,1.14-3.1,1.12-4.13-.1s-.82-2.71.56-4.1c2-2,4-3.85,5.84-5.91a8.29,8.29,0,0,0,1.81-3.25,5.1,5.1,0,0,0-1.92-5.58,5.49,5.49,0,0,0-6.47-.73c-.63.35-1.19.82-1.8,1.22a2.71,2.71,0,0,1-3.53-4.09c1.67-1.74,3.43-3.39,5.08-5.14a5.92,5.92,0,0,0,1.11-6.81,5.65,5.65,0,0,0-5.92-3.22,8.46,8.46,0,0,0-3.36,1.59,27,27,0,0,0-2.93,2.84c-1.48,1.44-3,1.59-4.2.42s-1.13-2.56.15-4.11c3.06-3.72,1.5-8.87-3-9.89A5.52,5.52,0,0,0,125.08,77c-1.11,1-2.14,2.1-3.32,3.26,1.23,1.26,2.46,2.44,3.61,3.71a10.86,10.86,0,0,1-5.17,17.78c-.75.2-1.52.31-2.43.49A11,11,0,0,1,105,114.61c-2.32,7.11-3,7.81-9.24,10.12a32,32,0,0,1,0,5.28,10.54,10.54,0,0,1-10.78,8.86,2.33,2.33,0,0,0-1.93.91,57.25,57.25,0,0,1-5.65,5.48c-4.09,3.25-8.32,6.32-12.56,9.37a4.62,4.62,0,0,1-2.73.77,2.31,2.31,0,0,1-2-2.11,2.75,2.75,0,0,1,1.27-2.81c4-3,8.1-6,12.11-9.06,1.44-1.1,2.74-2.37,4.09-3.58a11.46,11.46,0,0,0,.88-1c-1.81-1.87-3.52-3.69-5.28-5.45-6.22-6.26-4.36-15.27,3.82-18.53l.45-.22a11,11,0,0,1-2-10.37A10.78,10.78,0,0,1,83.11,95C78.31,86,86.26,76.06,96,78.94a1.51,1.51,0,0,0,.17-.2c1-1.9.48-3.21-1-4.84-3.21-3.46-4.36-7.88-4.45-12.55a2.61,2.61,0,0,1,2.83-2.82c5.72,0,11.45-.15,17.17.09,2.24.1,4.44,1.1,6.68,1.64a2.85,2.85,0,0,0,1.71,0A19,19,0,0,1,127,58.52h15.4c2.5,0,3.61,1.14,3.4,3.63C145.3,67.57,143.63,72.45,139.2,76.07ZM112.33,104.3a5.85,5.85,0,0,0-1.8-4.55q-5-5-10-10c-1.45-1.44-2.84-2.94-4.36-4.31a5.4,5.4,0,1,0-7.21,8q6.27,6.24,12.51,12.51a24.18,24.18,0,0,0,2.27,2.15,5.14,5.14,0,0,0,5.64.54A4.93,4.93,0,0,0,112.33,104.3Zm10.72-13.2c-.55-1.15-.86-2.53-1.69-3.42-3.56-3.74-7.22-7.4-10.94-11a5.34,5.34,0,0,0-7.3.13,5.25,5.25,0,0,0-.34,7.37q5.43,5.72,11.15,11.15a4.91,4.91,0,0,0,5.84.72C121.74,95.11,122.69,93.45,123.05,91.1ZM80.1,105.74c.48,1.1.72,2.42,1.49,3.24,2.9,3.12,5.91,6.17,9,9.07a5.26,5.26,0,0,0,7.28-.39,5.35,5.35,0,0,0,.22-7.2q-4.34-4.62-9-9a4.94,4.94,0,0,0-5.85-.7A5.81,5.81,0,0,0,80.1,105.74Zm-5.51,17.59a16.74,16.74,0,0,0,1.8,3.5A66.19,66.19,0,0,0,81.45,132a5.37,5.37,0,0,0,7.88-7.27A63.21,63.21,0,0,0,83.66,119a5,5,0,0,0-5.73-.65C76,119.31,75,121,74.59,123.33Zm43.13-46.8,4.2-4.53c-.92-1.12-2-2.41-3-3.71a10,10,0,0,0-7-4c-4.16-.31-8.34-.21-12.51-.28h-3c.72,3.15,1.72,5.9,4.3,7.76,5.73-3,10.23-2.33,14.74,2.2C116.2,74.73,116.91,75.62,117.72,76.53ZM140,64.11c-4.17-.65-15.46-.21-17,.67,1.36,1.59,2.67,3.2,4.07,4.74a1.9,1.9,0,0,0,1.31.42,11.13,11.13,0,0,1,6.23,1.58,1.17,1.17,0,0,0,1.65-.18A12.72,12.72,0,0,0,140,64.11Z"/></g></g></svg>