<svg xmlns="http://www.w3.org/2000/svg" viewBox="0 0 250 250"><defs><style>.cls-1{fill:#c9eef2;}.cls-2{fill:#59ccd9;}</style></defs><g id="Capa_2" data-name="Capa 2"><g id="Capa_2-2" data-name="Capa 2"><circle class="cls-1" cx="125" cy="125" r="125"/><path class="cls-2" d="M189.07,170.33a3.24,3.24,0,0,1-1.7-2.47q-5-18.21-10-36.4a4.88,4.88,0,0,0-3.33-3.62c-9.38-3.28-18.71-6.71-28.08-10-2-.71-3.74-1.26-3.38-4,.17-1.32-.93-2.23-2.35-2.33a2.5,2.5,0,0,0-2.77,1.9l-.38,1.15c-.46-.13-.8-.21-1.13-.32L118.68,108c-3.84-1.38-7.66-2.79-11.52-4.12-2-.71-3.54.1-4.06,2Q98,124.48,92.93,143c-.12.43-.42,1-.79,1.16-1.52.56-1.74,1.69-1.62,3.07a14.19,14.19,0,0,0,8.26,12.18A14.71,14.71,0,0,0,119.93,147a2.51,2.51,0,0,0-1.48-2.73,2.28,2.28,0,0,1-1-1.34c-2.81-10.06-5.57-20.13-8.35-30.2-.21-.77-.41-1.55-.65-2.48a3.91,3.91,0,0,1,.58.05c9.12,3.26,18.24,6.5,27.33,9.83a2.07,2.07,0,0,1,.91,1.61q.06,30.44.06,60.86c0,1.24-.31,1.69-1.61,1.66-4-.07-8.06,0-12.09,0-1.87,0-3,1.13-3,2.76a2.67,2.67,0,0,0,3,2.62c1.84,0,3.67,0,5.51,0H156.2c1.76,0,2.82-.74,3.11-2.11.38-1.81-.92-3.26-3-3.27-3.83,0-7.65,0-11.47,0-2.09,0-2.1,0-2.1-2.06V122.35l29.91,10.72a1.84,1.84,0,0,1,0,.51Q167.82,151.26,163,169a1.6,1.6,0,0,1-.81,1c-1.41.49-1.62,1.57-1.53,2.82a14.17,14.17,0,0,0,7.85,12.13A14.66,14.66,0,0,0,190,172.82,3.12,3.12,0,0,0,189.07,170.33Zm-82.89-13.44a10.5,10.5,0,0,1-11.35-8.49h20.64C115.43,152.38,110.87,156.51,106.18,156.89Zm7.42-12.83H96.83c2.74-10,5.46-19.88,8.18-29.77h.39C108.12,124.15,110.84,134,113.6,144.06Zm61.52-4.21.39,0c2.72,9.9,5.45,19.8,8.23,29.9H166.91C169.67,159.7,172.39,149.77,175.12,139.85Zm1.56,42.64A10.59,10.59,0,0,1,164.89,174h20.62C185.71,177.74,181.35,181.89,176.68,182.49Z"/><path class="cls-2" d="M106.65,180.88c.18-2.85.53-5.7.5-8.54,0-3.75-1.67-5.74-5.35-6.33a66.72,66.72,0,0,0-8.38-.43c-3.91-.11-7.86.06-11.75-.29S77,164,77.21,160.09c.39-6.56,1-13.11,1.57-19.65.22-2.46-.71-3.69-3.18-3.7-2.14,0-4.28,0-6.42-.07-1,0-2.08-.24-3.37-.4.53-1.06.89-1.83,1.31-2.57,3.5-6.15,7-12.29,10.52-18.46a15,15,0,0,0,1.85-7.31c.08-4.43.41-8.86.7-13.28a16.88,16.88,0,0,1,.62-3.45A31.91,31.91,0,0,1,94.57,72.9,43.54,43.54,0,0,1,126,66.17c16.8,2.66,27.49,11.62,32.08,27.32,2.44,8.33,3.49,16.75,1.79,25.37a1.48,1.48,0,0,0,.56,1.28c1.34.59,2.76,1,4.27,1.55.15-.59.3-1.07.39-1.56a58.9,58.9,0,0,0-2.37-29.7C160.18,82.87,156.43,76,150.06,71c-11-8.72-23.61-11.92-37.47-10.13-11.29,1.46-21.16,6-28.93,14.45C79,80.43,75.6,86.37,74.88,93.42c-.52,5.12-.57,10.28-.94,15.41a9,9,0,0,1-.91,3.63c-2.52,4.6-5.23,9.1-7.78,13.69-1.64,2.93-3.26,5.89-4.64,8.94-1.23,2.74-.64,4.48,2.16,5.54a38.81,38.81,0,0,0,7.41,1.52,16.86,16.86,0,0,0,2.68,0c-.11,1.16-.23,2.06-.27,3-.28,5.54-.67,11.08-.79,16.63-.11,5.05,2.48,7.33,6.94,8.53a19.94,19.94,0,0,0,5,.69c4.48.08,9,0,13.46,0,4.14,0,4.79.74,4.53,4.89-.21,3.25-.51,6.5-.65,9.76-.12,3,.72,3.82,3.73,3.83h13.37c.09-1.88.16-3.53.24-5.32h-12C106.53,182.88,106.59,181.88,106.65,180.88Z"/></g></g></svg>