<svg xmlns="http://www.w3.org/2000/svg" viewBox="0 0 250 250"><defs><style>.cls-1{fill:#c9eef2;}.cls-2{fill:#59ccd9;}</style></defs><g id="Capa_2" data-name="Capa 2"><g id="Capa_2-2" data-name="Capa 2"><circle class="cls-1" cx="125" cy="125" r="125"/><path class="cls-2" d="M131.71,154.35H113.2a3.55,3.55,0,0,1-3.54-3.54V125.46a3.56,3.56,0,0,1,3.54-3.55h18.51a2.53,2.53,0,0,0,2.53-2.53v-18.5a3.55,3.55,0,0,1,3.55-3.55h25.34a3.55,3.55,0,0,1,3.55,3.55v18.5a2.54,2.54,0,0,0,2.54,2.53h8a2.52,2.52,0,0,0,2.42-1.81,42.48,42.48,0,0,0,1.77-12.21,39.93,39.93,0,0,0-9.17-26c-6-7.05-14.08-10.93-22.7-10.93s-16.68,3.88-22.7,10.93l-6.12,7.17-6.12-7.17C108.56,74.85,100.5,71,91.87,71S75.19,74.85,69.17,81.9c-12.23,14.33-12.23,37.64,0,52l29.21,34.24c5.91,6.92,13.82,10.8,22.27,10.92h.08a28.31,28.31,0,0,0,12.09-2.92,2.54,2.54,0,0,0,1.42-2.28V156.89A2.54,2.54,0,0,0,131.71,154.35Zm-2.54,17.85a23.18,23.18,0,0,1-8.48,1.76c-7-.11-13.51-3.36-18.45-9.14L73,130.58c-10.68-12.51-10.68-32.87,0-45.39,5-5.9,11.73-9.15,18.84-9.15s13.81,3.25,18.85,9.15l8,9.43a2.55,2.55,0,0,0,1.93.89h0a2.55,2.55,0,0,0,1.93-.89l8-9.43c5-5.9,11.73-9.15,18.84-9.15s13.81,3.25,18.84,9.15a34.79,34.79,0,0,1,8,22.7,37.72,37.72,0,0,1-1.06,9h-3.5v-16a8.62,8.62,0,0,0-8.62-8.62H137.79a8.63,8.63,0,0,0-8.62,8.62v16h-16a8.63,8.63,0,0,0-8.61,8.62v25.35a8.62,8.62,0,0,0,8.61,8.61h16Z"/><path class="cls-2" d="M181.38,122.67H164.65v-15.2A8.62,8.62,0,0,0,156,98.85H145.39a8.63,8.63,0,0,0-8.62,8.62v15.2H120.05a8.63,8.63,0,0,0-8.62,8.62v10.65a8.63,8.63,0,0,0,8.62,8.61h16.72V168.8a8.63,8.63,0,0,0,8.62,8.62H156a8.63,8.63,0,0,0,8.61-8.62V150.55h16.73a8.63,8.63,0,0,0,8.62-8.61V131.29A8.63,8.63,0,0,0,181.38,122.67Zm3.55,19.27a3.55,3.55,0,0,1-3.55,3.54H162.12a2.54,2.54,0,0,0-2.53,2.54V168.8a3.56,3.56,0,0,1-3.55,3.55H145.39a3.56,3.56,0,0,1-3.55-3.55V148a2.54,2.54,0,0,0-2.53-2.54H120.05a3.55,3.55,0,0,1-3.55-3.54V131.29a3.55,3.55,0,0,1,3.55-3.55h19.26a2.53,2.53,0,0,0,2.53-2.53V107.47a3.56,3.56,0,0,1,3.55-3.55H156a3.56,3.56,0,0,1,3.55,3.55v17.74a2.53,2.53,0,0,0,2.53,2.53h19.26a3.55,3.55,0,0,1,3.55,3.55Z"/></g></g></svg>