<svg xmlns="http://www.w3.org/2000/svg" viewBox="0 0 250 250"><defs><style>.cls-1{fill:#c9eef2;}.cls-2{fill:#59ccd9;}</style></defs><g id="Capa_2" data-name="Capa 2"><g id="Capa_2-2" data-name="Capa 2"><circle class="cls-1" cx="125" cy="125" r="125"/><path class="cls-2" d="M105.66,134.06,143,145.51a2.51,2.51,0,0,1,1.67,3.36,3.25,3.25,0,0,1-3.83,2.21l-20.4-5.51a3.91,3.91,0,0,0-2,7.54L139,158.68c.12,0,.25.06.37.09a11.85,11.85,0,0,0,1.89.14c3.76,0,9.15-1.62,10.89-8a10.32,10.32,0,0,0-6.72-12.82l-.09,0L108,126.59a15.09,15.09,0,0,0-11.46,1.12L62.06,146.17a3.91,3.91,0,1,0,3.69,6.89l34.43-18.47A7.21,7.21,0,0,1,105.66,134.06Z"/><path class="cls-2" d="M187.94,137.13l-.13-.18c-4.25-5.67-11.33-3.92-14.48-2.2l-.28.17L154.75,147a3.91,3.91,0,1,0,4.3,6.52l18.11-11.93c.59-.27,3.27-1.43,4.39.06l.07.1a3,3,0,0,1,.51,2.38,3.14,3.14,0,0,1-1.49,2.09l-43.21,25.73a5.06,5.06,0,0,1-3.93.53l-37-10.14a3.89,3.89,0,0,0-2.82.29l-19.53,10a3.91,3.91,0,0,0,3.58,7l18.17-9.35L131.44,180a13,13,0,0,0,10-1.36l43.21-25.73a11,11,0,0,0,5.14-7.23A10.85,10.85,0,0,0,187.94,137.13Z"/><path class="cls-2" d="M150.12,114.16a3.9,3.9,0,0,0,2.77,1.15h.17a3.9,3.9,0,0,0,2.82-1.39L187.68,76a3.9,3.9,0,0,0-6-5l-29.06,34.66L142.26,95.25a3.9,3.9,0,1,0-5.52,5.52Z"/></g></g></svg>