<svg xmlns="http://www.w3.org/2000/svg" viewBox="0 0 250 250"><defs><style>.cls-1{fill:#c9eef2;}.cls-2{fill:#59ccd9;}</style></defs><g id="Capa_2" data-name="Capa 2"><g id="Capa_2-2" data-name="Capa 2"><circle class="cls-1" cx="125" cy="125" r="125"/><path class="cls-2" d="M185.55,88c-7.8-14.13-23.17-20.56-34.16-20.56a39.07,39.07,0,0,0-22.16,6.86c-7-6.28-16.29-9.48-27.54-9.48a41.69,41.69,0,0,0-28.63,72,3,3,0,0,0,.77.51,10.64,10.64,0,0,0-.8,4.05,10.52,10.52,0,0,0,3.08,7.46l.36.36A10.56,10.56,0,0,0,82,152.09,10.56,10.56,0,0,0,84.52,163l.36.36a10.51,10.51,0,0,0,7.46,3.08,10.69,10.69,0,0,0,2.81-.38,10.47,10.47,0,0,0,3,5.93l.36.35a10.53,10.53,0,0,0,9.39,2.91,10.77,10.77,0,0,0,10.76,10,10.82,10.82,0,0,0,7.64-3.16l.5-.51h0a12.58,12.58,0,0,0,6.17,1.63,11.36,11.36,0,0,0,8.08-3.25,11.22,11.22,0,0,0,3-5.68,11.64,11.64,0,0,0,2.21.3l.55,0a11.11,11.11,0,0,0,11.21-10,12.4,12.4,0,0,0,3.76.76h.55a11.18,11.18,0,0,0,8-3.26,11.72,11.72,0,0,0,2.25-13A11.09,11.09,0,0,0,179,146a11.78,11.78,0,0,0,2.11-13.27C193.86,112.25,190.58,97.11,185.55,88ZM80.18,144.75a4.82,4.82,0,0,1,0-6.79L90.84,127.3a4.83,4.83,0,0,1,6.8,0l.35.36a4.79,4.79,0,0,1,0,6.79L87.33,145.11a4.82,4.82,0,0,1-6.79,0ZM89,159.27l-.36-.36a4.82,4.82,0,0,1,0-6.79l19.62-19.62a4.84,4.84,0,0,1,6.79,0l.36.36a4.81,4.81,0,0,1,0,6.79h0L95.74,159.27A4.81,4.81,0,0,1,89,159.27Zm13.58,9-.35-.36a4.82,4.82,0,0,1,0-6.79l13-13a4.82,4.82,0,0,1,6.79,0l.36.36a4.82,4.82,0,0,1,0,6.79l-13,13A4.82,4.82,0,0,1,102.53,168.26ZM115,178a5.06,5.06,0,0,1,0-7.15l9.71-9.71a5.06,5.06,0,0,1,7.15,7.15h0L122.19,178A5.06,5.06,0,0,1,115,178Zm23.48-5.61a5.43,5.43,0,0,1-1.56,3.49,5.89,5.89,0,0,1-5.83,1.31l4.84-4.83h0a11.16,11.16,0,0,0,1.47-1.85l.24.24a12.25,12.25,0,0,0,1,.9A3.06,3.06,0,0,0,138.52,172.35Zm36.39-30.43a5.59,5.59,0,0,1-4.26,1.57,7.16,7.16,0,0,1-4.75-2.15l-18-18a2.87,2.87,0,0,0-4.06,4.06l18,18a13.44,13.44,0,0,0,3.16,2.33,2.86,2.86,0,0,0,.72,1.26c2.65,2.64,2.9,6.69.58,9a5.63,5.63,0,0,1-4.27,1.57,7.2,7.2,0,0,1-4.75-2.15l-18-18a2.87,2.87,0,0,0-4.07,4.06l17,17a2.93,2.93,0,0,0,0,1.25,5.81,5.81,0,0,1-1.4,5.51,5.59,5.59,0,0,1-4.26,1.57,7.21,7.21,0,0,1-4.76-2.15l-2.48-2.49c0-.05-.11-.08-.17-.13a10.74,10.74,0,0,0-9.85-10.1,10.52,10.52,0,0,0-2.88-9.48l-.36-.36a10.49,10.49,0,0,0-4.8-2.74,10.54,10.54,0,0,0-1.78-12.54l-.35-.36a10.57,10.57,0,0,0-14.39-.49,10.54,10.54,0,0,0-2.62-4.36l-.36-.36a10.57,10.57,0,0,0-14.92,0l-9.59,9.6c-.06-.07-.11-.14-.18-.21A35.58,35.58,0,0,1,65.75,106.5a36,36,0,0,1,35.94-35.94c9.68,0,17.33,2.5,23.28,7.63L102.9,102.33a2.87,2.87,0,0,0-.18,3.66,13.5,13.5,0,0,0,8.52,5c3.79.53,7.64-.68,11.46-3.6,9.49-7.26,10-7,16.52-3.74a9.51,9.51,0,0,0,4.34,1c8.47,0,16.17-10.91,17.15-12.35A2.88,2.88,0,0,0,156,89.07c-2.73,4-9.78,11.59-14.16,9.4-9.43-4.72-12.27-3.58-22.58,4.31-4.78,3.65-8.23,2.66-10.17,1.36l22-24.09,0,0a33.4,33.4,0,0,1,20.3-6.85c9.65,0,22.75,6,29.12,17.59,4.14,7.49,6.8,19.9-3.16,37l-22.67-22.67c-.25-.25-.52-.5-.8-.74a2.88,2.88,0,0,0-3.72,4.39,6,6,0,0,1,.46.42l23.72,23.72C177,135.54,177.24,139.59,174.91,141.92Z"/></g></g></svg>