<svg width="100%" height="100%" viewBox="0 0 88 128" fill="none" xmlns="http://www.w3.org/2000/svg">
<g clip-path="url(#clip0_4165_3952)">
<path fill-rule="evenodd" clip-rule="evenodd" d="M24.1758 2.07567C24.1758 0.929309 25.15 0 26.3516 0H61.41C62.6116 0 63.5858 0.929309 63.5858 2.07567C63.5858 3.22204 62.6116 4.15135 61.41 4.15135H53.9121V18.4504H58.989C60.3408 18.4504 61.4767 19.3324 61.7987 20.5261H72.5275V20.5492C72.8074 20.5339 73.0895 20.5261 73.3737 20.5261C81.471 20.5261 88 26.8437 88 34.5946C88 42.3455 81.471 48.6631 73.3737 48.6631C73.0895 48.6631 72.8074 48.6553 72.5275 48.6399V48.6631H61.8901V56.2739C61.8901 56.4172 61.8787 56.5579 61.8567 56.6953C61.8786 56.7821 61.8901 56.8726 61.8901 56.9658V75.6466C61.8901 76.2837 61.3489 76.8 60.6813 76.8H54.6374V94.0972C54.6374 94.7343 54.0962 95.2506 53.4286 95.2506H46.1758V125.924C46.1758 127.07 45.2017 128 44 128C42.7983 128 41.8242 127.07 41.8242 125.924V95.2506H34.5714C33.9038 95.2506 33.3626 94.7343 33.3626 94.0972V76.8H27.3187C26.6511 76.8 26.1099 76.2837 26.1099 75.6466V56.9658C26.1099 56.8726 26.1214 56.7821 26.1433 56.6953C26.1213 56.5579 26.1099 56.4172 26.1099 56.2739V48.6631H15.2308V48.6513C15.0303 48.6591 14.8288 48.6631 14.6263 48.6631C6.52868 48.6631 0 42.3455 0 34.5946C0 26.8437 6.52868 20.5261 14.6263 20.5261C14.7476 20.5261 14.8685 20.5276 14.989 20.5303V20.5261H26.2013C26.5233 19.3324 27.6592 18.4504 29.011 18.4504H34.3297V4.15135H26.3516C25.15 4.15135 24.1758 3.22204 24.1758 2.07567ZM38.6813 17.2973V4.38198H49.5604V17.2973H38.6813ZM30.4615 22.6018V54.8901H41.8242V39.4379C41.8242 38.2915 42.7983 37.3621 44 37.3621C45.2017 37.3621 46.1758 38.2915 46.1758 39.4379V54.8901H57.5385V22.6018H30.4615ZM30.4615 72.6489V59.964H57.5385V72.6489H30.4615ZM37.7143 79.3371V91.0988H50.2857V79.3371H37.7143ZM4.35165 34.5946C4.35165 29.0985 8.97156 24.6775 14.6263 24.6775C20.2812 24.6775 24.9011 29.0985 24.9011 34.5946C24.9011 40.0906 20.2812 44.5117 14.6263 44.5117C8.97156 44.5117 4.35165 40.0906 4.35165 34.5946ZM73.3737 24.6775C67.7188 24.6775 63.0989 29.0985 63.0989 34.5946C63.0989 40.0906 67.7188 44.5117 73.3737 44.5117C79.0284 44.5117 83.6481 40.0906 83.6481 34.5946C83.6481 29.0985 79.0284 24.6775 73.3737 24.6775Z" fill="#C9EEF2"/>
</g>
<defs>
<clipPath id="clip0_4165_3952">
<rect width="88" height="128" fill="white"/>
</clipPath>
</defs>
</svg>
