<svg width="100%" height="100%" viewBox="0 0 220 220" fill="none" xmlns="http://www.w3.org/2000/svg">
<circle cx="110" cy="110" r="110" fill="#59CCD9"/>
<path fill-rule="evenodd" clip-rule="evenodd" d="M135.346 79.0808C133.693 79.0692 132.206 79.8695 130.568 81.6254C129.025 83.2803 127.629 85.4745 126.037 87.9757L126.037 87.9757C125.888 88.2094 125.738 88.4457 125.585 88.6845C123.877 91.3607 121.934 94.3217 119.521 96.593C117.076 98.8948 114.022 100.609 110.113 100.653C110.089 100.654 110.064 100.654 110.039 100.654C110.013 100.654 109.988 100.654 109.962 100.654C109.961 100.654 109.961 100.654 109.96 100.654C109.947 100.654 109.934 100.654 109.922 100.653C105.995 100.62 102.931 98.902 100.478 96.5932C98.0651 94.3219 96.1216 91.3609 94.4138 88.6847C94.2616 88.4462 94.1114 88.2101 93.9628 87.9768L93.9623 87.9759C92.3704 85.4747 90.9739 83.2806 89.4308 81.6257C87.7935 79.8697 86.3056 79.0695 84.6535 79.081C79.6549 79.1161 76.2159 80.9408 73.8203 84.3152C71.312 87.8483 69.7758 93.3282 69.3497 100.936L69.3107 101.632L68.9173 102.207C64.2911 108.973 63.4364 112.877 63.8702 115.924C64.096 117.511 64.696 119.059 65.618 120.857C66.1741 121.941 66.7633 122.968 67.4171 124.107L67.4172 124.107C67.9181 124.98 68.4568 125.918 69.0474 126.999L69.3535 127.56V128.198C69.3535 138.553 71.81 143.851 74.8159 146.44C77.7941 149.005 81.9814 149.478 86.8653 148.544C91.7191 147.616 96.7685 145.379 100.877 143.217C102.914 142.145 104.686 141.111 106.051 140.296C106.371 140.105 106.686 139.916 106.976 139.741C107.282 139.558 107.561 139.39 107.789 139.254C107.997 139.131 108.22 138.999 108.434 138.879C108.88 138.536 109.433 138.351 110 138.36C110.566 138.351 111.119 138.536 111.565 138.879C111.779 138.999 112.002 139.131 112.21 139.254C112.438 139.39 112.716 139.557 113.022 139.741L113.022 139.741L113.026 139.743C113.316 139.918 113.63 140.106 113.948 140.296C115.313 141.111 117.085 142.145 119.122 143.217C123.231 145.379 128.28 147.616 133.134 148.544C138.018 149.478 142.205 149.005 145.183 146.44C148.189 143.851 150.646 138.553 150.646 128.198V127.559L150.952 126.999C151.542 125.918 152.081 124.979 152.582 124.107C153.236 122.967 153.825 121.941 154.381 120.856C155.303 119.059 155.903 117.511 156.129 115.924C156.563 112.877 155.708 108.973 151.082 102.207L150.688 101.632L150.649 100.936C150.223 93.328 148.687 87.848 146.179 84.315C143.783 80.9405 140.344 79.1158 135.346 79.0808ZM110 143.758C110.135 143.839 110.278 143.925 110.43 144.017C110.711 144.185 111.023 144.374 111.385 144.589C112.786 145.426 114.644 146.511 116.794 147.642C121.06 149.887 126.622 152.389 132.194 153.455C137.736 154.515 143.79 154.238 148.446 150.229C152.982 146.322 155.542 139.425 155.642 128.847C156.023 128.162 156.421 127.468 156.815 126.778C157.539 125.513 158.251 124.266 158.83 123.138C159.868 121.114 160.741 119 161.079 116.628C161.753 111.89 160.202 106.839 155.599 99.9616C155.097 92.2802 153.464 85.9391 150.256 81.4206C146.839 76.608 141.824 74.1261 135.381 74.0809C131.77 74.0557 129.039 75.9336 126.911 78.2156C125.033 80.2296 123.383 82.8278 121.855 85.2336L121.854 85.2337L121.854 85.2342C121.692 85.4902 121.53 85.7441 121.37 85.9948C119.631 88.721 117.991 91.167 116.094 92.9522C114.266 94.6728 112.337 95.6492 109.976 95.6537C107.637 95.6364 105.721 94.6616 103.905 92.9524C102.009 91.1672 100.368 88.7212 98.6287 85.995C98.4687 85.7441 98.3073 85.4902 98.1446 85.234C96.6162 82.8281 94.9657 80.2299 93.0877 78.2158C90.9598 75.9338 88.2288 74.0559 84.6185 74.0812C78.1751 74.1263 73.1598 76.6083 69.7432 81.4208C66.5353 85.9393 64.9018 92.2804 64.3996 99.9618C59.7966 106.84 58.2457 111.89 58.9201 116.629C59.2576 119 60.1308 121.114 61.1691 123.139C61.7477 124.267 62.4605 125.513 63.1844 126.779C63.5784 127.468 63.9758 128.163 64.3566 128.847C64.4567 139.425 67.0169 146.322 71.5532 150.229C76.2092 154.238 82.2627 154.515 87.8047 153.455C93.3769 152.389 98.9387 149.887 103.205 147.642C105.355 146.511 107.213 145.426 108.614 144.589C108.976 144.374 109.288 144.185 109.569 144.017C109.721 143.925 109.864 143.839 110 143.758Z" fill="#F8FAFC"/>
<path fill-rule="evenodd" clip-rule="evenodd" d="M85.6224 51.8214C85.6232 51.8396 85.6243 51.8595 85.6259 51.8813C85.6519 52.245 85.7788 52.8232 86.0819 53.6805C86.6497 55.2864 87.6178 57.2944 88.8282 59.8047L89.1052 60.3795C91.491 65.3325 94.5346 71.7786 95.9454 78.9237H124.911C126.338 71.8542 129.349 65.4784 131.714 60.5693L131.991 59.9944C133.201 57.4841 134.169 55.4761 134.737 53.8702C135.04 53.013 135.167 52.4347 135.193 52.071C135.195 52.0493 135.196 52.0293 135.196 52.0111C135.118 51.9634 134.998 51.8989 134.821 51.8252C134.368 51.6367 133.724 51.4624 132.89 51.3284C131.224 51.061 129.113 51.0023 126.957 51.1078C124.811 51.2128 122.725 51.4752 121.136 51.8045C120.335 51.9703 119.719 52.1414 119.305 52.2944L119.296 52.2978C119.279 52.3972 119.26 52.5273 119.244 52.6939C119.183 53.3289 119.184 54.1181 119.187 55.1706L119.187 55.2817C119.192 57.2175 119.2 59.8956 118.415 62.3612C117.692 64.6294 116.062 66.1843 114.777 67.1371C113.564 68.0364 112.393 68.589 111.991 68.7783L111.96 68.7931C111.357 69.1906 110.595 69.3137 109.867 69.0615C109.034 68.7727 107.576 68.1096 106.157 67.0636C104.766 66.0389 103.126 64.4357 102.404 62.1715C101.619 59.7059 101.626 57.0278 101.632 55.092L101.632 54.9809C101.635 53.9284 101.636 53.1392 101.575 52.5042C101.558 52.3376 101.54 52.2075 101.523 52.1081L101.513 52.1047C101.1 51.9516 100.484 51.7806 99.6831 51.6148C98.094 51.2855 96.0081 51.0231 93.862 50.9181C91.7058 50.8126 89.5948 50.8713 87.9293 51.1387C87.0948 51.2727 86.4507 51.447 85.9981 51.6354C85.821 51.7092 85.7007 51.7736 85.6224 51.8214ZM129.472 81.2787C130.612 74.4635 133.553 68.1524 136.099 62.8661C136.204 62.6482 136.309 62.4313 136.413 62.2153L136.421 62.199C137.577 59.8032 138.671 57.5358 139.34 55.646C139.707 54.6077 140.007 53.5191 140.082 52.4699C140.158 51.4104 140.019 50.1321 139.215 49.0198C138.513 48.0476 137.513 47.4649 136.627 47.0961C135.708 46.7135 134.668 46.4613 133.618 46.2926C131.512 45.9547 129.047 45.9033 126.705 46.0179C124.354 46.1329 122.021 46.4209 120.157 46.807C119.232 46.9989 118.363 47.2269 117.643 47.4935C117.284 47.6263 116.911 47.7875 116.566 47.9866C116.26 48.1628 115.777 48.4805 115.396 49.0069C114.657 50.028 114.452 51.2712 114.366 52.164C114.278 53.0781 114.281 54.1123 114.284 55.0479L114.284 55.163C114.29 57.2552 114.269 59.144 113.76 60.7404C113.509 61.5268 112.843 62.2985 111.918 62.9846C111.422 63.3523 110.937 63.6341 110.545 63.8404C110.088 63.6122 109.541 63.298 109.004 62.9025C107.995 62.1594 107.311 61.3412 107.059 60.5507C106.55 58.9543 106.529 57.0655 106.535 54.9733L106.535 54.8581C106.538 53.9225 106.541 52.8884 106.453 51.9743C106.367 51.0815 106.162 49.8383 105.423 48.8172C105.042 48.2908 104.558 47.9731 104.253 47.7969C103.908 47.5978 103.535 47.4366 103.176 47.3038C102.456 47.0372 101.587 46.8092 100.661 46.6173C98.7974 46.2311 96.4651 45.9432 94.1136 45.8281C91.7722 45.7136 89.3064 45.7649 87.2013 46.1029C86.1505 46.2716 85.1109 46.5238 84.1921 46.9064C83.3062 47.2751 82.3062 47.8579 81.6039 48.8301C80.8003 49.9424 80.6611 51.2206 80.7368 52.2802C80.8117 53.3294 81.1123 54.4179 81.4794 55.4563C82.1476 57.3461 83.2417 59.6134 84.3978 62.0093L84.3978 62.0093L84.3991 62.012C84.5054 62.2324 84.6123 62.4539 84.7195 62.6764C87.3407 68.1183 90.3803 74.6462 91.4433 81.6922C91.645 83.0287 92.8133 83.9537 94.0926 83.8228C94.3163 83.8885 94.5531 83.9237 94.798 83.9237H126.281C126.376 83.9523 126.474 83.9752 126.574 83.992C127.549 84.1551 128.48 83.6975 128.994 82.8994C129.297 82.4858 129.476 81.9756 129.476 81.4237C129.476 81.375 129.474 81.3267 129.472 81.2787ZM101.859 52.2539C101.88 52.2664 101.876 52.2662 101.854 52.2514L101.859 52.2539ZM85.6252 51.6653C85.6258 51.6605 85.6263 51.6582 85.6264 51.6583C85.6265 51.6584 85.6261 51.6608 85.6252 51.6653ZM118.96 52.4436C118.939 52.4561 118.943 52.4559 118.965 52.4411L118.96 52.4436ZM135.194 51.855C135.193 51.8502 135.193 51.848 135.193 51.848C135.192 51.8481 135.193 51.8505 135.194 51.855Z" fill="#F8FAFC"/>
<rect x="95.6055" y="156.128" width="29.718" height="14.3719" rx="7.18596" stroke="#F8FAFC" stroke-width="5"/>
<path d="M94.7969 148.785C95.4761 155.435 100.724 154.949 110.886 154.949C121.047 154.949 125.92 155.288 126.975 148.785" stroke="#F8FAFC" stroke-width="5"/>
<path d="M79.5547 106.079C85.5025 110.673 88.8397 110.876 94.7967 106.079" stroke="#F8FAFC" stroke-width="5" stroke-linecap="round"/>
<path d="M126.977 130.734C132.924 135.328 136.262 135.531 142.219 130.734" stroke="#F8FAFC" stroke-width="5" stroke-linecap="round"/>
<path d="M79.5547 129.853C85.5025 134.447 88.8397 134.651 94.7967 129.853" stroke="#F8FAFC" stroke-width="5" stroke-linecap="round"/>
<path d="M104.113 116.645C110.061 121.239 113.398 121.443 119.355 116.645" stroke="#F8FAFC" stroke-width="5" stroke-linecap="round"/>
<path d="M127.82 106.079C133.768 110.673 137.105 110.876 143.062 106.079" stroke="#F8FAFC" stroke-width="5" stroke-linecap="round"/>
</svg>
