<svg width="100%" height="100%" viewBox="0 0 165 165" fill="none" xmlns="http://www.w3.org/2000/svg">
<path d="M165 82.5C165 128.063 128.063 165 82.5 165C36.9365 165 0 128.063 0 82.5C0 36.9365 36.9365 0 82.5 0C128.063 0 165 36.9365 165 82.5Z" fill="#59CCD9"/>
<path d="M59.9551 54.7523C59.9551 54.2928 59.9026 53.7874 59.9551 53.3279C60.1127 52.363 60.8484 51.6737 61.7943 51.2142C63.4232 50.3872 65.2098 50.1115 67.0489 50.0196C71.3578 49.8817 75.5616 50.4791 79.6603 51.5818C81.8673 52.1792 84.0217 52.9603 86.0711 53.8792C88.3306 54.8901 90.6952 55.028 93.1124 54.2928C95.8448 53.4657 98.6298 53.0981 101.52 53.236C102.728 53.2819 103.885 53.5117 104.935 53.9711C105.776 54.3387 106.459 54.8901 106.879 55.6253C107.037 55.901 107.195 55.9929 107.563 55.9469C112.187 55.5793 116.759 55.7172 121.33 56.6362C124.325 57.2335 127.216 58.0146 129.79 59.485C130.368 59.8066 130.946 60.2202 131.419 60.6336C133.416 62.3338 133.521 64.4933 131.734 66.3313C131.104 66.9746 130.368 67.5719 129.58 68.0313C125.219 70.6964 121.855 74.0965 119.176 78.14C115.498 83.7458 110.243 87.9271 103.201 90.2245C101.73 90.684 100.206 90.9137 98.6298 91.2813C98.6298 91.3732 98.6824 91.511 98.7874 91.6948C99.3655 93.1652 99.1027 94.4977 97.9993 95.6923C97.5789 96.1978 97.211 96.7951 97.0534 97.3925C96.2127 100.149 91.9564 101.344 89.5391 99.4601C88.751 98.8628 88.3306 98.1276 88.3831 97.2087C88.4882 95.4626 87.4898 94.0842 86.4914 92.6598C86.071 93.1652 85.7032 93.6247 85.3354 94.0382C83.1284 96.5654 80.1857 98.3114 76.7702 99.3223C73.6699 100.241 70.6222 101.16 67.4694 101.941C64.369 102.722 61.6891 104.055 59.272 105.893C55.5411 108.696 51.4424 111.085 47.3438 113.428C45.9775 114.21 44.5062 114.761 42.8773 114.945C39.8821 115.266 37.6751 114.164 35.941 112.142C34.9426 110.947 34.4172 109.569 34.0493 108.098C32.7357 102.722 32 97.3006 32 91.7868C32 82.5511 34.6799 74.0047 40.8805 66.4232C44.5588 61.9202 49.4457 58.6579 55.1733 56.4064C56.7497 55.8091 58.3787 55.3037 59.9551 54.7523ZM85.4405 79.3347C85.2303 76.9914 85.0726 74.0965 84.7573 71.2478C84.4947 68.7206 83.864 66.2394 82.5504 63.9419C79.8179 59.0714 75.4565 56.4983 69.1508 56.5443C65.9455 56.5902 62.7926 57.1875 59.7974 58.1065C52.651 60.2661 46.7658 63.9879 42.6671 69.5937C37.8327 76.0723 35.5732 83.1944 35.4681 90.8678C35.4156 96.4275 36.0461 101.941 37.3598 107.409C37.6751 108.696 38.0955 109.936 39.1464 110.901C40.1974 111.866 41.4585 112.28 42.9824 111.866C43.7706 111.636 44.5588 111.361 45.2419 110.993C49.1303 108.834 52.9138 106.582 56.487 104.009C58.5363 102.539 60.5331 101.022 63.0028 100.195C64.9996 99.5061 67.1015 98.9547 69.1508 98.3573C71.6731 97.6222 74.3004 97.0248 76.7702 96.1059C81.4469 94.3598 84.4421 91.3273 84.9675 86.8243C85.2828 84.481 85.2828 82.1835 85.4405 79.3347ZM93.6378 75.0615C93.5328 77.2211 93.4802 79.3347 93.4276 81.4943C93.3751 82.6889 93.27 83.8836 93.6904 85.0323C94.5311 87.3757 96.4228 88.4785 99.1553 88.0649C100.154 87.9271 101.205 87.6973 102.151 87.3757C108.404 85.2621 112.975 81.4943 116.286 76.4859C118.493 73.0857 121.225 70.0531 124.641 67.5719C125.797 66.7448 127.058 66.0096 128.214 65.1826C130 63.8501 130 63.2527 128.004 62.15C126.795 61.5067 125.481 60.9553 124.168 60.5418C119.964 59.2092 115.55 58.7498 111.084 58.8417C107.3 58.9336 103.569 59.439 99.891 60.2202C97.0008 60.8175 94.9515 62.2419 94.2684 64.9069C94.1108 65.5502 94.0057 66.2394 93.9531 66.9286C93.7954 69.6396 93.7429 72.3506 93.6378 75.0615ZM63.5283 53.8792C63.5283 53.9252 63.5809 53.9712 63.5809 54.0171C63.7385 54.0171 63.8961 53.9711 64.0538 53.9711C66.8913 53.5117 69.7814 53.3279 72.6715 53.7414C76.7177 54.2928 80.1332 55.901 82.7606 58.6119C85.6506 61.5527 87.2796 64.9988 87.9627 68.8125C88.751 73.1317 88.9612 77.4508 88.8035 81.8159C88.6984 84.2512 88.6984 86.6865 88.1203 89.0758C88.0678 89.2137 88.1729 89.4434 88.278 89.5812C88.8035 90.3623 89.4341 91.1894 89.9595 91.9706C91.0105 93.5328 91.8512 95.1869 91.8512 97.0708C91.8512 97.2087 92.0614 97.4384 92.219 97.4844C92.7971 97.6222 93.4802 97.2087 93.5853 96.7032C93.9006 95.6464 94.4261 94.6815 95.2142 93.8544C95.5295 93.5328 95.6346 93.1652 95.4244 92.7976C95.1617 92.3381 94.899 91.9246 94.5837 91.511C93.848 90.684 93.0598 89.8569 92.2716 89.0758C90.6426 87.4216 89.8019 85.4918 89.8544 83.3322C89.907 80.0699 90.0646 76.8535 90.1697 73.5912C90.2748 70.9262 90.2748 68.2152 90.5376 65.5502C90.8003 63.023 92.0088 60.8175 94.3735 59.2552C96.3177 57.9227 98.5772 57.3254 100.994 56.9578C101.52 56.8659 102.045 56.774 102.728 56.6821C102.518 56.5902 102.466 56.5443 102.361 56.5443C101.993 56.4983 101.625 56.4524 101.257 56.4064C98.84 56.2686 96.5279 56.5902 94.2684 57.2794C90.8003 58.3363 87.4373 58.0606 84.1268 56.5902C83.3911 56.2226 82.6029 55.901 81.8147 55.6253C77.9788 54.2468 74.0378 53.4198 69.9391 53.19C67.9948 53.0981 66.1031 53.0981 64.2114 53.6955C64.0012 53.6495 63.7385 53.7874 63.5283 53.8792Z" fill="#F8FAFC"/>
</svg>
