<svg width="100%" height="100%" viewBox="0 0 119 179" fill="none" xmlns="http://www.w3.org/2000/svg">
<path fill-rule="evenodd" clip-rule="evenodd" d="M32.6923 2.9027C32.6923 1.29958 34.0096 0 35.6346 0L83.043 0C84.668 0 85.9853 1.29958 85.9853 2.9027C85.9853 4.50582 84.668 5.80541 83.043 5.80541L72.9038 5.80541V25.8018H79.7692C81.5972 25.8018 83.1332 27.0352 83.5687 28.7045H98.0769V28.7368C98.4555 28.7154 98.837 28.7045 99.2212 28.7045C110.171 28.7045 119 37.5393 119 48.3784C119 59.2175 110.171 68.0523 99.2212 68.0523C98.837 68.0523 98.4555 68.0414 98.0769 68.0199V68.0523H83.6923V78.6955C83.6923 78.8959 83.6769 79.0927 83.6471 79.2849C83.6767 79.4062 83.6923 79.5328 83.6923 79.6631V105.787C83.6923 106.678 82.9605 107.4 82.0577 107.4H73.8846V131.589C73.8846 132.48 73.1528 133.202 72.25 133.202H62.4423V176.097C62.4423 177.7 61.125 179 59.5 179C57.875 179 56.5577 177.7 56.5577 176.097V133.202H46.75C45.8472 133.202 45.1154 132.48 45.1154 131.589V107.4H36.9423C36.0395 107.4 35.3077 106.678 35.3077 105.787V79.6631C35.3077 79.5328 35.3233 79.4062 35.3529 79.2849C35.3231 79.0927 35.3077 78.8959 35.3077 78.6955V68.0523H20.5962V68.0358C20.3251 68.0467 20.0526 68.0523 19.7788 68.0523C8.82855 68.0523 0 59.2175 0 48.3784C0 37.5393 8.82855 28.7045 19.7788 28.7045C19.9428 28.7045 20.1063 28.7065 20.2692 28.7104V28.7045H35.4313C35.8668 27.0352 37.4028 25.8018 39.2308 25.8018H46.4231V5.80541H35.6346C34.0096 5.80541 32.6923 4.50582 32.6923 2.9027ZM52.3077 24.1892V6.12793H67.0192V24.1892H52.3077ZM41.1923 31.6072V76.7604H56.5577V55.1514C56.5577 53.5482 57.875 52.2486 59.5 52.2486C61.125 52.2486 62.4423 53.5482 62.4423 55.1514V76.7604H77.8077V31.6072H41.1923ZM41.1923 101.595V83.8559H77.8077V101.595H41.1923ZM51 110.948V127.396H68V110.948H51ZM5.88462 48.3784C5.88462 40.6925 12.132 34.5099 19.7788 34.5099C27.4257 34.5099 33.6731 40.6925 33.6731 48.3784C33.6731 56.0642 27.4257 62.2468 19.7788 62.2468C12.132 62.2468 5.88462 56.0642 5.88462 48.3784ZM99.2212 34.5099C91.5743 34.5099 85.3269 40.6925 85.3269 48.3784C85.3269 56.0642 91.5743 62.2468 99.2212 62.2468C106.868 62.2468 113.115 56.0642 113.115 48.3784C113.115 40.6925 106.868 34.5099 99.2212 34.5099Z" fill="#59CCD9"/>
</svg>
