<svg width="100%" height="100%" viewBox="0 0 275 275" fill="none" xmlns="http://www.w3.org/2000/svg">
<circle cx="137.5" cy="137.5" r="137.5" fill="#59CCD9"/>
<path d="M150.463 97.9433C145.383 105.176 137.324 107.051 132.677 103.905C128.03 100.76 126.949 92.699 132.029 85.4661C137.109 78.2333 145.168 76.3585 149.815 79.504C154.463 82.6494 155.543 90.7105 150.463 97.9433Z" stroke="#F8FAFC" stroke-width="5"/>
<path d="M129.413 132.687C135.674 138.989 135.978 147.113 131.95 150.97C127.922 154.827 119.656 154.326 113.395 148.024C107.134 141.722 106.83 133.597 110.858 129.741C114.886 125.884 123.152 126.385 129.413 132.687Z" stroke="#F8FAFC" stroke-width="5"/>
<path d="M96.5461 95.4718C102.807 101.774 103.111 109.898 99.0827 113.755C95.0547 117.612 86.7889 117.111 80.5276 110.809C74.2664 104.507 73.9631 96.3823 77.991 92.5257C82.019 88.669 90.2848 89.1697 96.5461 95.4718Z" stroke="#F8FAFC" stroke-width="5"/>
<path d="M160.542 181.978C160.542 190.729 155.011 196.783 149.331 196.783C143.651 196.783 138.121 190.729 138.121 181.978C138.121 173.228 143.651 167.173 149.331 167.173C155.011 167.173 160.542 173.228 160.542 181.978Z" stroke="#F8FAFC" stroke-width="5"/>
<path d="M183.104 145.371C178.024 152.604 169.965 154.479 165.318 151.333C160.671 148.188 159.59 140.127 164.67 132.894C169.75 125.661 177.809 123.786 182.456 126.932C187.103 130.077 188.184 138.138 183.104 145.371Z" stroke="#F8FAFC" stroke-width="5"/>
<path d="M98.5938 111.941C102.437 119.53 104.934 123.26 110.345 128.605" stroke="#F8FAFC" stroke-width="4"/>
<path d="M147.993 217.432C148.275 218.5 149.37 219.14 150.438 218.861C151.506 218.582 152.143 217.49 151.861 216.421L147.993 217.432ZM146.344 196.577C145.754 205.19 145.997 209.875 147.993 217.432L151.861 216.421C150.004 209.389 149.767 205.16 150.336 196.861L146.344 196.577Z" fill="#F8FAFC"/>
<path d="M165.746 149.801C160.136 156.242 157.616 159.957 154.722 166.937" stroke="#F8FAFC" stroke-width="4"/>
<path d="M134.402 102.706C127.174 111.662 123.794 116.715 119.469 125.919" stroke="#F8FAFC" stroke-width="4"/>
<path d="M131.047 150.573C140.606 158.251 143.225 162.088 145.41 168.519" stroke="#F8FAFC" stroke-width="4"/>
<path d="M69.9884 66.7404C69.7405 65.6683 68.6612 64.9902 67.5777 65.2257C66.4942 65.4612 65.8168 66.5212 66.0647 67.5933L69.9884 66.7404ZM82.5296 90.1514C78.4481 85.9545 75.9199 82.6032 74.1151 79.1067C72.3047 75.5993 71.1681 71.8433 69.9884 66.7404L66.0647 67.5933C67.2687 72.8011 68.4935 76.9376 70.5323 80.8874C72.5767 84.8481 75.3853 88.5187 79.6382 92.8917L82.5296 90.1514Z" fill="#F8FAFC"/>
<path d="M209.364 119.959C210.456 119.769 211.178 118.738 210.976 117.656C210.774 116.574 209.725 115.851 208.633 116.041L209.364 119.959ZM184.912 131.15C189.38 127.347 192.917 125.024 196.569 123.418C200.232 121.808 204.114 120.872 209.364 119.959L208.633 116.041C203.278 116.972 199.017 117.974 194.908 119.78C190.788 121.592 186.924 124.166 182.273 128.125L184.912 131.15Z" fill="#F8FAFC"/>
<path d="M72.5117 78.312C78.0871 75.8651 80.635 73.6922 84.2634 68.0574" stroke="#F8FAFC" stroke-width="4" stroke-linecap="round"/>
<path d="M158.656 56.5736C158.904 55.5015 159.983 54.8234 161.067 55.0589C162.15 55.2944 162.828 56.3544 162.58 57.4264L158.656 56.5736ZM146.115 79.9845C150.196 75.7877 152.725 72.4363 154.529 68.9398C156.34 65.4325 157.476 61.6765 158.656 56.5736L162.58 57.4264C161.376 62.6343 160.151 66.7707 158.112 70.7206C156.068 74.6813 153.259 78.3519 149.006 82.7249L146.115 79.9845Z" fill="#F8FAFC"/>
<path d="M163.84 211.279C157.745 210.895 154.585 209.731 149.183 205.692" stroke="#F8FAFC" stroke-width="4" stroke-linecap="round"/>
</svg>
