<svg width="218" height="224" viewBox="0 0 218 224" fill="none" xmlns="http://www.w3.org/2000/svg">
<ellipse cx="109" cy="112" rx="109" ry="112" fill="#59CCD9"/>
<path d="M86.3487 102.245L85.3205 102.983L85.3205 104.274C85.3205 126.401 79.8578 135.651 73.9864 139.116C68.0228 142.636 60.4398 140.929 54.4524 138.134C52.0719 137.023 49.923 134.665 48.1833 131.131C46.4532 127.617 45.2344 123.145 44.6141 118.19C43.3698 108.252 44.5917 96.865 48.3547 88.2672C52.1051 79.6981 59.0785 72.2898 66.5883 67.7359C74.2154 63.1109 81.7311 61.7952 86.7952 64.1596C92.6436 66.8901 98.6815 72.1177 100.286 78.4799C101.794 84.4578 99.6381 92.7032 86.3487 102.245Z" stroke="#F8FAFC" stroke-width="5"/>
<path d="M70.115 99.9308C107.815 109.863 98.4038 112.297 100.682 174" stroke="#F8FAFC" stroke-width="6" stroke-linecap="round"/>
<path d="M97.6133 92.2774C86.5726 104.314 84.0381 104.718 79.8256 92.2774" stroke="#F8FAFC" stroke-width="4" stroke-linecap="round"/>
<path d="M76.1445 115.084C82.8916 101.147 93.4 102.643 97.6125 115.084" stroke="#F8FAFC" stroke-width="5" stroke-linecap="round"/>
<path d="M131.651 102.245L132.68 102.983L132.68 104.274C132.68 126.401 138.142 135.651 144.014 139.116C149.977 142.636 157.56 140.929 163.548 138.134C165.928 137.023 168.077 134.665 169.817 131.131C171.547 127.617 172.766 123.145 173.386 118.19C174.63 108.252 173.408 96.865 169.645 88.2672C165.895 79.6981 158.922 72.2898 151.412 67.7359C143.785 63.1109 136.269 61.7952 131.205 64.1596C125.356 66.8901 119.318 72.1177 117.714 78.4799C116.206 84.4578 118.362 92.7032 131.651 102.245Z" stroke="#F8FAFC" stroke-width="5"/>
<path d="M147.885 99.9308C110.185 109.863 119.596 112.297 117.318 174" stroke="#F8FAFC" stroke-width="6" stroke-linecap="round"/>
<path d="M120.387 92.2774C131.427 104.314 133.962 104.718 138.174 92.2774" stroke="#F8FAFC" stroke-width="4" stroke-linecap="round"/>
<path d="M141.855 115.084C135.108 101.147 124.6 102.643 120.388 115.084" stroke="#F8FAFC" stroke-width="5" stroke-linecap="round"/>
</svg>
