<svg width="30" height="24" viewBox="0 0 30 24" fill="none" xmlns="http://www.w3.org/2000/svg">
<path fill-rule="evenodd" clip-rule="evenodd" d="M0.333188 3.97688C0.332972 3.99003 0.33295 4.00319 0.333122 4.01633V20C0.333122 22.203 2.13008 24 4.33312 24H25.6665C27.8695 24 29.6665 22.203 29.6665 20V4.01649C29.6666 4.00323 29.6666 3.98995 29.6664 3.97668C29.6538 1.78429 27.8617 0 25.6665 0H4.33312C2.13779 0 0.345709 1.78439 0.333188 3.97688ZM3.14189 3.40526C3.3624 2.96923 3.81584 2.66667 4.33312 2.66667H25.6665C26.1837 2.66667 26.6372 2.96923 26.8577 3.40527L14.9998 11.7058L3.14189 3.40526ZM26.9998 6.56088V20C26.9998 20.7303 26.3967 21.3333 25.6665 21.3333H4.33312C3.60284 21.3333 2.99979 20.7303 2.99979 20V6.56087L14.2352 14.4256C14.6943 14.747 15.3053 14.747 15.7644 14.4256L26.9998 6.56088Z" fill="#F8FAFC"/>
</svg>
