<svg viewBox="0 0 365 104" fill="none" xmlns="http://www.w3.org/2000/svg" style="max-height: inherit;">
<path d="M124.841 14.4875C123.732 14.4875 122.674 14.6379 121.717 14.9888C120.76 15.3397 119.903 15.841 119.198 16.5428C118.493 17.2446 117.939 18.0968 117.535 19.0994C117.132 20.102 116.931 21.3051 116.931 22.7087C116.931 24.0622 117.132 25.2653 117.485 26.2177C117.888 27.2203 118.392 28.0224 119.097 28.6741C119.803 29.3257 120.659 29.827 121.616 30.1278C122.624 30.4286 123.682 30.579 124.891 30.579C125.244 30.579 125.546 30.579 125.949 30.5288C126.302 30.4787 126.705 30.4286 127.057 30.3785C127.41 30.3283 127.813 30.2281 128.166 30.1779C128.518 30.0777 128.82 30.0276 129.123 29.9273V32.0327C128.518 32.2834 127.863 32.4338 127.108 32.534C126.352 32.6343 125.546 32.7345 124.74 32.7345C123.077 32.7345 121.616 32.4839 120.357 32.0327C119.097 31.5816 117.989 30.9299 117.132 30.0777C116.276 29.2255 115.621 28.1728 115.168 26.9195C114.714 25.6663 114.513 24.2627 114.513 22.7087C114.513 21.1547 114.765 19.7511 115.218 18.4978C115.671 17.1945 116.377 16.0916 117.233 15.1893C118.14 14.287 119.198 13.535 120.457 13.0337C121.717 12.5324 123.128 12.2818 124.689 12.2818C125.092 12.2818 125.495 12.2818 125.898 12.3319C126.302 12.3821 126.705 12.4322 127.057 12.4823C127.41 12.5324 127.763 12.6327 128.065 12.733C128.367 12.8332 128.669 12.9335 128.871 13.0337V15.1392C128.266 14.9387 127.611 14.7883 126.906 14.6379C126.201 14.4875 125.596 14.4875 124.841 14.4875Z" fill="#6689A5"/>
<path d="M134.161 12.7327V30.278H143.834V32.4335H131.743V12.7327H134.161Z" fill="#6689A5"/>
<path d="M145.546 32.4338V12.733H147.965V32.4839H145.546V32.4338ZM150.332 8.02081L147.662 11.6802H145.597L147.763 8.02081H150.332Z" fill="#6689A5"/>
<path d="M160.761 23.711C161.97 25.4656 163.179 27.2201 164.338 29.0749H164.439C164.288 27.1699 164.237 25.2149 164.237 23.2097V12.7327H166.656V32.4837H164.237L156.479 21.5053C155.119 19.6004 153.96 17.7958 152.902 16.1415H152.801C152.952 17.9462 153.003 20.0516 153.003 22.4578V32.5338H150.584V12.7327H153.003L160.761 23.711Z" fill="#6689A5"/>
<path d="M170.232 32.4335V12.7327H172.651V32.4837H170.232V32.4335Z" fill="#6689A5"/>
<path d="M186.354 14.4875C185.246 14.4875 184.188 14.6379 183.23 14.9888C182.273 15.3397 181.417 15.841 180.711 16.5428C180.006 17.2446 179.452 18.0968 179.049 19.0994C178.646 20.102 178.444 21.3051 178.444 22.7087C178.444 24.0622 178.646 25.2653 178.999 26.2177C179.402 27.2203 179.905 28.0224 180.611 28.6741C181.316 29.3257 182.172 29.827 183.13 30.1278C184.137 30.4286 185.195 30.579 186.404 30.579C186.757 30.579 187.059 30.579 187.462 30.5288C187.815 30.4787 188.218 30.4286 188.571 30.3785C188.923 30.3283 189.326 30.2281 189.679 30.1779C190.032 30.0777 190.334 30.0276 190.636 29.9273V32.0327C190.032 32.2834 189.377 32.4338 188.621 32.534C187.865 32.6343 187.059 32.7345 186.253 32.7345C184.591 32.7345 183.13 32.4839 181.87 32.0327C180.611 31.5816 179.502 30.9299 178.646 30.0777C177.789 29.2255 177.134 28.1728 176.681 26.9195C176.228 25.6663 176.026 24.2627 176.026 22.7087C176.026 21.1547 176.278 19.7511 176.731 18.4978C177.185 17.1945 177.89 16.0916 178.747 15.1893C179.653 14.287 180.711 13.535 181.971 13.0337C183.23 12.5324 184.641 12.2818 186.203 12.2818C186.606 12.2818 187.009 12.2818 187.412 12.3319C187.815 12.3821 188.218 12.4322 188.571 12.4823C188.923 12.5324 189.276 12.6327 189.578 12.733C189.88 12.8332 190.183 12.9335 190.384 13.0337V15.1392C189.78 14.9387 189.125 14.7883 188.419 14.6379C187.714 14.4875 187.059 14.4875 186.354 14.4875Z" fill="#6689A5"/>
<path d="M192.702 32.4337L200.763 12.6827H202.828L210.889 32.4337H208.269L205.901 26.4683H197.589L195.221 32.4337H192.702ZM201.821 15.7908C200.914 18.2471 200.108 20.4528 199.302 22.5081L198.546 24.3629H205.095L204.34 22.5081C203.534 20.4528 202.677 18.2471 201.871 15.7908H201.821Z" fill="#6689A5"/>
<path d="M189.83 36.6946H196.682L197.034 85.9216H189.175L158.897 44.7153V85.9216H152.247V36.6946H160.812L190.536 77.55L189.83 36.6946Z" fill="#53C0D4"/>
<path d="M202.476 36.6946H210.335V80.658L235.575 80.6079V85.9717H202.526V36.6946H202.476Z" fill="#53C0D4"/>
<path d="M257.339 36.5442H266.709L286.357 86.0719H279.103L272.503 70.2812L251.394 70.4817L245.197 86.0719H237.892L257.339 36.5442ZM270.639 65.2181L261.571 42.2589L253.006 65.2181H270.639Z" fill="#53C0D4"/>
<path d="M326.611 79.2546L327.92 84.3678C321.472 88.5285 282.73 91.3357 282.78 61.2582C282.78 31.6318 321.573 35.2913 327.92 37.9982L326.208 43.4623C320.414 40.1538 290.841 37.146 291.093 61.2582C291.395 85.5709 320.918 82.914 326.611 79.2546Z" fill="#53C0D4"/>
<path d="M331.951 36.7449H364.546V42.5098L339.054 42.4095V57.9997H362.431V63.163L339.054 63.3134V80.4075H365V85.8716H331.951V36.7449Z" fill="#53C0D4"/>
<path d="M115.017 36.7449H147.612V42.5098L122.12 42.4597V58.0499H145.496V63.2132L122.12 63.3636V80.4576H148.066V85.9217H115.017V36.7449Z" fill="#53C0D4"/>
<path d="M103.933 51.6834C103.933 67.2736 97.0311 81.2095 86.0483 90.6839V69.3288C86.6025 68.9278 87.2071 68.4767 87.7109 68.0255C94.361 62.2105 96.7792 54.9919 94.764 46.3697C93.6557 41.5572 90.9352 37.6973 87.0559 34.6895C86.7033 34.4389 86.401 34.1882 86.0483 33.9376V12.6828C97.0311 22.1572 103.933 36.1433 103.933 51.6834Z" fill="#53C0D4"/>
<path d="M83.0256 10.2266V32.2333C80.2043 30.93 77.1815 30.2783 73.9573 30.2783C71.4887 30.2783 69.0704 30.7796 66.753 31.6819C62.2188 33.2359 58.0373 36.0432 54.5107 39.101V0.050354C65.1912 0.551646 74.9648 4.26121 83.0256 10.2266Z" fill="#53C0D4"/>
<path d="M83.0255 71.0833V93.1402C75.0151 99.1055 65.1911 102.815 54.561 103.316V63.7143C56.5762 65.5691 58.8433 67.3737 61.2615 69.028C65.6445 71.6347 70.2291 73.3391 75.4686 72.9882C78.1387 72.7877 80.6576 72.1861 83.0255 71.0833Z" fill="#53C0D4"/>
<path d="M51.4879 41.9081C46.5507 46.8207 43.5279 51.4326 43.5279 51.5329C43.7798 51.583 46.7018 55.8941 51.4879 60.8068V103.417C23.0235 103.166 0 80.1065 0 51.6833C0 23.3101 23.0235 0.250646 51.4879 0V41.9081Z" fill="#53C0D4"/>
<path d="M36.4245 71.6349C34.1071 72.4871 31.6889 73.0385 29.2203 73.0385C24.3838 72.9884 19.9504 71.5848 16.1216 68.577C12.2423 65.5693 9.52185 61.7093 8.4135 56.8969C6.39832 48.3248 8.81654 41.0561 15.4666 35.2411C18.9932 32.1832 23.1243 30.6292 27.7593 30.2783C32.9987 29.9274 37.5833 31.6318 41.9663 34.2385C52.4452 41.2065 59.2465 51.7336 59.6495 51.7837C59.5991 51.9341 49.6744 67.0731 36.4245 71.6349Z" fill="#C1E4EA"/>
<path d="M33.2002 59.8043C32.1423 60.1552 31.0843 60.4059 29.9759 60.3557C27.8096 60.3557 25.8448 59.7542 24.1319 58.5511C22.419 57.2978 21.2099 55.7438 20.7061 53.7888C19.7993 50.2797 20.9076 47.3221 23.8296 44.966C25.3914 43.7128 27.2554 43.0611 29.321 42.9609C31.6385 42.8105 33.704 43.5123 35.6184 44.565C40.3037 47.4224 43.3265 51.6834 43.4777 51.7335C43.528 51.7335 39.0946 57.9495 33.2002 59.8043Z" fill="#53C0D4"/>
<path d="M69.9268 43.5123C70.9848 43.1614 72.0427 42.9107 73.1511 42.9609C75.3174 42.9609 77.2822 43.5624 78.9951 44.7655C80.708 46.0187 81.9171 47.5727 82.4209 49.5278C83.3277 53.0368 82.2194 55.9945 79.2974 58.3505C77.7356 59.6038 75.8716 60.2554 73.806 60.3557C71.4885 60.5061 69.423 59.8043 67.5086 58.7516C62.8233 55.8942 59.8005 51.6332 59.6494 51.5831C59.599 51.533 64.0324 45.3671 69.9268 43.5123Z" fill="#53C0D4"/>
</svg>
