<svg width="100%" height="100%" viewBox="0 0 129 141" fill="none" xmlns="http://www.w3.org/2000/svg">
<path d="M74.5554 36.8761C70.1881 42.9671 63.3473 44.4451 59.4827 41.8828C55.6181 39.3206 54.6222 32.6467 58.9895 26.5557C63.3568 20.4647 70.1976 18.9867 74.0622 21.549C77.9267 24.1112 78.9227 30.7851 74.5554 36.8761Z" stroke="#F8FAFC" stroke-width="5"/>
<path d="M56.1859 67.0366C61.585 72.3598 61.741 79.0994 58.4082 82.2251C55.0755 85.3508 48.073 85.0325 42.6739 79.7093C37.2748 74.386 37.1188 67.6465 40.4516 64.5208C43.7843 61.3951 50.7868 61.7134 56.1859 67.0366Z" stroke="#F8FAFC" stroke-width="5"/>
<path d="M27.4574 35.1713C32.8565 40.4945 33.0125 47.2341 29.6797 50.3598C26.347 53.4855 19.3445 53.1672 13.9454 47.844C8.54624 42.5208 8.3903 35.7812 11.723 32.6555C15.0558 29.5298 22.0583 29.8481 27.4574 35.1713Z" stroke="#F8FAFC" stroke-width="5"/>
<path d="M83.3264 109.013C83.3264 116.337 78.6107 121.33 73.8419 121.33C69.0731 121.33 64.3574 116.337 64.3574 109.013C64.3574 101.688 69.0731 96.6954 73.8419 96.6954C78.6107 96.6954 83.3264 101.688 83.3264 109.013Z" stroke="#F8FAFC" stroke-width="5"/>
<path d="M103.091 77.486C98.7233 83.577 91.8824 85.055 88.0178 82.4928C84.1533 79.9305 83.1574 73.2566 87.5246 67.1656C91.8919 61.0746 98.7328 59.5967 102.597 62.1589C106.462 64.7212 107.458 71.395 103.091 77.486Z" stroke="#F8FAFC" stroke-width="5"/>
<path d="M29.4922 49.0433C32.8518 55.541 35.0346 58.7347 39.7646 63.3117" stroke="#F8FAFC" stroke-width="4"/>
<path d="M72.4322 139.446C72.72 140.514 73.8183 141.152 74.8852 140.87C75.9522 140.589 76.5837 139.496 76.2959 138.428L72.4322 139.446ZM70.9805 121.483C70.4626 128.884 70.6759 132.933 72.4322 139.446L76.2959 138.428C74.6839 132.449 74.4772 128.865 74.9726 121.786L70.9805 121.483Z" fill="#F8FAFC"/>
<path d="M88.1914 81.4607C83.2872 86.9759 81.0847 90.157 78.5549 96.1336" stroke="#F8FAFC" stroke-width="4"/>
<path d="M60.791 41.1359C54.4728 48.804 51.5181 53.1306 47.7375 61.0115" stroke="#F8FAFC" stroke-width="4"/>
<path d="M57.8606 82.1222C66.2158 88.6958 68.505 91.9812 70.4157 97.4881" stroke="#F8FAFC" stroke-width="4"/>
<path d="M4.74516 10.2969C4.49353 9.23071 3.40551 8.54929 2.315 8.77489C1.22449 9.00049 0.544457 10.0477 0.796094 11.1139L4.74516 10.2969ZM15.6289 30.2011C12.074 26.6205 9.88551 23.7748 8.32636 20.816C6.76144 17.8461 5.77461 14.6586 4.74516 10.2969L0.796094 11.1139C1.85036 15.5807 2.92776 19.1511 4.72748 22.5665C6.53296 25.9929 9.00955 29.1598 12.74 32.9172L15.6289 30.2011Z" fill="#F8FAFC"/>
<path d="M126.384 56.179C127.48 55.9922 128.197 54.9688 127.985 53.8931C127.773 52.8174 126.712 52.0968 125.615 52.2836L126.384 56.179ZM105.121 65.7101C109.016 62.4625 112.088 60.488 115.253 59.1247C118.429 57.7568 121.801 56.9594 126.384 56.179L125.615 52.2836C120.927 53.0818 117.18 53.9435 113.562 55.5017C109.934 57.0644 106.537 59.2828 102.461 62.6816L105.121 65.7101Z" fill="#F8FAFC"/>
<path d="M6.69141 20.2484C11.565 18.1533 13.7922 16.2927 16.9638 11.4679" stroke="#F8FAFC" stroke-width="4" stroke-linecap="round"/>
<path d="M81.7334 1.59153C81.985 0.525356 83.073 -0.156065 84.1635 0.0695352C85.254 0.295133 85.9341 1.34232 85.6824 2.4085L81.7334 1.59153ZM70.8497 21.4957C74.4046 17.9151 76.593 15.0695 78.1522 12.1106C79.7171 9.1408 80.7039 5.95327 81.7334 1.59153L85.6824 2.4085C84.6282 6.87537 83.5508 10.4457 81.751 13.8612C79.9456 17.2875 77.469 20.4544 73.7385 24.2118L70.8497 21.4957Z" fill="#F8FAFC"/>
<path d="M86.5234 134.101C81.196 133.772 78.4338 132.776 73.7113 129.317" stroke="#F8FAFC" stroke-width="4" stroke-linecap="round"/>
</svg>
