<svg xmlns="http://www.w3.org/2000/svg" width="100%" height="100%" fill="none" viewBox="0 0 132 132"><path fill="#3C5368" d="M130 66C130 101.346 101.346 130 66 130C30.6538 130 2 101.346 2 66C2 30.6538 30.6538 2 66 2C101.346 2 130 30.6538 130 66Z"/><path stroke="#59CCD9" stroke-width="4" d="M130 66C130 101.346 101.346 130 66 130C30.6538 130 2 101.346 2 66C2 30.6538 30.6538 2 66 2C101.346 2 130 30.6538 130 66Z"/><path fill-rule="evenodd" stroke="#59CCD9" stroke-width="4" d="M66.6814 92.553C66.2959 92.9002 65.709 92.8949 65.3298 92.5408L62.0219 89.4518C57.4877 85.2063 54.1941 82.0664 52.1408 80.0321C50.0876 77.9977 47.7992 75.477 45.2754 72.4697C42.7517 69.4625 41.0193 66.7427 40.0782 64.3104C39.1372 61.878 38.6667 59.3794 38.6667 56.8144C38.6667 52.4804 40.0996 48.8098 42.9656 45.8025C45.8315 42.7953 49.4032 41.2917 53.6808 41.2917C58.2424 41.2917 62.081 42.9736 65.1965 46.3375C65.6263 46.8016 66.3737 46.8016 66.8035 46.3375C69.919 42.9736 73.7576 41.2917 78.3193 41.2917C82.5968 41.2917 86.1685 42.7953 89.0344 45.8025C91.9004 48.8098 93.3333 52.4804 93.3333 56.8144C93.3333 60.2639 92.2212 63.846 89.9969 67.5609C87.7726 71.2757 85.3558 74.504 82.7465 77.2459C80.1372 79.9879 75.8811 84.1007 69.9781 89.5845L66.6814 92.553Z" clip-rule="evenodd"/></svg>