<svg width="108" height="107" viewBox="0 0 108 107" fill="none" xmlns="http://www.w3.org/2000/svg">
<path fill-rule="evenodd" clip-rule="evenodd" d="M28.4789 28.3851C35.5775 21.3516 44.0845 17.8349 54 17.8349C63.9155 17.8349 72.3943 21.3237 79.4366 28.3013C86.4789 35.279 90 43.68 90 53.5046C90 63.3292 86.4789 71.7302 79.4366 78.7078C72.3943 85.6855 63.9155 89.1743 54 89.1743C44.0845 89.1743 35.6057 85.6855 28.5634 78.7078C21.5211 71.7302 18 63.3292 18 53.5046C18 43.68 21.4929 35.3069 28.4789 28.3851ZM64.4736 52.6516C66.3046 50.8374 67.2201 48.6604 67.2201 46.1205C67.2201 42.9457 66.0757 40.2244 63.787 37.9567C61.4982 35.6889 58.7518 34.5551 55.5475 34.5551C52.3433 34.5551 49.5968 35.6889 47.3081 37.9567C45.0194 40.2244 43.875 42.9457 43.875 46.1205H49.6426C49.6426 44.5784 50.2377 43.2178 51.4278 42.0386C52.618 40.8594 53.9912 40.2697 55.5475 40.2697C57.1039 40.2697 58.4771 40.8594 59.6673 42.0386C60.8574 43.2178 61.4525 44.5784 61.4525 46.1205C61.4525 47.6626 60.8574 49.0232 59.6673 50.2024L56.0968 53.8762C53.8081 56.3253 52.6637 59.0466 52.6637 62.04V63.5367H58.4313C58.4313 60.5433 59.5757 57.822 61.8644 55.3729L64.4736 52.6516ZM58.4317 75.1013V69.3866H52.6641V75.1013H58.4317Z" fill="#4ED999"/>
</svg>
