<svg width="100%" height="100%" viewBox="0 0 145 97" fill="none" xmlns="http://www.w3.org/2000/svg">
<g clip-path="url(#clip0_4193_3888)">
<path d="M40.1336 7.09185C40.1336 6.40616 40.0581 5.6519 40.1336 4.9662C40.3598 3.52625 41.416 2.49771 42.7739 1.81201C45.1125 0.577771 47.6775 0.166355 50.3177 0.0292165C56.5037 -0.176491 62.5389 0.714909 68.4232 2.36057C71.5916 3.25197 74.6846 4.41765 77.6268 5.78903C80.8706 7.29756 84.2653 7.50326 87.7356 6.40616C91.6583 5.17192 95.6566 4.62335 99.8057 4.82907C101.541 4.89763 103.201 5.24048 104.709 5.92618C105.917 6.47473 106.897 7.29756 107.5 8.39467C107.727 8.80608 107.953 8.94322 108.481 8.87465C115.119 8.32609 121.684 8.53181 128.247 9.90319C132.546 10.7946 136.696 11.9603 140.392 14.1545C141.222 14.6345 142.051 15.2516 142.731 15.8687C145.597 18.4058 145.748 21.6285 143.183 24.3713C142.278 25.3313 141.222 26.2226 140.09 26.9083C133.829 30.8854 129 35.9595 125.153 41.9936C119.873 50.3591 112.328 56.5989 102.22 60.0274C100.108 60.713 97.9198 61.0559 95.6566 61.6044C95.6566 61.7415 95.7321 61.9472 95.8829 62.2215C96.7128 64.4157 96.3356 66.4042 94.7514 68.187C94.1479 68.9413 93.6197 69.8327 93.3934 70.7242C92.1864 74.8383 86.0759 76.621 82.6057 73.8097C81.4741 72.9183 80.8706 71.8212 80.946 70.4498C81.0969 67.8442 79.6635 65.7872 78.2302 63.6615C77.6266 64.4157 77.0986 65.1015 76.5706 65.7185C73.4021 69.4899 69.1775 72.0955 64.274 73.604C59.8231 74.9755 55.4477 76.3468 50.9213 77.5125C46.4704 78.6782 42.623 80.6667 39.1529 83.4095C33.7966 87.5921 27.9124 91.1578 22.0281 94.6548C20.0667 95.8205 17.9545 96.6433 15.6159 96.9176C11.3158 97.3976 8.14741 95.7519 5.65792 92.7348C4.22458 90.9521 3.47019 88.895 2.94212 86.7008C1.05615 78.6782 0 70.587 0 62.3587C0 48.5762 3.84739 35.8224 12.7492 24.5085C18.03 17.7887 25.0457 12.9202 33.2686 9.56034C35.5318 8.66894 37.8704 7.91468 40.1336 7.09185ZM76.7214 43.7764C76.4197 40.2794 76.1934 35.9595 75.7407 31.7083C75.3636 27.9369 74.4582 24.2341 72.5723 20.8057C68.6495 13.5373 62.388 9.69749 53.3353 9.76605C48.7335 9.83462 44.2072 10.726 39.9072 12.0974C29.6475 15.3202 21.1984 20.8743 15.3141 29.2398C8.37373 38.908 5.12985 49.5362 4.97897 60.9873C4.90353 69.2842 5.80881 77.5125 7.69478 85.6723C8.14741 87.5921 8.75092 89.4435 10.2597 90.8835C11.7685 92.3234 13.579 92.9406 15.7668 92.3234C16.8983 91.9806 18.03 91.5691 19.0107 91.0206C24.5931 87.7978 30.0247 84.438 35.1546 80.5981C38.0967 78.4038 40.9633 76.1411 44.509 74.9068C47.3756 73.8783 50.3932 73.0555 53.3353 72.164C56.9564 71.067 60.7283 70.1755 64.274 68.8042C70.9881 66.1985 75.2881 61.673 76.0424 54.9532C76.4951 51.4562 76.4951 48.0277 76.7214 43.7764ZM88.4899 37.3994C88.3391 40.6222 88.2636 43.7764 88.1881 46.9992C88.1127 48.7819 87.9619 50.5647 88.5654 52.279C89.7724 55.776 92.4882 57.4217 96.411 56.8046C97.8443 56.5989 99.3531 56.256 100.711 55.776C109.689 52.6219 116.252 46.9992 121.004 39.5251C124.173 34.451 128.095 29.9254 132.999 26.2226C134.658 24.9885 136.469 23.8913 138.129 22.6571C140.693 20.6686 140.693 19.7772 137.827 18.1315C136.091 17.1715 134.205 16.3487 132.32 15.7316C126.284 13.743 119.948 13.0573 113.536 13.1945C108.104 13.3317 102.748 14.086 97.4672 15.2516C93.318 16.143 90.3758 18.2686 89.3951 22.2456C89.1689 23.2056 89.018 24.2341 88.9426 25.2627C88.7162 29.3083 88.6408 33.3539 88.4899 37.3994ZM45.2634 5.78903C45.2634 5.8576 45.3388 5.92618 45.3388 5.99475C45.5651 5.99475 45.7914 5.92618 46.0178 5.92618C50.0915 5.24048 54.2406 4.9662 58.3898 5.58333C64.1986 6.40616 69.1021 8.80608 72.874 12.8517C77.0231 17.2401 79.3618 22.3828 80.3425 28.0741C81.4741 34.5196 81.7759 40.9651 81.5495 47.4791C81.3987 51.1134 81.3987 54.7475 80.5688 58.3131C80.4934 58.5188 80.6442 58.8617 80.7952 59.0674C81.5495 60.233 82.4548 61.4672 83.2091 62.633C84.718 64.9643 85.925 67.4328 85.925 70.2442C85.925 70.4499 86.2267 70.7927 86.453 70.8613C87.2829 71.067 88.2636 70.4499 88.4144 69.6955C88.8671 68.1185 89.6215 66.6785 90.7531 65.4443C91.2057 64.9643 91.3566 64.4157 91.0548 63.8672C90.6776 63.1815 90.3005 62.5644 89.8478 61.9472C88.7916 60.713 87.6601 59.4787 86.5285 58.3131C84.1898 55.8446 82.9829 52.9647 83.0583 49.7419C83.1338 44.8736 83.3601 40.0736 83.5109 35.2053C83.6618 31.2283 83.6618 27.1826 84.039 23.2056C84.4162 19.4343 86.1513 16.143 89.5461 13.8117C92.3373 11.8232 95.5811 10.9317 99.0514 10.3832C99.8057 10.246 100.56 10.1089 101.541 9.97176C101.239 9.83462 101.164 9.76605 101.013 9.76605C100.485 9.69749 99.9566 9.62891 99.4286 9.56034C95.9584 9.35464 92.639 9.83462 89.3951 10.8632C84.4162 12.4403 79.5882 12.0288 74.8354 9.83462C73.7793 9.28607 72.6477 8.80608 71.5161 8.39467C66.0091 6.33758 60.3512 5.10334 54.467 4.7605C51.6757 4.62335 48.9599 4.62335 46.2441 5.51475C45.9423 5.44619 45.5651 5.6519 45.2634 5.78903Z" fill="#F8FAFC"/>
</g>
<defs>
<clipPath id="clip0_4193_3888">
<rect width="145" height="97" fill="white"/>
</clipPath>
</defs>
</svg>
