<svg width="100%" height="100%" viewBox="0 0 245 256" fill="none" xmlns="http://www.w3.org/2000/svg">
<path d="M122.277 50.2513L122.06 252.976" stroke="#D9AC4E" stroke-width="6" stroke-linecap="round"/>
<path d="M122.374 76.7387C109.001 114.891 66.9929 115.75 58.7259 132.071C50.4588 148.393 33.5793 215.468 33.5793 215.468" stroke="#D9AC4E" stroke-width="6" stroke-linecap="round"/>
<path d="M122.749 76.1813C136.122 114.334 178.13 115.192 186.397 131.514C194.664 147.836 211.544 214.91 211.544 214.91" stroke="#D9AC4E" stroke-width="6" stroke-linecap="round"/>
<path d="M80.7087 169.555C81.7983 170.797 83.7039 170.926 84.965 169.844C86.2261 168.762 86.365 166.878 85.2754 165.637L80.7087 169.555ZM119.151 112.507C119.075 114.287 117.635 116.557 114.12 119.378C110.738 122.093 106.135 124.774 101.153 127.527C96.2716 130.225 91.0075 133.002 86.6899 135.781C82.499 138.478 78.505 141.591 76.7798 145.222L82.2409 147.738C83.1585 145.807 85.7504 143.49 89.9686 140.775C94.06 138.141 99.0283 135.523 104.082 132.73C109.036 129.992 114.072 127.085 117.913 124.002C121.621 121.025 124.987 117.286 125.181 112.733L119.151 112.507ZM76.7798 145.222C73.6721 151.763 74.7377 157.938 76.4562 162.302C77.3159 164.485 78.3563 166.268 79.1817 167.508C79.5961 168.13 79.9613 168.623 80.2303 168.969C80.3649 169.142 80.4759 169.279 80.5574 169.377C80.5982 169.426 80.6317 169.466 80.6571 169.496C80.6698 169.51 80.6806 169.523 80.6892 169.533C80.6935 169.538 80.6973 169.542 80.7005 169.546C80.7021 169.548 80.7036 169.55 80.705 169.551C80.7057 169.552 80.7066 169.553 80.7069 169.553C80.7078 169.554 80.7087 169.555 82.992 167.596C85.2754 165.637 85.2762 165.637 85.277 165.638C85.2772 165.639 85.2779 165.639 85.2783 165.64C85.2791 165.641 85.2798 165.642 85.2804 165.642C85.2815 165.644 85.2821 165.644 85.2822 165.644C85.2825 165.645 85.2807 165.643 85.277 165.638C85.2696 165.63 85.2544 165.612 85.2323 165.585C85.188 165.532 85.1158 165.443 85.021 165.321C84.8311 165.077 84.5526 164.702 84.2277 164.214C83.5744 163.233 82.7533 161.823 82.0819 160.118C80.738 156.705 80.0627 152.323 82.2409 147.738L76.7798 145.222Z" fill="#D9AC4E"/>
<path d="M122.433 112.62C122.974 125.287 159.804 135.356 165.089 146.48C170.375 157.605 161.608 167.596 161.608 167.596" stroke="#D9AC4E" stroke-width="6" stroke-linecap="round"/>
<path d="M122.03 162.461C118.796 169.008 91.9963 183.182 89.1976 193.061C86.399 202.939 91.9963 212.283 91.9963 212.283" stroke="#D9AC4E" stroke-width="6" stroke-linecap="round"/>
<path d="M122.292 162.305C125.526 168.853 152.326 183.026 155.125 192.905C157.923 202.783 152.326 212.128 152.326 212.128" stroke="#D9AC4E" stroke-width="6" stroke-linecap="round"/>
<path d="M100.513 248.493C100.965 250.078 102.628 250.992 104.229 250.533C105.829 250.074 106.76 248.416 106.308 246.83L100.513 248.493ZM122.562 205.141C120.44 203.034 120.44 203.035 120.44 203.035C120.44 203.035 120.439 203.035 120.439 203.036C120.438 203.036 120.438 203.037 120.436 203.038C120.434 203.041 120.431 203.044 120.426 203.048C120.418 203.057 120.406 203.069 120.39 203.085C120.358 203.117 120.311 203.163 120.25 203.224C120.129 203.346 119.952 203.523 119.727 203.751C119.277 204.208 118.632 204.866 117.849 205.679C116.285 207.303 114.163 209.554 111.936 212.054C109.713 214.55 107.361 217.32 105.348 219.981C103.375 222.591 101.58 225.284 100.626 227.59L106.195 229.829C106.84 228.27 108.238 226.084 110.155 223.55C112.034 221.067 114.27 218.429 116.435 215.998C118.596 213.572 120.662 211.38 122.19 209.794C122.953 209.001 123.579 208.362 124.014 207.921C124.231 207.701 124.401 207.531 124.515 207.417C124.572 207.36 124.615 207.317 124.644 207.288C124.658 207.274 124.669 207.263 124.675 207.256C124.679 207.253 124.681 207.251 124.683 207.249C124.684 207.248 124.684 207.248 124.684 207.247C124.685 207.247 124.685 207.247 124.685 207.247C124.685 207.247 124.685 207.247 122.562 205.141ZM100.626 227.59C98.7388 232.155 98.8018 237.496 99.2173 241.417C99.4303 243.428 99.7491 245.176 100.015 246.424C100.148 247.05 100.269 247.554 100.358 247.908C100.403 248.085 100.44 248.225 100.466 248.323C100.48 248.372 100.49 248.412 100.498 248.44C100.502 248.454 100.505 248.466 100.508 248.474C100.509 248.479 100.51 248.483 100.511 248.486C100.511 248.487 100.512 248.488 100.512 248.49C100.512 248.49 100.512 248.491 100.513 248.491C100.513 248.492 100.513 248.493 103.411 247.661C106.308 246.83 106.309 246.831 106.309 246.832C106.309 246.832 106.309 246.832 106.309 246.832C106.309 246.833 106.309 246.833 106.309 246.833C106.309 246.834 106.309 246.833 106.309 246.832C106.308 246.83 106.307 246.826 106.305 246.818C106.301 246.804 106.294 246.779 106.285 246.744C106.266 246.674 106.237 246.565 106.201 246.42C106.128 246.13 106.024 245.698 105.907 245.151C105.673 244.054 105.393 242.513 105.206 240.753C104.823 237.131 104.885 232.996 106.195 229.829L100.626 227.59Z" fill="#D9AC4E"/>
<path d="M143.458 248.776C143.006 250.362 141.342 251.275 139.742 250.816C138.142 250.357 137.211 248.699 137.662 247.114L143.458 248.776ZM121.408 205.424C123.53 203.318 123.53 203.318 123.531 203.318C123.531 203.318 123.531 203.319 123.532 203.319C123.532 203.32 123.533 203.321 123.534 203.322C123.537 203.324 123.54 203.327 123.544 203.332C123.553 203.34 123.565 203.352 123.581 203.368C123.613 203.4 123.66 203.447 123.72 203.508C123.842 203.629 124.018 203.807 124.243 204.035C124.694 204.491 125.339 205.149 126.121 205.962C127.685 207.587 129.808 209.838 132.035 212.338C134.258 214.833 136.61 217.604 138.622 220.264C140.596 222.874 142.391 225.568 143.344 227.874L137.776 230.112C137.131 228.553 135.732 226.368 133.815 223.833C131.937 221.35 129.701 218.712 127.536 216.281C125.375 213.855 123.308 211.664 121.781 210.077C121.018 209.285 120.391 208.645 119.957 208.205C119.739 207.985 119.57 207.815 119.456 207.7C119.399 207.643 119.356 207.6 119.327 207.571C119.313 207.557 119.302 207.547 119.295 207.54C119.292 207.536 119.289 207.534 119.288 207.532C119.287 207.532 119.287 207.531 119.286 207.531C119.286 207.531 119.286 207.531 119.286 207.531C119.286 207.531 119.286 207.531 121.408 205.424ZM143.344 227.874C145.232 232.438 145.169 237.779 144.753 241.7C144.54 243.711 144.222 245.459 143.956 246.708C143.822 247.333 143.702 247.838 143.612 248.191C143.568 248.368 143.531 248.508 143.504 248.607C143.491 248.656 143.48 248.695 143.473 248.723C143.469 248.737 143.465 248.749 143.463 248.758C143.462 248.762 143.461 248.766 143.46 248.769C143.459 248.77 143.459 248.772 143.459 248.773C143.458 248.774 143.458 248.774 143.458 248.775C143.458 248.775 143.458 248.776 140.56 247.945C137.662 247.114 137.662 247.114 137.662 247.115C137.662 247.115 137.662 247.115 137.662 247.116C137.662 247.116 137.662 247.117 137.661 247.117C137.661 247.117 137.661 247.117 137.662 247.116C137.662 247.114 137.664 247.109 137.666 247.102C137.67 247.087 137.677 247.062 137.686 247.027C137.705 246.958 137.733 246.849 137.77 246.704C137.843 246.414 137.947 245.981 138.064 245.434C138.297 244.337 138.578 242.797 138.764 241.036C139.148 237.414 139.085 233.279 137.776 230.112L143.344 227.874Z" fill="#D9AC4E"/>
<path d="M92.9993 39.5003C113.043 73.2354 97.1766 92.1411 47.6285 107.376C25.6447 178.361 22.8937 193.521 16.7068 223.856" stroke="#E3968B" stroke-width="6" stroke-linecap="round"/>
<path d="M151.999 39.5003C131.956 73.2354 147.822 92.2666 197.37 107.501C219.353 178.486 222.104 193.647 228.291 223.981" stroke="#E3968B" stroke-width="6" stroke-linecap="round"/>
<path d="M154.098 24.9117C154.098 32.0546 153.974 37.7178 150.475 41.886C147.05 45.9662 139.6 49.3998 122.494 49.3998C107.123 49.3998 99.4764 46.6102 95.5846 42.9249C91.7917 39.3332 90.8906 34.2504 90.8906 27.4881C90.8906 21.7415 94.1574 15.6526 99.932 10.9014C105.67 6.18056 113.65 3 122.495 3C131.492 3 139.513 5.62991 145.21 9.73127C150.912 13.8359 154.098 19.2425 154.098 24.9117Z" stroke="#D9AC4E" stroke-width="6"/>
<path d="M40.8828 231.071L65.6932 167.935" stroke="#E3968B" stroke-width="6" stroke-linecap="round"/>
<path d="M203.238 231.502L178.428 168.366" stroke="#E3968B" stroke-width="6" stroke-linecap="round"/>
<path d="M70.6992 252.988C70.6992 252.988 73.3104 223.126 73.9633 204.228C74.6162 185.33 65.9113 167.947 65.9113 167.947" stroke="#E3968B" stroke-width="6" stroke-linecap="round"/>
<path d="M172.914 252.46C172.914 252.46 170.303 222.598 169.65 203.7C168.997 184.802 177.702 167.419 177.702 167.419" stroke="#E3968B" stroke-width="6" stroke-linecap="round"/>
</svg>
