<svg width="64" height="64" viewBox="0 0 64 64" fill="none" xmlns="http://www.w3.org/2000/svg">
<g filter="url(#filter0_d_2701_2436)">
<circle cx="32" cy="26" r="20" fill="#59CCD9"/>
</g>
<path fill-rule="evenodd" clip-rule="evenodd" d="M29.7404 21.5186C30.6739 21.0342 31.7363 20.8565 32.7766 21.0108C33.8378 21.1682 34.8202 21.6626 35.5788 22.4212C36.3373 23.1798 36.8318 24.1622 36.9891 25.2233C37.1434 26.2636 36.9657 27.3261 36.4813 28.2596C35.997 29.1931 35.2306 29.9501 34.2912 30.4229C33.3518 30.8957 32.2872 31.0603 31.2489 30.8932C30.2105 30.7261 29.2513 30.2359 28.5077 29.4923C27.764 28.7486 27.2738 27.7894 27.1067 26.7511C26.9396 25.7128 27.1042 24.6482 27.577 23.7088C28.0499 22.7694 28.8069 22.003 29.7404 21.5186ZM32.4833 22.9892C31.8591 22.8966 31.2216 23.0032 30.6615 23.2939C30.1014 23.5845 29.6472 24.0443 29.3635 24.608C29.0798 25.1716 28.9811 25.8103 29.0813 26.4333C29.1816 27.0563 29.4757 27.6319 29.9219 28.0781C30.3681 28.5242 30.9436 28.8184 31.5666 28.9186C32.1896 29.0189 32.8283 28.9201 33.392 28.6364C33.9556 28.3527 34.4155 27.8985 34.7061 27.3384C34.9967 26.7783 35.1033 26.1409 35.0108 25.5167C34.9164 24.88 34.6197 24.2905 34.1645 23.8354C33.7094 23.3803 33.12 23.0836 32.4833 22.9892Z" fill="#F8FAFC"/>
<path d="M37.5 19.5C36.9477 19.5 36.5 19.9477 36.5 20.5C36.5 21.0523 36.9477 21.5 37.5 21.5H37.51C38.0623 21.5 38.51 21.0523 38.51 20.5C38.51 19.9477 38.0623 19.5 37.51 19.5H37.5Z" fill="#F8FAFC"/>
<path fill-rule="evenodd" clip-rule="evenodd" d="M21 21C21 17.6863 23.6863 15 27 15H37C40.3137 15 43 17.6863 43 21V31C43 34.3137 40.3137 37 37 37H27C23.6863 37 21 34.3137 21 31V21ZM27 17C24.7909 17 23 18.7909 23 21V31C23 33.2091 24.7909 35 27 35H37C39.2091 35 41 33.2091 41 31V21C41 18.7909 39.2091 17 37 17H27Z" fill="#F8FAFC"/>
<defs>
<filter id="filter0_d_2701_2436" x="0" y="0" width="64" height="64" filterUnits="userSpaceOnUse" color-interpolation-filters="sRGB">
<feFlood flood-opacity="0" result="BackgroundImageFix"/>
<feColorMatrix in="SourceAlpha" type="matrix" values="0 0 0 0 0 0 0 0 0 0 0 0 0 0 0 0 0 0 127 0" result="hardAlpha"/>
<feOffset dy="6"/>
<feGaussianBlur stdDeviation="6"/>
<feComposite in2="hardAlpha" operator="out"/>
<feColorMatrix type="matrix" values="0 0 0 0 0.176471 0 0 0 0 0.243137 0 0 0 0 0.305882 0 0 0 0.2 0"/>
<feBlend mode="normal" in2="BackgroundImageFix" result="effect1_dropShadow_2701_2436"/>
<feBlend mode="normal" in="SourceGraphic" in2="effect1_dropShadow_2701_2436" result="shape"/>
</filter>
</defs>
</svg>
