<svg xmlns="http://www.w3.org/2000/svg" width="64" height="64" fill="none" viewBox="0 0 64 64"><g filter="url(#filter0_d_2701_2442)"><circle cx="32" cy="26" r="20" fill="#59CCD9"/></g><path fill="#F8FAFC" fill-rule="evenodd" d="M24 15C22.3431 15 21 16.3431 21 18C21 19.6569 22.3431 21 24 21C25.6569 21 27 19.6569 27 18C27 16.3431 25.6569 15 24 15ZM23 18C23 17.4477 23.4477 17 24 17C24.5523 17 25 17.4477 25 18C25 18.5523 24.5523 19 24 19C23.4477 19 23 18.5523 23 18Z" clip-rule="evenodd"/><path fill="#F8FAFC" fill-rule="evenodd" d="M36 21C34.1435 21 32.363 21.7375 31.0503 23.0503C29.7375 24.363 29 26.1435 29 28V35C29 35.5523 29.4477 36 30 36H34C34.5523 36 35 35.5523 35 35V28C35 27.7348 35.1054 27.4804 35.2929 27.2929C35.4804 27.1054 35.7348 27 36 27C36.2652 27 36.5196 27.1054 36.7071 27.2929C36.8946 27.4804 37 27.7348 37 28V35C37 35.5523 37.4477 36 38 36H42C42.5523 36 43 35.5523 43 35V28C43 26.1435 42.2625 24.363 40.9497 23.0503C39.637 21.7375 37.8565 21 36 21ZM36 23C34.6739 23 33.4021 23.5268 32.4645 24.4645C31.5268 25.4021 31 26.6739 31 28V34H33V28C33 27.2043 33.3161 26.4413 33.8787 25.8787C34.4413 25.3161 35.2043 25 36 25C36.7957 25 37.5587 25.3161 38.1213 25.8787C38.6839 26.4413 39 27.2043 39 28V34H41V28C41 26.6739 40.4732 25.4021 39.5355 24.4645C38.5979 23.5268 37.3261 23 36 23Z" clip-rule="evenodd"/><path fill="#F8FAFC" fill-rule="evenodd" d="M21 23C21 22.4477 21.4477 22 22 22H26C26.5523 22 27 22.4477 27 23V35C27 35.5523 26.5523 36 26 36H22C21.4477 36 21 35.5523 21 35V23ZM23 24V34H25V24H23Z" clip-rule="evenodd"/><defs><filter id="filter0_d_2701_2442" width="64" height="64" x="0" y="0" color-interpolation-filters="sRGB" filterUnits="userSpaceOnUse"><feFlood flood-opacity="0" result="BackgroundImageFix"/><feColorMatrix in="SourceAlpha" result="hardAlpha" type="matrix" values="0 0 0 0 0 0 0 0 0 0 0 0 0 0 0 0 0 0 127 0"/><feOffset dy="6"/><feGaussianBlur stdDeviation="6"/><feComposite in2="hardAlpha" operator="out"/><feColorMatrix type="matrix" values="0 0 0 0 0.176471 0 0 0 0 0.243137 0 0 0 0 0.305882 0 0 0 0.2 0"/><feBlend in2="BackgroundImageFix" mode="normal" result="effect1_dropShadow_2701_2442"/><feBlend in="SourceGraphic" in2="effect1_dropShadow_2701_2442" mode="normal" result="shape"/></filter></defs></svg>