<svg width="244" height="164" viewBox="0 0 244 164" fill="none" xmlns="http://www.w3.org/2000/svg">
<path d="M67.5351 11.9903C67.5351 10.831 67.4081 9.55578 67.5351 8.39647C67.9159 5.96191 69.6931 4.22293 71.9781 3.06362C75.9135 0.976849 80.2296 0.28126 84.6727 0.0493971C95.0822 -0.298398 105.238 1.20871 115.14 3.99107C120.471 5.49818 125.676 7.46902 130.627 9.78765C136.086 12.3381 141.798 12.6859 147.638 10.831C154.239 8.74426 160.967 7.81681 167.949 8.16461C170.869 8.28054 173.662 8.8602 176.2 10.0195C178.232 10.947 179.882 12.3381 180.897 14.193C181.278 14.8886 181.659 15.1205 182.548 15.0046C193.719 14.0771 204.763 14.4249 215.808 16.7435C223.043 18.2507 230.025 20.2215 236.246 23.9313C237.642 24.7428 239.039 25.7862 240.181 26.8296C245.005 31.1191 245.259 36.5678 240.943 41.2051C239.419 42.8281 237.642 44.3353 235.738 45.4946C225.201 52.2186 217.077 60.7975 210.603 70.9995C201.717 85.1432 189.022 95.6929 172.011 101.49C168.457 102.649 164.775 103.228 160.967 104.156C160.967 104.388 161.094 104.736 161.348 105.199C162.744 108.909 162.11 112.271 159.444 115.285C158.428 116.561 157.539 118.068 157.159 119.575C155.128 126.531 144.845 129.545 139.005 124.792C137.101 123.285 136.086 121.43 136.213 119.111C136.467 114.706 134.055 111.228 131.643 107.634C130.627 108.909 129.738 110.068 128.85 111.112C123.518 117.488 116.409 121.893 108.158 124.444C100.668 126.763 93.305 129.081 85.6883 131.052C78.1985 133.023 71.7243 136.385 65.8848 141.022C56.8716 148.094 46.9699 154.122 37.0681 160.035C33.7675 162.006 30.2131 163.397 26.2777 163.861C19.0418 164.672 13.7101 161.89 9.52092 156.789C7.10895 153.775 5.8395 150.297 4.95088 146.587C1.77724 133.023 0 119.343 0 105.431C0 82.1289 6.47422 60.5657 21.4538 41.437C30.34 30.0757 42.1459 21.8445 55.983 16.1639C59.7914 14.6568 63.7267 13.3815 67.5351 11.9903ZM129.104 74.0137C128.596 68.1012 128.215 60.7975 127.453 53.6098C126.819 47.2335 125.295 40.9732 122.122 35.1767C115.52 22.8879 104.984 16.3957 89.7505 16.5117C82.0068 16.6276 74.3901 18.1347 67.1542 20.4533C49.8896 25.9021 35.6717 35.2926 25.77 49.4362C14.091 65.7826 8.6323 83.752 8.37841 103.113C8.25146 117.14 9.77481 131.052 12.9485 144.848C13.7101 148.094 14.7257 151.224 17.2646 153.659C19.8035 156.093 22.8502 157.137 26.5316 156.093C28.4358 155.514 30.34 154.818 31.9903 153.891C41.3843 148.442 50.5243 142.761 59.1566 136.269C64.1075 132.559 68.9314 128.733 74.8979 126.647C79.7218 124.908 84.7997 123.516 89.7505 122.009C95.8439 120.154 102.191 118.647 108.158 116.329C119.456 111.923 126.692 104.272 127.961 92.9106C128.723 86.9981 128.723 81.2015 129.104 74.0137ZM148.907 63.2321C148.653 68.6809 148.526 74.0137 148.399 79.4625C148.272 82.4767 148.019 85.4909 149.034 88.3892C151.065 94.3017 155.635 97.0841 162.236 96.0407C164.648 95.6929 167.187 95.1133 169.472 94.3018C184.579 88.9689 195.623 79.4625 203.621 66.826C208.952 58.247 215.554 50.5956 223.805 44.3353C226.598 42.2485 229.645 40.3936 232.437 38.3068C236.754 34.9448 236.754 33.4377 231.93 30.6553C229.01 29.0323 225.836 27.6411 222.663 26.5977C212.507 23.2357 201.843 22.0764 191.053 22.3083C181.913 22.5401 172.9 23.8154 164.014 25.7862C157.032 27.2933 152.081 30.8872 150.431 37.6112C150.05 39.2343 149.796 40.9732 149.669 42.7122C149.288 49.5522 149.161 56.3921 148.907 63.2321ZM76.1674 9.78765C76.1674 9.90358 76.2943 10.0195 76.2943 10.1354C76.6751 10.1354 77.056 10.0195 77.4368 10.0195C84.2919 8.8602 91.2739 8.39647 98.2559 9.43985C108.031 10.831 116.282 14.8886 122.629 21.7286C129.611 29.1482 133.547 37.8431 135.197 47.4654C137.101 58.363 137.609 69.2605 137.228 80.274C136.974 86.4184 136.974 92.5628 135.578 98.5912C135.451 98.939 135.705 99.5187 135.959 99.8665C137.228 101.837 138.752 103.924 140.021 105.895C142.56 109.837 144.591 114.01 144.591 118.763C144.591 119.111 145.099 119.691 145.48 119.807C146.876 120.154 148.526 119.111 148.78 117.836C149.542 115.169 150.811 112.735 152.716 110.648C153.477 109.837 153.731 108.909 153.223 107.982C152.589 106.822 151.954 105.779 151.192 104.736C149.415 102.649 147.511 100.562 145.607 98.5912C141.671 94.4177 139.64 89.5486 139.767 84.0998C139.894 75.8686 140.275 67.7534 140.529 59.5223C140.783 52.7983 140.783 45.9583 141.417 39.2343C142.052 32.858 144.972 27.2933 150.684 23.3516C155.381 19.9896 160.84 18.4825 166.68 17.5551C167.949 17.3232 169.218 17.0913 170.869 16.8595C170.361 16.6276 170.234 16.5117 169.98 16.5117C169.092 16.3957 168.203 16.2798 167.314 16.1639C161.475 15.8161 155.889 16.6276 150.431 18.3666C142.052 21.033 133.928 20.3374 125.93 16.6276C124.153 15.7002 122.249 14.8886 120.344 14.193C111.077 10.7151 101.556 8.62833 91.6547 8.04867C86.9577 7.81681 82.3877 7.81681 77.8176 9.32392C77.3099 9.20799 76.6751 9.55578 76.1674 9.78765Z" fill="#D9AC4E"/>
</svg>
