<svg xmlns="http://www.w3.org/2000/svg" width="100%" height="100%" fill="none" viewBox="0 0 51 33"><g clip-path="url(#clip0_2917_2904)"><path fill="#F8FAFC" d="M14.1159 2.41268C14.1159 2.17941 14.0894 1.92281 14.1159 1.68953C14.1955 1.19965 14.567 0.849736 15.0446 0.61646C15.8672 0.196561 16.7693 0.056595 17.698 0.00993969C19.8737 -0.0600435 21.9965 0.243216 24.0661 0.803081C25.1804 1.10634 26.2683 1.50291 27.3032 1.96947C28.4442 2.48267 29.6381 2.55265 30.8588 2.17941C32.2385 1.75952 33.6447 1.57289 35.1041 1.64288C35.7144 1.66621 36.2982 1.78285 36.8287 2.01612C37.2534 2.20275 37.5983 2.48267 37.8104 2.85591C37.8901 2.99588 37.9697 3.04254 38.1555 3.01922C40.4905 2.83259 42.7988 2.90257 45.1074 3.36912C46.6196 3.6724 48.079 4.06896 49.3793 4.81544C49.6711 4.97873 49.9631 5.18869 50.2018 5.39864C51.2101 6.26177 51.2632 7.35816 50.361 8.29127C50.0425 8.61785 49.6711 8.92113 49.2731 9.1544C47.0707 10.5074 45.3727 12.2336 44.0195 14.2865C42.1622 17.1325 39.5087 19.2553 35.9531 20.4218C35.2103 20.655 34.4407 20.7715 33.6447 20.9582C33.6447 21.0049 33.6713 21.0749 33.7244 21.1681C34.0162 21.9146 33.8837 22.5911 33.3264 23.1976C33.1141 23.4544 32.9282 23.7576 32.8488 24.0608C32.4243 25.4605 30.275 26.067 29.0543 25.1106C28.6564 24.8074 28.4442 24.4341 28.4708 23.9675C28.5238 23.0811 28.0197 22.3812 27.5155 21.6581C27.3032 21.9146 27.1174 22.1478 26.9318 22.3579C25.8173 23.6409 24.3314 24.5273 22.6068 25.0406C21.0413 25.5072 19.5023 25.9736 17.9103 26.3702C16.3448 26.7668 14.9916 27.4433 13.771 28.3764C11.8871 29.7994 9.81748 31.0124 7.74784 32.2022C7.05796 32.5988 6.31503 32.8787 5.49247 32.972C3.98005 33.1352 2.86564 32.5754 1.99003 31.549C1.48589 30.9425 1.22055 30.2427 1.03482 29.4962C0.371472 26.7668 0 24.0141 0 21.2148C0 16.5259 1.35322 12.187 4.4842 8.33793C6.34156 6.05182 8.80919 4.39554 11.7014 3.25249C12.4974 2.94923 13.3199 2.69262 14.1159 2.41268ZM26.9849 14.893C26.8787 13.7033 26.799 12.2336 26.6398 10.7873C26.5073 9.5043 26.1887 8.24461 25.5255 7.07824C24.1456 4.60549 21.9434 3.29914 18.7593 3.32248C17.1408 3.3458 15.5488 3.64906 14.0363 4.1156C10.4277 5.21201 7.45597 7.10156 5.38635 9.94753C2.94525 13.2367 1.80429 16.8525 1.75123 20.7484C1.72469 23.5709 2.0431 26.3702 2.70645 29.1462C2.86564 29.7994 3.07791 30.4292 3.60858 30.9192C4.13926 31.409 4.77607 31.619 5.54554 31.409C5.94355 31.2925 6.34156 31.1524 6.6865 30.9659C8.65 29.8694 10.5604 28.7263 12.3647 27.42C13.3995 26.6735 14.4078 25.9036 15.6549 25.4839C16.6632 25.1339 17.7245 24.8538 18.7593 24.5506C20.0329 24.1773 21.3596 23.8741 22.6068 23.4077C24.9683 22.5211 26.4807 20.9816 26.7459 18.6954C26.9052 17.5057 26.9052 16.3393 26.9849 14.893ZM31.124 12.7235C31.0709 13.8199 31.0444 14.893 31.0178 15.9894C30.9913 16.5959 30.9384 17.2024 31.1506 17.7856C31.5751 18.9753 32.5303 19.5352 33.91 19.3253C34.4141 19.2553 34.9448 19.1387 35.4224 18.9754C38.58 17.9023 40.8884 15.9894 42.5601 13.4467C43.6744 11.7204 45.0543 10.1808 46.7789 8.92113C47.3627 8.50122 47.9996 8.12798 48.5831 7.70808C49.4855 7.03158 49.4855 6.72832 48.4772 6.16845C47.8668 5.84187 47.2034 5.56193 46.5402 5.35198C44.4174 4.67548 42.1885 4.4422 39.9332 4.48887C38.0228 4.53551 36.1389 4.79212 34.2816 5.18869C32.8223 5.49195 31.7874 6.21511 31.4425 7.56811C31.3629 7.89471 31.3098 8.24461 31.2833 8.59453C31.2036 9.97087 31.1771 11.3472 31.124 12.7235ZM15.9202 1.96947C15.9202 1.99279 15.9468 2.01612 15.9468 2.03944C16.0264 2.03944 16.106 2.01612 16.1856 2.01612C17.6184 1.78285 19.0777 1.68953 20.5371 1.89948C22.5803 2.17941 24.3048 2.99588 25.6315 4.37222C27.0908 5.86519 27.9135 7.61477 28.2584 9.55097C28.6564 11.7438 28.7625 13.9366 28.6829 16.1527C28.6298 17.3891 28.6298 18.6254 28.338 19.8385C28.3115 19.9085 28.3646 20.0251 28.4177 20.0951C28.6829 20.4916 29.0014 20.9115 29.2667 21.3081C29.7974 22.1014 30.2219 22.941 30.2219 23.8974C30.2219 23.9675 30.3281 24.0842 30.4077 24.1075C30.6995 24.1773 31.0444 23.9675 31.0975 23.7109C31.2567 23.1743 31.522 22.6845 31.9202 22.2645C32.0792 22.1014 32.1323 21.9146 32.0261 21.7281C31.8936 21.4947 31.7609 21.2848 31.6016 21.0749C31.2302 20.655 30.8322 20.235 30.4343 19.8385C29.6116 18.9987 29.1871 18.0189 29.2136 16.9225C29.2401 15.2662 29.3198 13.6333 29.3729 11.977C29.426 10.6241 29.426 9.24771 29.5585 7.89471C29.6912 6.61167 30.3015 5.49195 31.4954 4.6988C32.4772 4.0223 33.6182 3.71904 34.8389 3.53243C35.1041 3.48577 35.3693 3.4391 35.7144 3.39246C35.6082 3.3458 35.5817 3.32248 35.5286 3.32248C35.343 3.29914 35.1572 3.27581 34.9714 3.25249C33.7509 3.18251 32.5834 3.3458 31.4425 3.69572C29.6912 4.23225 27.9932 4.09228 26.3214 3.3458C25.95 3.15919 25.552 2.99588 25.1539 2.85591C23.2169 2.15609 21.2269 1.73619 19.1573 1.61955C18.1756 1.57289 17.2204 1.5729 16.2652 1.87616C16.159 1.85283 16.0264 1.92281 15.9202 1.96947Z"/></g><defs><clipPath id="clip0_2917_2904"><rect width="51" height="33" fill="#fff"/></clipPath></defs></svg>
