<svg width="28" height="32" viewBox="0 0 28 32" fill="none" xmlns="http://www.w3.org/2000/svg">
<path fill-rule="evenodd" clip-rule="evenodd" d="M13.9998 8C11.0543 8 8.6665 10.3878 8.6665 13.3333C8.6665 16.2789 11.0543 18.6667 13.9998 18.6667C16.9454 18.6667 19.3332 16.2789 19.3332 13.3333C19.3332 10.3878 16.9454 8 13.9998 8ZM11.3332 13.3333C11.3332 11.8606 12.5271 10.6667 13.9998 10.6667C15.4726 10.6667 16.6665 11.8606 16.6665 13.3333C16.6665 14.8061 15.4726 16 13.9998 16C12.5271 16 11.3332 14.8061 11.3332 13.3333Z" fill="#F8FAFC"/>
<path fill-rule="evenodd" clip-rule="evenodd" d="M13.2595 31.7756C13.2599 31.7758 13.2602 31.7761 13.9998 30.6667L13.2595 31.7756C13.7074 32.0742 14.2916 32.0746 14.7394 31.7761L13.9998 30.6667C14.7394 31.7761 14.7391 31.7763 14.7394 31.7761L14.744 31.773L14.7529 31.7671L14.7834 31.7464C14.8094 31.7288 14.8464 31.7035 14.8938 31.6707C14.9885 31.6051 15.1246 31.5095 15.2961 31.3856C15.6391 31.1379 16.1247 30.7763 16.7054 30.3139C17.8647 29.3907 19.414 28.0571 20.9678 26.417C24.0208 23.1943 27.3332 18.5359 27.3332 13.3333C27.3332 9.79711 25.9284 6.40573 23.4279 3.90524C20.9274 1.40476 17.5361 0 13.9998 0C10.4636 0 7.07223 1.40476 4.57175 3.90524C2.07126 6.40573 0.666504 9.79711 0.666504 13.3333C0.666504 18.5359 3.97885 23.1943 7.0319 26.417C8.58569 28.0571 10.1349 29.3907 11.2943 30.3139C11.875 30.7763 12.3606 31.1379 12.7036 31.3856C12.8751 31.5095 13.0112 31.6051 13.1059 31.6707C13.1533 31.7035 13.1903 31.7288 13.2163 31.7464L13.2468 31.7671L13.2557 31.773L13.2595 31.7756ZM6.45736 5.79086C8.45775 3.79047 11.1709 2.66667 13.9998 2.66667C16.8288 2.66667 19.5419 3.79047 21.5423 5.79086C23.5427 7.79125 24.6665 10.5044 24.6665 13.3333C24.6665 17.4641 21.9789 21.4723 19.0319 24.583C17.5857 26.1096 16.1349 27.3593 15.0443 28.2278C14.6384 28.551 14.2838 28.8203 13.9998 29.0301C13.7159 28.8203 13.3613 28.551 12.9554 28.2278C11.8647 27.3593 10.414 26.1096 8.96777 24.583C6.02082 21.4723 3.33317 17.4641 3.33317 13.3333C3.33317 10.5044 4.45698 7.79125 6.45736 5.79086Z" fill="#F8FAFC"/>
</svg>
