<svg width="100%" height="100%" viewBox="0 0 162 128" fill="none" xmlns="http://www.w3.org/2000/svg">
<path d="M58.3487 52.2448L57.3205 52.9831L57.3205 54.2739C57.3205 76.4009 51.8578 85.6508 45.9864 89.1162C40.0228 92.6359 32.4398 90.9294 26.4524 88.134C24.0719 87.0226 21.923 84.665 20.1833 81.1314C18.4532 77.6172 17.2344 73.145 16.6141 68.1903C15.3698 58.2516 16.5917 46.865 20.3547 38.2672C24.1051 29.6981 31.0785 22.2898 38.5883 17.7359C46.2154 13.1109 53.7311 11.7952 58.7952 14.1596C64.6436 16.8901 70.6815 22.1177 72.2864 28.4799C73.7943 34.4578 71.6381 42.7032 58.3487 52.2448Z" stroke="#F8FAFC" stroke-width="5"/>
<path d="M42.113 49.9308C79.8133 59.8635 70.4018 62.2974 72.68 124" stroke="#F8FAFC" stroke-width="6" stroke-linecap="round"/>
<path d="M69.6133 42.2774C58.5726 54.3143 56.0381 54.718 51.8256 42.2774" stroke="#F8FAFC" stroke-width="4" stroke-linecap="round"/>
<path d="M48.1445 65.0839C54.8916 51.1468 65.4 52.6433 69.6125 65.0839" stroke="#F8FAFC" stroke-width="5" stroke-linecap="round"/>
<path d="M103.651 52.2448L104.68 52.9831L104.68 54.2739C104.68 76.4009 110.142 85.6508 116.014 89.1162C121.977 92.6359 129.56 90.9294 135.548 88.134C137.928 87.0226 140.077 84.665 141.817 81.1314C143.547 77.6172 144.766 73.145 145.386 68.1903C146.63 58.2516 145.408 46.865 141.645 38.2672C137.895 29.6981 130.922 22.2898 123.412 17.7359C115.785 13.1109 108.269 11.7952 103.205 14.1596C97.3564 16.8901 91.3185 22.1177 89.7136 28.4799C88.2057 34.4578 90.3619 42.7032 103.651 52.2448Z" stroke="#F8FAFC" stroke-width="5"/>
<path d="M119.887 49.9308C82.1867 59.8635 91.5982 62.2974 89.32 124" stroke="#F8FAFC" stroke-width="6" stroke-linecap="round"/>
<path d="M92.3867 42.2774C103.427 54.3143 105.962 54.718 110.174 42.2774" stroke="#F8FAFC" stroke-width="4" stroke-linecap="round"/>
<path d="M113.855 65.0839C107.108 51.1468 96.6 52.6433 92.3875 65.0839" stroke="#F8FAFC" stroke-width="5" stroke-linecap="round"/>
</svg>
