<svg width="100%" height="100%" viewBox="0 0 104 128" fill="none" xmlns="http://www.w3.org/2000/svg">
<path fill-rule="evenodd" clip-rule="evenodd" d="M77.3455 34.0808C75.6934 34.0692 74.2056 34.8695 72.5683 36.6254C71.0252 38.2803 69.6287 40.4745 68.0368 42.9757L68.0367 42.9757C67.888 43.2094 67.7376 43.4457 67.5852 43.6845C65.8774 46.3607 63.9339 49.3217 61.5211 51.593C59.0757 53.8948 56.0225 55.609 52.1133 55.6528C52.0887 55.6536 52.064 55.6539 52.0392 55.6539C52.0134 55.6539 51.9877 55.6538 51.9619 55.6537C51.9612 55.6537 51.9605 55.6537 51.9598 55.6537C51.947 55.6537 51.9343 55.6536 51.9215 55.6534C47.9952 55.6197 44.9308 53.902 42.478 51.5932C40.0651 49.3219 38.1216 46.3609 36.4138 43.6847C36.2616 43.4462 36.1114 43.2101 35.9628 42.9768L35.9623 42.9759C34.3704 40.4747 32.9739 38.2806 31.4308 36.6257C29.7935 34.8697 28.3056 34.0695 26.6535 34.081C21.6549 34.1161 18.2159 35.9407 15.8203 39.3152C13.312 42.8483 11.7758 48.3282 11.3497 55.9358L11.3107 56.6318L10.9173 57.2071C6.29111 63.9728 5.43644 67.8767 5.87017 70.9241C6.09604 72.5111 6.69598 74.0591 7.61802 75.8567C8.17407 76.9407 8.76334 77.9675 9.41711 79.1067L9.41723 79.1069C9.91807 79.9796 10.4568 80.9183 11.0474 81.9992L11.3535 82.5595V83.198C11.3535 93.5528 13.81 98.8514 16.8159 101.44C19.7941 104.005 23.9814 104.478 28.8653 103.544C33.7191 102.616 38.7685 100.379 42.8772 98.2172C44.9145 97.1454 46.6856 96.1111 48.0515 95.2959C48.3707 95.1054 48.6858 94.916 48.9764 94.7413C49.2821 94.5575 49.5608 94.39 49.7889 94.2544C49.9972 94.1307 50.2197 93.9993 50.4336 93.8795C50.8798 93.5363 51.4332 93.3511 51.9997 93.3599C52.566 93.3512 53.1193 93.5364 53.5653 93.8794C53.7793 93.9992 54.0018 94.1306 54.2101 94.2544C54.438 94.3898 54.7163 94.5571 55.0216 94.7407L55.0225 94.7412L55.0261 94.7433C55.3158 94.9175 55.6296 95.1062 55.9476 95.2959C57.3134 96.1111 59.0846 97.1454 61.1218 98.2171C65.2305 100.379 70.28 102.616 75.1337 103.544C80.0176 104.478 84.2049 104.005 87.1831 101.44C90.189 98.8512 92.6455 93.5526 92.6455 83.1978V82.5593L92.9516 81.999C93.5423 80.9181 94.081 79.9794 94.5818 79.1067C95.2356 77.9674 95.8249 76.9406 96.381 75.8564C97.3031 74.0589 97.903 72.5109 98.1289 70.9239C98.5626 67.8765 97.7079 63.9726 93.0817 57.2069L92.6883 56.6315L92.6493 55.9356C92.2233 48.328 90.687 42.848 88.1788 39.315C85.7831 35.9405 82.3442 34.1158 77.3455 34.0808ZM51.9995 98.758C52.1354 98.8394 52.2779 98.9251 52.4298 99.0165C52.7106 99.1854 53.0235 99.3735 53.3851 99.5894C54.7861 100.426 56.6436 101.511 58.7939 102.642C63.0604 104.887 68.6221 107.389 74.1943 108.455C79.7364 109.515 85.7898 109.238 90.4459 105.229C94.9821 101.322 97.5423 94.4247 97.6424 83.847C98.0232 83.1624 98.4206 82.4675 98.8147 81.7785C99.5385 80.5127 100.251 79.2664 100.83 78.1384C101.868 76.1142 102.741 74.0001 103.079 71.6285C103.753 66.8901 102.202 61.8395 97.5994 54.9616C97.0973 47.2802 95.4637 40.9391 92.2558 36.4206C88.8392 31.608 83.8239 29.1261 77.3805 29.0809C73.7702 29.0557 71.0392 30.9336 68.9113 33.2156C67.0334 35.2296 65.3829 37.8278 63.8546 40.2336L63.8545 40.2337L63.8542 40.2342C63.6916 40.4902 63.5303 40.7441 63.3703 40.9948C61.6306 43.721 59.9905 46.167 58.094 47.9522C56.2661 49.6728 54.3366 50.6492 51.976 50.6537C49.6368 50.6364 47.7208 49.6616 45.905 47.9524C44.0085 46.1672 42.3685 43.7212 40.6287 40.995C40.4687 40.7441 40.3073 40.4902 40.1446 40.234C38.6162 37.8281 36.9657 35.2299 35.0877 33.2158C32.9598 30.9338 30.2288 29.0559 26.6185 29.0812C20.1751 29.1263 15.1598 31.6083 11.7432 36.4208C8.53535 40.9393 6.90177 47.2804 6.39963 54.9618C1.79659 61.8397 0.24565 66.8903 0.920058 71.6287C1.25761 74.0003 2.13085 76.1144 3.16914 78.1386C3.74773 79.2666 4.4605 80.513 5.18435 81.7787C5.57844 82.4678 5.97581 83.1626 6.35659 83.8472C6.45674 94.425 9.01693 101.322 13.5532 105.229C18.2092 109.238 24.2627 109.515 29.8047 108.455C35.3769 107.389 40.9387 104.887 45.2052 102.642C47.3555 101.511 49.2129 100.426 50.614 99.5894C50.9756 99.3736 51.2884 99.1854 51.5692 99.0166C51.7211 98.9252 51.8637 98.8394 51.9995 98.758Z" fill="#F8FAFC"/>
<path fill-rule="evenodd" clip-rule="evenodd" d="M27.6224 6.82139C27.6232 6.83963 27.6243 6.85956 27.6259 6.88128C27.6519 7.24505 27.7788 7.82325 28.0819 8.6805C28.6497 10.2864 29.6178 12.2944 30.8282 14.8047L31.1052 15.3796C33.491 20.3325 36.5346 26.7786 37.9454 33.9237H66.9114C68.3381 26.8542 71.3491 20.4784 73.7137 15.5693L73.9908 14.9944C75.2011 12.4841 76.1692 10.4761 76.737 8.87022C77.0401 8.01297 77.167 7.43476 77.193 7.071C77.1945 7.04928 77.1957 7.02934 77.1965 7.01111C77.1182 6.96338 76.9978 6.8989 76.8207 6.82517C76.3682 6.63674 75.7241 6.46241 74.8895 6.32843C73.2241 6.06104 71.113 6.0023 68.9569 6.10782C66.8108 6.21285 64.7249 6.47524 63.1358 6.80448C62.3352 6.97035 61.7188 7.14137 61.3055 7.2944L61.2964 7.29778C61.2789 7.39724 61.2604 7.52728 61.2444 7.69392C61.1831 8.32895 61.1838 9.11808 61.1866 10.1706L61.1869 10.2817C61.1925 12.2175 61.2002 14.8956 60.4145 17.3612C59.6917 19.6294 58.0616 21.1844 56.7767 22.1371C55.5638 23.0364 54.3926 23.589 53.9912 23.7784L53.96 23.7931C53.3572 24.1906 52.5948 24.3137 51.8672 24.0615C51.0341 23.7727 49.5764 23.1096 48.157 22.0637C46.7663 21.0389 45.1259 19.4357 44.4044 17.1715C43.6187 14.7059 43.6264 12.0278 43.6319 10.092L43.6323 9.98089C43.6351 8.92837 43.6358 8.13923 43.5745 7.50421C43.5584 7.33757 43.5399 7.20753 43.5225 7.10807L43.5134 7.10469C43.1001 6.95165 42.4837 6.78064 41.6831 6.61477C40.094 6.28552 38.0081 6.02313 35.862 5.91811C33.7058 5.81259 31.5948 5.87132 29.9293 6.13871C29.0948 6.2727 28.4507 6.44703 27.9981 6.63545C27.821 6.70918 27.7007 6.77366 27.6224 6.82139ZM71.4716 36.2787C72.6121 29.4635 75.5531 23.1524 78.0994 17.8661C78.2043 17.6483 78.309 17.4313 78.4132 17.2154L78.4211 17.1991C79.5772 14.8032 80.6713 12.5358 81.3395 10.646C81.7066 9.60767 82.0072 8.51912 82.0821 7.46988C82.1578 6.41037 82.0185 5.13211 81.215 4.01986C80.5126 3.04764 79.5126 2.46488 78.6268 2.09608C77.708 1.71354 76.6684 1.46136 75.6176 1.29266C73.5125 0.954665 71.0466 0.903298 68.7053 1.01788C66.3538 1.13296 64.0215 1.42087 62.1575 1.80705C61.2315 1.9989 60.3626 2.22688 59.6426 2.4935C59.2839 2.62631 58.9105 2.78749 58.5656 2.98664C58.2604 3.16282 57.7771 3.48051 57.3961 4.00692C56.6572 5.02801 56.4524 6.27126 56.3662 7.16405C56.2781 8.07812 56.2811 9.11227 56.2838 10.0479L56.2841 10.1631C56.2898 12.2552 56.2686 14.144 55.7599 15.7404C55.5093 16.5269 54.8434 17.2985 53.9181 17.9846C53.4222 18.3523 52.9375 18.6341 52.5454 18.8404C52.0881 18.6122 51.5406 18.298 51.0038 17.9025C49.9954 17.1594 49.3109 16.3412 49.059 15.5507C48.5503 13.9543 48.5291 12.0655 48.5348 9.97334L48.5351 9.85816C48.5378 8.92256 48.5408 7.8884 48.4526 6.97434C48.3665 6.08154 48.1617 4.8383 47.4227 3.8172C47.0418 3.29079 46.5584 2.97311 46.2533 2.79693C45.9083 2.59777 45.535 2.43659 45.1763 2.30378C44.4562 2.03717 43.5874 1.80919 42.6614 1.61734C40.7974 1.23115 38.4651 0.943242 36.1136 0.828164C33.7722 0.713582 31.3064 0.764949 29.2013 1.10294C28.1505 1.27164 27.1109 1.52383 26.1921 1.90637C25.3062 2.27516 24.3062 2.85793 23.6039 3.83015C22.8003 4.9424 22.6611 6.22066 22.7368 7.28017C22.8117 8.3294 23.1123 9.41796 23.4794 10.4563C24.1476 12.3461 25.2417 14.6135 26.3978 17.0093L26.3978 17.0093L26.3991 17.012C26.5054 17.2324 26.6123 17.454 26.7195 17.6764C29.3407 23.1183 32.3803 29.6462 33.4433 36.6922C33.645 38.0287 34.8133 38.9538 36.0926 38.8228C36.3163 38.8885 36.5531 38.9237 36.798 38.9237H68.2805C68.3759 38.9523 68.4739 38.9752 68.5743 38.992C69.5492 39.1552 70.4798 38.6975 70.9939 37.8994C71.2968 37.4858 71.4757 36.9757 71.4757 36.4237C71.4757 36.375 71.4743 36.3267 71.4716 36.2787ZM43.8586 7.25391C43.8803 7.26644 43.8763 7.26624 43.8541 7.25138L43.8586 7.25391ZM27.6252 6.6653C27.6258 6.6605 27.6263 6.65826 27.6264 6.65834C27.6265 6.65841 27.6261 6.66081 27.6252 6.6653ZM60.9603 7.44363C60.9386 7.45615 60.9426 7.45595 60.9648 7.4411L60.9603 7.44363ZM77.1937 6.85502C77.1931 6.85022 77.1926 6.84797 77.1925 6.84805C77.1924 6.84813 77.1928 6.85053 77.1937 6.85502Z" fill="#F8FAFC"/>
<rect x="37.6035" y="111.128" width="29.718" height="14.3719" rx="7.18596" stroke="#F8FAFC" stroke-width="5"/>
<path d="M36.7969 103.785C37.4761 110.435 42.7243 109.949 52.8857 109.949C63.0471 109.949 67.9202 110.288 68.9745 103.785" stroke="#F8FAFC" stroke-width="5"/>
<path d="M21.5547 61.0788C27.5025 65.6728 30.8397 65.8762 36.7967 61.0788" stroke="#F8FAFC" stroke-width="5" stroke-linecap="round"/>
<path d="M68.9746 85.734C74.9224 90.328 78.2596 90.5314 84.2167 85.734" stroke="#F8FAFC" stroke-width="5" stroke-linecap="round"/>
<path d="M21.5547 84.8535C27.5025 89.4474 30.8397 89.6508 36.7967 84.8535" stroke="#F8FAFC" stroke-width="5" stroke-linecap="round"/>
<path d="M46.1113 71.6453C52.0591 76.2393 55.3964 76.4427 61.3534 71.6453" stroke="#F8FAFC" stroke-width="5" stroke-linecap="round"/>
<path d="M69.8223 61.0788C75.77 65.6728 79.1073 65.8762 85.0643 61.0788" stroke="#F8FAFC" stroke-width="5" stroke-linecap="round"/>
</svg>
