<svg xmlns="http://www.w3.org/2000/svg" width="109" height="108" fill="none" viewBox="0 0 109 108"><path fill="#4CAEB9" fill-rule="evenodd" d="M28.7429 28.6479C35.9072 21.5493 44.493 18 54.5003 18C64.5077 18 73.065 21.5211 80.1725 28.5634C87.28 35.6057 90.8337 44.0845 90.8337 54C90.8337 63.9155 87.28 72.3943 80.1725 79.4366C73.065 86.4789 64.5077 90 54.5003 90C44.493 90 35.9357 86.4789 28.8282 79.4366C21.7207 72.3943 18.167 63.9155 18.167 54C18.167 44.0845 21.6923 35.6338 28.7429 28.6479Z" clip-rule="evenodd"/><path fill="#F8FAFC" fill-rule="evenodd" d="M55.0003 46C52.0548 46 49.667 48.3878 49.667 51.3333C49.667 54.2789 52.0548 56.6667 55.0003 56.6667C57.9458 56.6667 60.3337 54.2789 60.3337 51.3333C60.3337 48.3878 57.9458 46 55.0003 46ZM52.3337 51.3333C52.3337 49.8606 53.5276 48.6667 55.0003 48.6667C56.4731 48.6667 57.667 49.8606 57.667 51.3333C57.667 52.8061 56.4731 54 55.0003 54C53.5276 54 52.3337 52.8061 52.3337 51.3333Z" clip-rule="evenodd"/><path fill="#F8FAFC" fill-rule="evenodd" d="M54.26 69.7756C54.2604 69.7758 54.2607 69.7761 55.0003 68.6667L54.26 69.7756C54.7079 70.0742 55.2921 70.0746 55.7399 69.7761L55.0003 68.6667C55.7399 69.7761 55.7395 69.7763 55.7399 69.7761L55.7445 69.773L55.7533 69.7671L55.7839 69.7464C55.8099 69.7288 55.8469 69.7035 55.8942 69.6707C55.989 69.6051 56.125 69.5095 56.2966 69.3856C56.6396 69.1379 57.1252 68.7763 57.7059 68.3139C58.8652 67.3907 60.4145 66.0571 61.9683 64.417C65.0213 61.1943 68.3337 56.5359 68.3337 51.3333C68.3337 47.7971 66.9289 44.4057 64.4284 41.9052C61.9279 39.4048 58.5365 38 55.0003 38C51.4641 38 48.0727 39.4048 45.5722 41.9052C43.0717 44.4057 41.667 47.7971 41.667 51.3333C41.667 56.5359 44.9793 61.1943 48.0324 64.417C49.5862 66.0571 51.1354 67.3907 52.2948 68.3139C52.8755 68.7763 53.3611 69.1379 53.704 69.3856C53.8756 69.5095 54.0117 69.6051 54.1064 69.6707C54.1538 69.7035 54.1908 69.7288 54.2168 69.7464L54.2473 69.7671L54.2562 69.773L54.26 69.7756ZM47.4579 43.7909C49.4582 41.7905 52.1714 40.6667 55.0003 40.6667C57.8293 40.6667 60.5424 41.7905 62.5428 43.7909C64.5432 45.7912 65.667 48.5044 65.667 51.3333C65.667 55.4641 62.9793 59.4723 60.0324 62.583C58.5862 64.1096 57.1354 65.3593 56.0448 66.2278C55.6388 66.551 55.2843 66.8203 55.0003 67.0301C54.7164 66.8203 54.3618 66.551 53.9559 66.2278C52.8652 65.3593 51.4145 64.1096 49.9683 62.583C47.0213 59.4723 44.3337 55.4641 44.3337 51.3333C44.3337 48.5044 45.4575 45.7912 47.4579 43.7909Z" clip-rule="evenodd"/></svg>