<svg xmlns="http://www.w3.org/2000/svg" xmlns:xlink="http://www.w3.org/1999/xlink" width="100%" zoomAndPan="magnify"
  viewBox="0 0 750 749.999995" height="100%" preserveAspectRatio="xMidYMid meet" version="1.0">
  <defs>
    <clipPath id="5e140b5694">
      <path d="M 75 24 L 637.5 24 L 637.5 722 L 75 722 Z M 75 24 " clip-rule="nonzero" />
    </clipPath>
  </defs>
  <g clip-path="url(#5e140b5694)">
    <path fill="#ffffff"
      d="M 607.785156 182.878906 C 624.90625 180.640625 637.804688 166.230469 637.804688 149.359375 C 637.804688 139.6875 633.640625 130.46875 626.355469 124.089844 C 618.972656 117.59375 609.125 114.609375 599.273438 115.882812 C 552.40625 121.984375 508.898438 143.472656 475.503906 176.8125 C 473.320312 174.605469 471.058594 172.445312 468.761719 170.316406 C 484.171875 154.816406 496.472656 136.257812 504.644531 115.984375 C 508.515625 106.394531 507.886719 95.632812 502.945312 86.457031 C 497.925781 77.160156 489.113281 70.644531 478.777344 68.574219 C 463.59375 65.554688 448.375 74.179688 442.648438 89.136719 C 436.128906 106.167969 424.589844 121.230469 409.847656 132.101562 C 397.902344 126.945312 385.769531 122.953125 373.828125 120.226562 C 350.3125 114.351562 333.890625 93.3125 333.890625 69.078125 L 333.890625 57.824219 C 333.890625 39.207031 318.738281 24.054688 300.121094 24.054688 C 281.503906 24.054688 266.355469 39.207031 266.355469 57.824219 L 266.355469 69.078125 C 266.355469 124.378906 304.015625 172.398438 358.160156 185.917969 C 418.894531 199.742188 462.917969 250.753906 467.691406 312.863281 C 468.546875 324.050781 469.1875 335.320312 469.953125 346.542969 C 445.484375 321.339844 426.683594 291.984375 414.316406 259.003906 C 404.535156 232.933594 379.253906 215.410156 351.40625 215.410156 C 329.757812 215.410156 309.316406 225.933594 296.746094 243.550781 C 271.261719 279.21875 240.035156 309.902344 203.90625 334.734375 L 165.5 361.140625 C 108.835938 400.097656 75 464.40625 75 533.167969 C 75 618.636719 144.527344 688.164062 229.996094 688.164062 C 284.136719 688.164062 335.0625 659.328125 362.910156 612.917969 C 380.75 583.179688 390.183594 549.140625 390.183594 514.460938 C 390.183594 501.683594 388.402344 488.988281 384.902344 476.742188 L 369.550781 422.980469 C 368.300781 418.625 367.667969 414.136719 367.667969 409.632812 C 367.667969 402.125 369.4375 394.617188 372.800781 387.898438 L 382.730469 368.042969 C 383.125 367.242188 383.417969 366.398438 383.777344 365.585938 C 410.734375 378.015625 434.394531 396.710938 452.664062 420.214844 L 475.851562 450.019531 C 478.65625 513.007812 480.230469 576.109375 480.230469 638.796875 L 480.230469 721.933594 L 502.742188 721.933594 L 502.742188 638.796875 C 502.742188 529.902344 498.511719 419.660156 490.160156 311.140625 C 484.609375 239.136719 433.585938 179.996094 363.390625 164.023438 C 319.527344 153.0625 288.878906 114.023438 288.878906 69.078125 L 288.878906 57.824219 C 288.878906 51.621094 293.917969 46.566406 300.132812 46.566406 C 306.347656 46.566406 311.390625 51.621094 311.390625 57.824219 L 311.390625 69.078125 C 311.390625 103.667969 334.824219 133.691406 368.613281 142.132812 C 381.210938 145 393.875 149.390625 406.253906 155.167969 C 409.765625 156.808594 413.875 156.527344 417.128906 154.433594 C 438.222656 140.835938 454.757812 120.496094 463.683594 97.1875 C 465.507812 92.4375 469.964844 89.757812 474.378906 90.644531 C 478.136719 91.398438 481.332031 93.765625 483.15625 97.152344 C 484.191406 99.066406 485.644531 102.960938 483.789062 107.5625 C 475.34375 128.5 461.792969 147.34375 444.617188 162.042969 C 442.082031 164.214844 440.632812 167.390625 440.675781 170.722656 C 440.722656 174.054688 442.242188 177.207031 444.820312 179.308594 C 452.921875 185.917969 460.386719 193.097656 467.003906 200.640625 C 469.121094 203.0625 472.195312 204.457031 475.414062 204.480469 L 475.46875 204.480469 C 478.667969 204.480469 481.726562 203.117188 483.867188 200.730469 C 514.59375 166.332031 556.625 144.136719 602.203125 138.203125 C 605.578125 137.742188 609 138.777344 611.53125 140.996094 C 613.976562 143.132812 615.316406 146.105469 615.316406 149.347656 C 615.316406 155.042969 610.925781 159.757812 604.878906 160.546875 C 560.878906 166.320312 520.101562 189.765625 492.984375 224.886719 C 490.292969 228.363281 489.878906 233.082031 491.902344 236.976562 C 503.6875 259.53125 510.644531 283.902344 512.613281 309.417969 C 521.011719 418.511719 525.265625 529.339844 525.265625 638.808594 L 525.265625 721.945312 L 547.777344 721.945312 L 547.777344 638.808594 C 547.777344 528.765625 543.5 417.367188 535.058594 307.699219 C 533.042969 281.628906 526.378906 256.605469 515.191406 233.226562 C 538.59375 205.796875 571.96875 187.574219 607.808594 182.878906 Z M 473.972656 410.972656 L 470.425781 406.414062 C 449.175781 379.074219 421.382812 357.597656 389.753906 343.683594 C 390 341.296875 390.183594 338.898438 390.183594 336.492188 C 390.183594 321.328125 385.171875 306.289062 376.066406 294.15625 L 354.164062 264.945312 L 336.152344 278.453125 L 358.058594 307.664062 C 364.257812 315.925781 367.667969 326.167969 367.667969 336.492188 C 367.667969 343.910156 365.914062 351.335938 362.59375 357.976562 L 352.664062 377.84375 C 347.746094 387.671875 345.15625 398.667969 345.15625 409.644531 C 345.15625 416.238281 346.082031 422.8125 347.894531 429.183594 L 363.246094 482.945312 C 366.183594 493.1875 367.667969 503.800781 367.667969 514.472656 C 367.667969 545.066406 359.351562 575.109375 343.605469 601.335938 C 319.796875 641.011719 276.269531 665.652344 229.996094 665.652344 C 156.957031 665.652344 97.511719 606.21875 97.511719 533.167969 C 97.511719 471.824219 127.699219 414.449219 178.253906 379.691406 L 216.65625 353.285156 C 254.949219 326.957031 288.066406 294.4375 315.058594 256.628906 C 323.421875 244.910156 337.019531 237.921875 351.40625 237.921875 C 369.921875 237.921875 386.738281 249.570312 393.230469 266.90625 C 407.191406 304.105469 428.496094 337.199219 456.570312 365.273438 L 472.273438 380.976562 C 472.878906 390.96875 473.433594 400.953125 473.960938 410.960938 Z M 473.972656 410.972656 "
      fill-opacity="1" fill-rule="nonzero" />
  </g>
  <path fill="#ffffff"
    d="M 191.015625 398.253906 C 146.566406 428.8125 120.023438 479.25 120.023438 533.179688 C 120.023438 549.726562 123.613281 565.640625 130.71875 580.476562 L 151.035156 570.761719 C 145.394531 558.988281 142.535156 546.347656 142.535156 533.191406 C 142.535156 486.679688 165.421875 443.164062 203.757812 416.8125 L 221.226562 404.804688 L 208.476562 386.253906 L 191.003906 398.265625 Z M 191.015625 398.253906 "
    fill-opacity="1" fill-rule="nonzero" />
  <path stroke-linecap="butt"
    transform="matrix(0.75, 0.000000000000000948, -0.000000000000000948, 0.75, 480.485475, 706.525882)" fill="none"
    stroke-linejoin="miter" d="M -0.00146698 13.00195 L 89.982912 13.00195 " stroke="#ffffff" stroke-width="26"
    stroke-opacity="1" stroke-miterlimit="4" />
</svg>
