<svg width="100%" height="100%" viewBox="0 0 19 19" fill="none" xmlns="http://www.w3.org/2000/svg">
<g clip-path="url(#clip0_3834_4949)">
<path d="M15.4741 2.64469C13.7719 0.938438 11.505 0 9.09594 0C4.12344 0 0.0771873 4.04624 0.0771873 9.01875C0.0771873 10.6072 0.491563 12.1591 1.27969 13.5281L0 18.2L4.78156 16.9447C6.0978 17.6637 7.58064 18.0415 9.09189 18.0415H9.09594C14.0644 18.0415 18.2 13.9953 18.2 9.0228C18.2 6.61377 17.1763 4.35094 15.4741 2.64469ZM9.09594 16.5222C7.74717 16.5222 6.42688 16.1606 5.2772 15.4781L5.005 15.3156L2.16938 16.0591L2.925 13.2925L2.74625 13.0081C1.99469 11.8137 1.60063 10.4366 1.60063 9.01875C1.60063 4.88719 4.96439 1.52344 9.1 1.52344C11.1028 1.52344 12.9838 2.30344 14.3975 3.72125C15.8113 5.13907 16.6806 7.02001 16.6765 9.0228C16.6765 13.1584 13.2275 16.5222 9.09594 16.5222ZM13.2072 10.9078C12.9838 10.7941 11.8747 10.2497 11.6675 10.1766C11.4603 10.0994 11.31 10.0628 11.1597 10.2903C11.0094 10.5178 10.5788 11.0216 10.4447 11.1759C10.3147 11.3262 10.1806 11.3466 9.95718 11.2328C8.63283 10.5706 7.76344 10.0506 6.88999 8.55157C6.65843 8.15345 7.12155 8.18189 7.5522 7.32061C7.62531 7.17031 7.58876 7.04033 7.53188 6.92658C7.47501 6.81283 7.02406 5.70377 6.83717 5.25282C6.65438 4.81405 6.46748 4.87498 6.32939 4.86687C6.19938 4.85876 6.04907 4.85876 5.89873 4.85876C5.74843 4.85876 5.5047 4.91563 5.29749 5.13907C5.09031 5.36657 4.50939 5.91094 4.50939 7.02001C4.50939 8.12907 5.31781 9.20158 5.42751 9.35188C5.54126 9.50218 7.01595 11.7772 9.27874 12.7563C10.7088 13.3737 11.2694 13.4266 11.9844 13.3209C12.4191 13.2559 13.3169 12.7766 13.5038 12.2484C13.6906 11.7203 13.6906 11.2694 13.6337 11.1759C13.581 11.0744 13.4306 11.0175 13.2072 10.9078Z" fill="#F8FAFC"/>
</g>
<defs>
<clipPath id="clip0_3834_4949">
<rect width="18.2" height="18.2" fill="white"/>
</clipPath>
</defs>
</svg>
