<svg width="96" height="96" viewBox="0 0 96 96" fill="none" xmlns="http://www.w3.org/2000/svg">
<rect width="96" height="96" rx="48" fill="#4ED999"/>
<path d="M64.8107 30.975C60.3214 26.475 54.3429 24 47.9893 24C34.875 24 24.2036 34.6714 24.2036 47.7857C24.2036 51.975 25.2964 56.0679 27.375 59.6786L24 72L36.6107 68.6893C40.0821 70.5857 43.9929 71.5821 47.9786 71.5821H47.9893C61.0929 71.5821 72 60.9107 72 47.7964C72 41.4429 69.3 35.475 64.8107 30.975ZM47.9893 67.575C44.4321 67.575 40.95 66.6214 37.9179 64.8214L37.2 64.3929L29.7214 66.3536L31.7143 59.0571L31.2429 58.3071C29.2607 55.1571 28.2214 51.525 28.2214 47.7857C28.2214 36.8893 37.0929 28.0179 48 28.0179C53.2821 28.0179 58.2429 30.075 61.9714 33.8143C65.7 37.5536 67.9929 42.5143 67.9821 47.7964C67.9821 58.7036 58.8857 67.575 47.9893 67.575ZM58.8321 52.7679C58.2429 52.4679 55.3179 51.0321 54.7714 50.8393C54.225 50.6357 53.8286 50.5393 53.4321 51.1393C53.0357 51.7393 51.9 53.0679 51.5464 53.475C51.2036 53.8714 50.85 53.925 50.2607 53.625C46.7679 51.8786 44.475 50.5071 42.1714 46.5536C41.5607 45.5036 42.7821 45.5786 43.9179 43.3071C44.1107 42.9107 44.0143 42.5679 43.8643 42.2679C43.7143 41.9679 42.525 39.0429 42.0321 37.8536C41.55 36.6964 41.0571 36.8571 40.6929 36.8357C40.35 36.8143 39.9536 36.8143 39.5571 36.8143C39.1607 36.8143 38.5179 36.9643 37.9714 37.5536C37.425 38.1536 35.8929 39.5893 35.8929 42.5143C35.8929 45.4393 38.025 48.2679 38.3143 48.6643C38.6143 49.0607 42.5036 55.0607 48.4714 57.6429C52.2429 59.2714 53.7214 59.4107 55.6071 59.1321C56.7536 58.9607 59.1214 57.6964 59.6143 56.3036C60.1071 54.9107 60.1071 53.7214 59.9571 53.475C59.8179 53.2071 59.4214 53.0571 58.8321 52.7679Z" fill="#C9EEF2"/>
</svg>
