<svg width="100%" height="100%" viewBox="0 0 129 139" fill="none" xmlns="http://www.w3.org/2000/svg">
<path d="M64.127 27.9268L64.0129 136.993" stroke="#E3C17A" stroke-width="4" stroke-linecap="round"/>
<path d="M64.1784 42.177C57.1711 62.7031 35.1591 63.1649 30.8272 71.946C26.4953 80.7271 17.6506 116.813 17.6506 116.813" stroke="#E3C17A" stroke-width="4" stroke-linecap="round"/>
<path d="M64.3743 41.8781C71.3816 62.4043 93.3937 62.8661 97.7256 71.6472C102.057 80.4283 110.902 116.514 110.902 116.514" stroke="#E3C17A" stroke-width="4" stroke-linecap="round"/>
<path d="M42.0395 92.3703C42.7592 93.2124 44.0151 93.3077 44.8445 92.5831C45.674 91.8585 45.7629 90.5884 45.0432 89.7463L42.0395 92.3703ZM62.0816 61.3883C62.0494 62.1644 61.4162 63.291 59.5861 64.7994C57.8431 66.236 55.4586 67.6634 52.8468 69.1455C50.2998 70.5908 47.5225 72.095 45.2457 73.5997C43.0508 75.0503 40.87 76.7763 39.9155 78.8391L43.5184 80.5572C43.9487 79.6274 45.2189 78.4319 47.4303 76.9705C49.5597 75.5633 52.1441 74.1651 54.8033 72.6562C57.3977 71.184 60.0641 69.6052 62.1057 67.9225C64.0603 66.3115 65.9456 64.2053 66.055 61.5739L62.0816 61.3883ZM39.9155 78.8391C38.2284 82.4845 38.8102 85.9267 39.7371 88.3434C40.2006 89.5518 40.7609 90.5377 41.2056 91.2234C41.429 91.568 41.6265 91.8417 41.773 92.0351C41.8464 92.132 41.9073 92.209 41.9526 92.2652C41.9753 92.2933 41.9941 92.3162 42.0087 92.3338C42.016 92.3426 42.0223 92.35 42.0274 92.3561C42.03 92.3592 42.0323 92.3619 42.0343 92.3642C42.0353 92.3654 42.0363 92.3665 42.0371 92.3675C42.0375 92.3681 42.0381 92.3688 42.0384 92.369C42.0389 92.3697 42.0395 92.3703 43.5413 91.0583C45.0432 89.7463 45.0437 89.747 45.0442 89.7476C45.0444 89.7477 45.0449 89.7483 45.0451 89.7486C45.0457 89.7493 45.0463 89.7499 45.0467 89.7505C45.0476 89.7515 45.0482 89.7523 45.0486 89.7527C45.0494 89.7536 45.0491 89.7533 45.0478 89.7517C45.0451 89.7486 45.0385 89.7405 45.0282 89.7278C45.0076 89.7023 44.9725 89.6581 44.9257 89.5962C44.8318 89.4723 44.692 89.2793 44.528 89.0265C44.1978 88.5173 43.7827 87.7853 43.4439 86.9018C42.7662 85.1347 42.4357 82.8967 43.5184 80.5572L39.9155 78.8391Z" fill="#E3C17A"/>
<path d="M64.209 61.4811C64.4922 68.296 83.7907 73.7131 86.5604 79.6981C89.3301 85.6831 84.736 91.0583 84.736 91.0583" stroke="#E3C17A" stroke-width="4" stroke-linecap="round"/>
<path d="M63.998 88.2965C62.3034 91.819 48.2606 99.4444 46.7942 104.759C45.3277 110.074 48.2606 115.101 48.2606 115.101" stroke="#E3C17A" stroke-width="4" stroke-linecap="round"/>
<path d="M64.1348 88.212C65.8294 91.7345 79.8722 99.3599 81.3386 104.675C82.8051 109.989 79.8722 115.016 79.8722 115.016" stroke="#E3C17A" stroke-width="4" stroke-linecap="round"/>
<path d="M52.322 134.663C52.6187 135.732 53.7184 136.363 54.7783 136.071C55.8381 135.779 56.4567 134.675 56.16 133.606L52.322 134.663ZM64.2764 111.258C62.8544 109.843 62.8543 109.843 62.8542 109.843C62.8541 109.843 62.8539 109.843 62.8537 109.844C62.8533 109.844 62.8528 109.844 62.8521 109.845C62.8509 109.846 62.8491 109.848 62.8468 109.851C62.8422 109.855 62.8357 109.862 62.8272 109.871C62.8103 109.888 62.7856 109.913 62.7536 109.946C62.6897 110.012 62.5966 110.108 62.4781 110.231C62.2412 110.478 61.9023 110.833 61.4909 111.272C60.6691 112.148 59.5537 113.363 58.3826 114.712C57.2144 116.059 55.9751 117.557 54.9126 119C53.8749 120.408 52.9113 121.888 52.3936 123.174L56.0883 124.703C56.4082 123.909 57.1178 122.764 58.1188 121.405C59.095 120.08 60.2598 118.669 61.3911 117.365C62.5195 116.064 63.5988 114.889 64.3969 114.038C64.7955 113.613 65.1228 113.27 65.3496 113.034C65.463 112.916 65.5512 112.825 65.6105 112.764C65.6402 112.733 65.6627 112.71 65.6774 112.695C65.6848 112.688 65.6903 112.682 65.6938 112.678C65.6955 112.677 65.6968 112.675 65.6975 112.675C65.6979 112.674 65.6982 112.674 65.6983 112.674C65.6984 112.674 65.6984 112.674 65.6984 112.674C65.6984 112.674 65.6983 112.674 64.2764 111.258ZM52.3936 123.174C51.3708 125.713 51.4108 128.66 51.6307 130.791C51.744 131.889 51.9134 132.843 52.0548 133.524C52.1257 133.866 52.1902 134.142 52.2379 134.337C52.2618 134.434 52.2816 134.511 52.296 134.566C52.3032 134.594 52.3091 134.616 52.3135 134.632C52.3157 134.64 52.3175 134.647 52.3189 134.652C52.3196 134.655 52.3202 134.657 52.3207 134.659C52.321 134.66 52.3212 134.66 52.3214 134.661C52.3215 134.662 52.3217 134.662 52.3217 134.662C52.3218 134.663 52.322 134.663 54.241 134.134C56.16 133.606 56.1601 133.606 56.1602 133.607C56.1602 133.607 56.1603 133.607 56.1603 133.607C56.1604 133.608 56.1605 133.608 56.1606 133.608C56.1607 133.608 56.1607 133.608 56.1606 133.608C56.1604 133.607 56.1599 133.605 56.1589 133.602C56.1571 133.595 56.1537 133.583 56.1491 133.565C56.1398 133.529 56.1252 133.473 56.1066 133.397C56.0693 133.245 56.0159 133.017 55.956 132.728C55.8356 132.148 55.691 131.333 55.5949 130.401C55.3959 128.474 55.436 126.323 56.0883 124.703L52.3936 123.174Z" fill="#E3C17A"/>
<path d="M75.6263 134.815C75.3295 135.885 74.2298 136.515 73.17 136.223C72.1101 135.931 71.4915 134.828 71.7883 133.758L75.6263 134.815ZM63.6719 111.411C65.0938 109.995 65.0939 109.995 65.0941 109.995C65.0942 109.995 65.0944 109.996 65.0946 109.996C65.095 109.996 65.0955 109.997 65.0961 109.997C65.0974 109.999 65.0992 110.001 65.1014 110.003C65.106 110.008 65.1125 110.014 65.121 110.023C65.138 110.04 65.1627 110.066 65.1947 110.099C65.2586 110.164 65.3516 110.26 65.4701 110.384C65.7071 110.63 66.046 110.985 66.4573 111.424C67.2791 112.3 68.3946 113.515 69.5656 114.865C70.7338 116.211 71.9732 117.71 73.0357 119.152C74.0734 120.561 75.0369 122.04 75.5546 123.326L71.86 124.856C71.5401 124.061 70.8304 122.916 69.8294 121.558C68.8532 120.232 67.6884 118.821 66.5572 117.517C65.4288 116.217 64.3494 115.041 63.5513 114.19C63.1527 113.765 62.8254 113.422 62.5986 113.186C62.4852 113.068 62.397 112.977 62.3377 112.916C62.308 112.886 62.2856 112.863 62.2708 112.847C62.2634 112.84 62.2579 112.834 62.2544 112.831C62.2527 112.829 62.2514 112.828 62.2507 112.827C62.2503 112.827 62.2501 112.826 62.2499 112.826C62.2499 112.826 62.2499 112.826 62.2499 112.826C62.2499 112.826 62.25 112.826 63.6719 111.411ZM75.5546 123.326C76.5775 125.866 76.5374 128.813 76.3176 130.943C76.2043 132.041 76.0348 132.995 75.8934 133.677C75.8225 134.019 75.7581 134.295 75.7103 134.489C75.6864 134.587 75.6666 134.664 75.6522 134.719C75.645 134.746 75.6391 134.768 75.6348 134.784C75.6326 134.792 75.6308 134.799 75.6293 134.804C75.6286 134.807 75.628 134.809 75.6275 134.811C75.6273 134.812 75.627 134.813 75.6268 134.813C75.6267 134.814 75.6266 134.814 75.6265 134.815C75.6264 134.815 75.6263 134.815 73.7073 134.287C71.7883 133.758 71.7882 133.759 71.7881 133.759C71.7881 133.759 71.788 133.759 71.7879 133.76C71.7878 133.76 71.7877 133.76 71.7877 133.76C71.7876 133.761 71.7876 133.761 71.7876 133.76C71.7878 133.76 71.7884 133.758 71.7893 133.754C71.7912 133.747 71.7945 133.735 71.7992 133.717C71.8085 133.682 71.823 133.625 71.8417 133.549C71.879 133.397 71.9323 133.169 71.9923 132.88C72.1126 132.3 72.2573 131.485 72.3534 130.554C72.5523 128.626 72.5123 126.475 71.86 124.856L75.5546 123.326Z" fill="#E3C17A"/>
<path d="M48.7862 22.1435C59.2889 40.293 50.9751 50.4642 25.0123 58.6606C13.493 96.8504 12.0514 105.007 8.80956 121.327" stroke="#F8FAFC" stroke-width="4" stroke-linecap="round"/>
<path d="M79.7008 22.1428C69.1981 40.2923 77.5117 50.5311 103.475 58.7274C114.994 96.9172 116.435 105.074 119.677 121.394" stroke="#F8FAFC" stroke-width="4" stroke-linecap="round"/>
<path d="M80.3736 14.2946C80.3736 18.1721 80.2928 21.0778 78.5587 23.1986C76.8886 25.2411 73.1641 27.0832 64.2414 27.0832C56.2235 27.0832 52.3692 25.5855 50.4543 23.7237C48.5887 21.9099 48.1094 19.3129 48.1094 15.6807C48.1094 12.7133 49.7557 9.53491 52.7108 7.03852C55.644 4.56062 59.7236 2.89209 64.2415 2.89209C68.8644 2.89209 72.9706 4.27983 75.874 6.42597C78.778 8.57249 80.3736 11.377 80.3736 14.2946Z" stroke="#E3C17A" stroke-width="4"/>
<path d="M21.4775 125.208L34.478 91.2409" stroke="#F8FAFC" stroke-width="4" stroke-linecap="round"/>
<path d="M106.55 125.441L93.5494 91.4733" stroke="#F8FAFC" stroke-width="4" stroke-linecap="round"/>
<path d="M37.0996 137C37.0996 137 38.4679 120.934 38.81 110.767C39.1521 100.6 34.5908 91.2477 34.5908 91.2477" stroke="#F8FAFC" stroke-width="4" stroke-linecap="round"/>
<path d="M90.6611 136.716C90.6611 136.716 89.2929 120.65 88.9508 110.483C88.6087 100.316 93.17 90.9636 93.17 90.9636" stroke="#F8FAFC" stroke-width="4" stroke-linecap="round"/>
</svg>
