<svg width="100%" height="100%" viewBox="0 0 14 16" fill="none" xmlns="http://www.w3.org/2000/svg">
<path fill-rule="evenodd" clip-rule="evenodd" d="M7.00004 4C5.52728 4 4.33337 5.19391 4.33337 6.66667C4.33337 8.13943 5.52728 9.33333 7.00004 9.33333C8.4728 9.33333 9.66671 8.13943 9.66671 6.66667C9.66671 5.19391 8.4728 4 7.00004 4ZM5.66671 6.66667C5.66671 5.93029 6.26366 5.33333 7.00004 5.33333C7.73642 5.33333 8.33337 5.93029 8.33337 6.66667C8.33337 7.40305 7.73642 8 7.00004 8C6.26366 8 5.66671 7.40305 5.66671 6.66667Z" fill="#C9EEF2"/>
<path fill-rule="evenodd" clip-rule="evenodd" d="M6.62988 15.8878C6.63007 15.8879 6.63024 15.888 7.00004 15.3333L6.62988 15.8878C6.85381 16.0371 7.14591 16.0373 7.36984 15.888L7.00004 15.3333C7.36984 15.888 7.36965 15.8882 7.36984 15.888L7.37211 15.8865L7.37655 15.8835L7.39183 15.8732C7.40481 15.8644 7.42332 15.8517 7.447 15.8353C7.49435 15.8025 7.5624 15.7547 7.64818 15.6928C7.81968 15.5689 8.06247 15.3881 8.35283 15.1569C8.93249 14.6954 9.70712 14.0286 10.484 13.2085C12.0105 11.5972 13.6667 9.26796 13.6667 6.66667C13.6667 4.89856 12.9643 3.20286 11.7141 1.95262C10.4638 0.702379 8.76815 0 7.00004 0C5.23193 0 3.53624 0.702379 2.286 1.95262C1.03575 3.20286 0.333374 4.89856 0.333374 6.66667C0.333374 9.26796 1.98955 11.5972 3.51607 13.2085C4.29297 14.0286 5.0676 14.6954 5.64726 15.1569C5.93761 15.3881 6.1804 15.5689 6.3519 15.6928C6.43768 15.7547 6.50573 15.8025 6.55308 15.8353C6.57676 15.8517 6.59527 15.8644 6.60825 15.8732L6.62353 15.8835L6.62797 15.8865L6.62988 15.8878ZM3.2288 2.89543C4.229 1.89524 5.58555 1.33333 7.00004 1.33333C8.41453 1.33333 9.77108 1.89524 10.7713 2.89543C11.7715 3.89562 12.3334 5.25218 12.3334 6.66667C12.3334 8.73204 10.9895 10.7362 9.51607 12.2915C8.79297 13.0548 8.0676 13.6796 7.52226 14.1139C7.3193 14.2755 7.14202 14.4101 7.00004 14.5151C6.85806 14.4101 6.68078 14.2755 6.47783 14.1139C5.93249 13.6796 5.20712 13.0548 4.48401 12.2915C3.01053 10.7362 1.66671 8.73204 1.66671 6.66667C1.66671 5.25218 2.22861 3.89562 3.2288 2.89543Z" fill="#C9EEF2"/>
</svg>
