<svg xmlns="http://www.w3.org/2000/svg" width="34" height="35" fill="none" viewBox="0 0 34 35"><path fill="#59CCD9" fill-rule="evenodd" d="M11.9089 16.3151C13.3255 19.1406 15.4062 21.2825 18.151 22.7409L20.2318 20.599C20.5269 20.2951 20.8516 20.2192 21.2057 20.3711C22.2682 20.7357 23.3898 20.918 24.5703 20.918C24.8359 20.918 25.0573 21.0091 25.2344 21.1914C25.4115 21.3737 25.5 21.6016 25.5 21.875V25.293C25.5 25.5664 25.4115 25.7943 25.2344 25.9766C25.0573 26.1589 24.8359 26.25 24.5703 26.25C20.1432 26.25 16.3581 24.6322 13.2148 21.3965C10.0716 18.1608 8.5 14.2643 8.5 9.70703C8.5 9.43359 8.58854 9.20573 8.76562 9.02344C8.94271 8.84114 9.16406 8.75 9.42969 8.75H12.75C13.0156 8.75 13.237 8.84114 13.4141 9.02344C13.5911 9.20573 13.6797 9.43359 13.6797 9.70703C13.6797 10.9223 13.8568 12.0768 14.2109 13.1706C14.329 13.5655 14.2552 13.8997 13.9896 14.1732L11.9089 16.3151Z" clip-rule="evenodd"/></svg>