<svg width="100%" height="100%" viewBox="0 0 153 152" fill="none" xmlns="http://www.w3.org/2000/svg">
<g filter="url(#filter0_d_3090_3092)">
<circle cx="76.5" cy="70" r="64" fill="#56748D"/>
<circle cx="76.5" cy="70" r="62.5" stroke="#4ED999" stroke-width="3"/>
</g>
<path d="M75.8013 74.3841C65.2887 74.3841 56.7197 65.7818 56.7197 55.1815C56.7197 44.5812 65.2678 36 75.8013 36C86.3348 36 94.8829 44.6022 94.8829 55.2025C94.8829 65.8029 86.3139 74.3841 75.8013 74.3841ZM75.8013 40.2065C67.5877 40.2065 60.8997 46.9368 60.8997 55.2025C60.8997 63.4683 67.5877 70.1986 75.8013 70.1986C84.0149 70.1986 90.7029 63.4683 90.7029 55.2025C90.7029 46.9368 83.994 40.2065 75.8013 40.2065Z" fill="#4ED999"/>
<path d="M59.0816 104.25C48.548 104.25 40 95.648 40 85.0688C40 74.4895 48.548 65.8662 59.0816 65.8662C69.6151 65.8662 78.1631 74.4684 78.1631 85.0688C78.1631 95.6691 69.5942 104.25 59.0816 104.25ZM59.0816 70.0727C50.8679 70.0727 44.18 76.803 44.18 85.0688C44.18 93.3345 50.8679 100.065 59.0816 100.065C67.2952 100.065 73.9832 93.3345 73.9832 85.0688C73.9832 76.803 67.2743 70.0727 59.0816 70.0727Z" fill="#4ED999"/>
<path d="M92.939 104.25C82.4264 104.25 73.8574 95.6476 73.8574 85.0473C73.8574 74.447 82.4055 65.8447 92.939 65.8447C103.473 65.8447 112.021 74.447 112.021 85.0473C112.021 95.6476 103.452 104.25 92.939 104.25ZM92.939 70.0722C84.7253 70.0722 78.0374 76.8026 78.0374 85.0683C78.0374 93.334 84.7253 100.064 92.939 100.064C101.153 100.064 107.841 93.334 107.841 85.0683C107.841 76.8026 101.132 70.0722 92.939 70.0722Z" fill="#4ED999"/>
<defs>
<filter id="filter0_d_3090_3092" x="0.5" y="0" width="152" height="152" filterUnits="userSpaceOnUse" color-interpolation-filters="sRGB">
<feFlood flood-opacity="0" result="BackgroundImageFix"/>
<feColorMatrix in="SourceAlpha" type="matrix" values="0 0 0 0 0 0 0 0 0 0 0 0 0 0 0 0 0 0 127 0" result="hardAlpha"/>
<feOffset dy="6"/>
<feGaussianBlur stdDeviation="6"/>
<feComposite in2="hardAlpha" operator="out"/>
<feColorMatrix type="matrix" values="0 0 0 0 0.176471 0 0 0 0 0.243137 0 0 0 0 0.305882 0 0 0 0.2 0"/>
<feBlend mode="normal" in2="BackgroundImageFix" result="effect1_dropShadow_3090_3092"/>
<feBlend mode="normal" in="SourceGraphic" in2="effect1_dropShadow_3090_3092" result="shape"/>
</filter>
</defs>
</svg>
