<svg width="52" height="40" viewBox="0 0 52 40" fill="none" xmlns="http://www.w3.org/2000/svg">
<path d="M21.4601 19.9461C21.4601 13.7646 22.6461 8.89488 25.018 5.33693C27.426 1.77898 31.2894 0 36.6084 0C41.9273 0 45.7728 1.77898 48.1447 5.33693C50.5526 8.89488 51.7566 13.7646 51.7566 19.9461C51.7566 26.1995 50.5526 31.1051 48.1447 34.6631C45.7728 38.221 41.9273 40 36.6084 40C31.2894 40 27.426 38.221 25.018 34.6631C22.6461 31.1051 21.4601 26.1995 21.4601 19.9461ZM42.7 19.9461C42.7 16.3163 42.3046 13.531 41.514 11.5903C40.7233 9.61366 39.0881 8.62534 36.6084 8.62534C34.1286 8.62534 32.4933 9.61366 31.7027 11.5903C30.912 13.531 30.5167 16.3163 30.5167 19.9461C30.5167 22.3899 30.6605 24.4205 30.948 26.0377C31.2355 27.619 31.8105 28.9129 32.673 29.9191C33.5715 30.8895 34.8833 31.3747 36.6084 31.3747C38.3334 31.3747 39.6272 30.8895 40.4897 29.9191C41.3882 28.9129 41.9812 27.619 42.2687 26.0377C42.5562 24.4205 42.7 22.3899 42.7 19.9461Z" fill="#4ED999"/>
<path d="M0 8.71233V0H15.0725V40H5.38691V8.71233H0Z" fill="#4ED999"/>
</svg>
