<svg width="28" height="40" viewBox="0 0 28 40" fill="none" xmlns="http://www.w3.org/2000/svg">
<path d="M0.110421 33.0978C1.36186 32.1196 1.93237 31.6667 1.82195 31.7391C5.42903 28.8043 8.26317 26.3949 10.3244 24.5109C12.4224 22.6268 14.1891 20.6522 15.6246 18.587C17.06 16.5217 17.7778 14.5109 17.7778 12.5543C17.7778 11.0688 17.4281 9.90942 16.7288 9.07609C16.0294 8.24275 14.9804 7.82609 13.5818 7.82609C12.1831 7.82609 11.0789 8.35145 10.2692 9.40217C9.4962 10.4167 9.10973 11.8659 9.10973 13.75H0C0.073614 10.6703 0.73614 8.09783 1.98758 6.03261C3.27582 3.96739 4.95054 2.44565 7.01173 1.46739C9.10973 0.489131 11.4286 0 13.9683 0C18.3483 0 21.6425 1.10507 23.8509 3.31522C26.0962 5.52536 27.2188 8.4058 27.2188 11.9565C27.2188 15.8333 25.8753 19.4384 23.1884 22.7717C20.5015 26.0688 17.0784 29.2935 12.9193 32.4456H27.8261V40H0.110421V33.0978Z" fill="#4ED999"/>
</svg>
