<svg xmlns="http://www.w3.org/2000/svg" width="28" height="40" fill="none" viewBox="0 0 28 40"><path fill="#4ED999" d="M0.49298 11.846C0.639048 8.05666 1.91715 5.13502 4.32729 3.08101C6.73742 1.027 10.0057 0 14.1321 0C16.8709 0 19.208 0.460381 21.1434 1.38114C23.1154 2.3019 24.5943 3.5591 25.5803 5.15272C26.6028 6.74635 27.114 8.53475 27.114 10.5179C27.114 12.8552 26.5115 14.7676 25.3064 16.255C24.1013 17.707 22.6954 18.6985 21.0887 19.2297V19.4422C23.1701 20.1151 24.8134 21.2306 26.0185 22.7888C27.2236 24.3471 27.8261 26.3479 27.8261 28.7915C27.8261 30.9872 27.2966 32.9349 26.2376 34.6348C25.2151 36.2993 23.6996 37.6096 21.6912 38.5657C19.7193 39.5219 17.3639 40 14.6251 40C10.2431 40 6.73742 38.9553 4.10818 36.8659C1.51546 34.7765 0.146069 31.6246 0 27.4104H9.09277C9.12929 28.9686 9.58576 30.2081 10.4622 31.1288C11.3386 32.0142 12.6167 32.4568 14.2965 32.4568C15.7206 32.4568 16.8162 32.0673 17.583 31.2882C18.3864 30.4737 18.7881 29.4112 18.7881 28.1009C18.7881 26.4011 18.2221 25.1793 17.09 24.4356C15.9945 23.6565 14.2234 23.2669 11.7768 23.2669H10.024V15.8831H11.7768C13.6392 15.8831 15.1364 15.5821 16.2684 14.9801C17.437 14.3426 18.0212 13.2271 18.0212 11.6335C18.0212 10.3586 17.6561 9.36698 16.9257 8.6587C16.1954 7.95042 15.1911 7.59628 13.913 7.59628C12.5254 7.59628 11.4846 8.00354 10.7908 8.81806C10.1335 9.63258 9.75008 10.6419 9.64053 11.846H0.49298Z"/></svg>