<svg xmlns="http://www.w3.org/2000/svg" width="29" height="40" fill="none" viewBox="0 0 29 40"><path fill="#4ED999" d="M25.9918 8.20793H8.91929V15.7592C9.64888 14.9567 10.6703 14.3 11.9836 13.7893C13.2969 13.2786 14.7196 13.0233 16.2517 13.0233C18.9877 13.0233 21.2494 13.6434 23.0369 14.8837C24.8609 16.124 26.1924 17.7291 27.0315 19.699C27.8705 21.6689 28.29 23.803 28.29 26.1012C28.29 30.3694 27.0862 33.762 24.6785 36.2791C22.2709 38.7597 18.8782 40 14.5007 40C11.5823 40 9.04697 39.5075 6.89466 38.5226C4.74236 37.5011 3.08253 36.0967 1.91518 34.3092C0.747833 32.5217 0.109439 30.4606 0 28.1259H9.13816C9.35704 29.2567 9.886 30.2052 10.725 30.9713C11.5641 31.7009 12.7132 32.0657 14.1724 32.0657C15.8869 32.0657 17.1637 31.5185 18.0027 30.4241C18.8418 29.3297 19.2613 27.8705 19.2613 26.0465C19.2613 24.259 18.8235 22.891 17.948 21.9425C17.0725 20.9941 15.7957 20.5198 14.1176 20.5198C12.8773 20.5198 11.8559 20.8299 11.0533 21.4501C10.2508 22.0337 9.72184 22.8181 9.46648 23.803H0.437755V0H25.9918V8.20793Z"/></svg>