<svg xmlns="http://www.w3.org/2000/svg" width="28" height="40" fill="none" viewBox="0 0 28 40"><path fill="#4ED999" d="M18.3712 11.3218C18.0863 10.0044 17.5879 9.02537 16.8758 8.38452C16.1638 7.70806 15.1491 7.36983 13.8318 7.36983C11.8024 7.36983 10.3427 8.2599 9.45261 10.0401C8.56253 11.7846 8.09968 14.5616 8.06408 18.3712C8.84735 17.1251 9.96885 16.146 11.4286 15.4339C12.9239 14.7219 14.5616 14.3658 16.3418 14.3658C19.8309 14.3658 22.6257 15.4695 24.7263 17.6769C26.8625 19.8843 27.9306 22.964 27.9306 26.9159C27.9306 29.5149 27.3965 31.7935 26.3284 33.7517C25.296 35.7098 23.765 37.2408 21.7357 38.3445C19.7419 39.4482 17.3743 40 14.6328 40C9.14997 40 5.34045 38.2911 3.20427 34.8732C1.06809 31.4197 0 26.4709 0 20.0267C0 13.2621 1.1215 8.2421 3.36449 4.96662C5.64308 1.65554 9.27458 0 14.259 0C16.9292 0 19.1722 0.534045 20.988 1.60214C22.8393 2.63462 24.2279 4.00534 25.1535 5.71429C26.1148 7.42323 26.6845 9.29239 26.8625 11.3218H18.3712ZM14.1522 21.5754C12.6213 21.5754 11.3396 22.0383 10.3071 22.964C9.31019 23.854 8.81175 25.1357 8.81175 26.8091C8.81175 28.518 9.27459 29.8531 10.2003 30.8144C11.1615 31.7757 12.5145 32.2563 14.259 32.2563C15.8255 32.2563 17.0538 31.7935 17.9439 30.8678C18.8696 29.9065 19.3324 28.607 19.3324 26.9693C19.3324 25.296 18.8874 23.9786 17.9973 23.0174C17.1072 22.0561 15.8255 21.5754 14.1522 21.5754Z"/></svg>