<svg xmlns="http://www.w3.org/2000/svg" width="29" height="40" fill="none" viewBox="0 0 29 40"><path fill="#4ED999" d="M5.84981 18.6034C2.54721 16.8467 0.895912 14.0887 0.895912 10.3294C0.895912 8.43215 1.38779 6.71058 2.37155 5.16469C3.3553 3.58366 4.84848 2.33641 6.85112 1.42292C8.85375 0.474308 11.3131 0 14.2292 0C17.1454 0 19.5872 0.474308 21.5547 1.42292C23.5573 2.33641 25.0505 3.58366 26.0343 5.16469C27.018 6.71058 27.5099 8.43215 27.5099 10.3294C27.5099 12.2266 27.0531 13.8779 26.1397 15.2833C25.2613 16.6886 24.0668 17.7953 22.556 18.6034C24.4532 19.5169 25.9113 20.7817 26.9302 22.3979C27.9491 23.9789 28.4585 25.841 28.4585 27.9842C28.4585 30.4787 27.8261 32.6394 26.5613 34.4664C25.2964 36.2582 23.5749 37.6285 21.3966 38.5771C19.2534 39.5257 16.8643 40 14.2292 40C11.5942 40 9.18753 39.5257 7.00922 38.5771C4.86605 37.6285 3.16205 36.2582 1.89722 34.4664C0.632403 32.6394 0 30.4787 0 27.9842C0 25.8059 0.509435 23.9262 1.52832 22.3452C2.5472 20.729 3.98771 19.4818 5.84981 18.6034ZM18.7615 11.6996C18.7615 10.2591 18.3399 9.15239 17.4967 8.37945C16.6886 7.57137 15.5995 7.16733 14.2292 7.16733C12.859 7.16733 11.7523 7.57137 10.9091 8.37945C10.101 9.18753 9.69697 10.3118 9.69697 11.7523C9.69697 13.1225 10.1186 14.2117 10.9618 15.0198C11.805 15.7927 12.8942 16.1792 14.2292 16.1792C15.5643 16.1792 16.6535 15.7751 17.4967 14.9671C18.3399 14.159 18.7615 13.0698 18.7615 11.6996ZM14.2292 22.5033C12.5779 22.5033 11.2429 22.96 10.224 23.8735C9.20509 24.7519 8.69566 25.9816 8.69566 27.5626C8.69566 29.0382 9.18753 30.2503 10.1713 31.1989C11.1902 32.1476 12.5428 32.6219 14.2292 32.6219C15.9157 32.6219 17.2332 32.1476 18.1818 31.1989C19.1656 30.2503 19.6574 29.0382 19.6574 27.5626C19.6574 26.0167 19.148 24.787 18.1291 23.8735C17.1454 22.96 15.8454 22.5033 14.2292 22.5033Z"/></svg>