<svg xmlns="http://www.w3.org/2000/svg" width="28" height="40" fill="none" viewBox="0 0 28 40"><path fill="#4ED999" d="M9.43999 28.4267C9.97332 31.2356 11.6089 32.64 14.3467 32.64C16.2311 32.64 17.5644 31.8044 18.3467 30.1333C19.1289 28.4622 19.52 25.7422 19.52 21.9733C18.7378 23.0756 17.6711 23.9289 16.32 24.5333C14.9689 25.1378 13.4578 25.44 11.7867 25.44C9.51112 25.44 7.48445 24.9778 5.70667 24.0533C3.92889 23.0933 2.52444 21.6889 1.49333 19.84C0.497771 17.9556 0 15.68 0 13.0133C0 10.3822 0.533326 8.08889 1.59999 6.13333C2.70222 4.17778 4.24889 2.66667 6.24 1.6C8.26667 0.533334 10.6489 0 13.3867 0C18.6489 0 22.3289 1.63556 24.4267 4.90667C26.5245 8.17778 27.5733 12.9956 27.5733 19.36C27.5733 23.9822 27.1467 27.8044 26.2933 30.8267C25.4756 33.8133 24.0711 36.0889 22.08 37.6533C20.1244 39.2178 17.44 40 14.0267 40C11.3244 40 9.01333 39.4667 7.09333 38.4C5.20889 37.3333 3.75111 35.9289 2.72 34.1867C1.72445 32.4444 1.15555 30.5244 1.01333 28.4267H9.43999ZM13.8667 18.24C15.36 18.24 16.5511 17.7956 17.44 16.9067C18.3289 15.9822 18.7733 14.7378 18.7733 13.1733C18.7733 11.4667 18.3111 10.1511 17.3867 9.22667C16.4622 8.30222 15.2178 7.84 13.6533 7.84C12.0889 7.84 10.8444 8.32 9.91998 9.28C9.0311 10.2044 8.58666 11.4844 8.58666 13.12C8.58666 14.6489 9.0311 15.8933 9.91998 16.8533C10.8444 17.7778 12.16 18.24 13.8667 18.24Z"/></svg>